<?xml version="1.0" standalone="no"?>
<!DOCTYPE svg PUBLIC "-//W3C//DTD SVG 1.1//EN" "http://www.w3.org/Graphics/SVG/1.1/DTD/svg11.dtd" >
<svg>
<metadata>
Created by FontForge 20090622 at Thu Feb 23 08:59:25 2017
 By deploy user
Copyright &#239;&#190;&#169; 1997, 2001, Berthold LLC. All rights reserved. Akzidenz-Grotesk is a trademark of Berthold Types Limited.
</metadata>
<defs>
<font id="Akzidenz-GroteskBQ" horiz-adv-x="521" >
  <font-face 
    font-family="Akzidenz-Grotesk BQ"
    font-weight="500"
    font-stretch="normal"
    units-per-em="1000"
    panose-1="0 0 0 0 0 0 0 0 0 0"
    ascent="800"
    descent="-200"
    x-height="471"
    cap-height="706"
    bbox="-371 -233 1226.01 1024"
    underline-thickness="75"
    underline-position="-139"
    unicode-range="U+0020-U+E020"
  />
<missing-glyph horiz-adv-x="500" 
 />
    <glyph glyph-name=".notdef" horiz-adv-x="500" 
 />
    <glyph glyph-name="space" unicode=" " horiz-adv-x="271" 
 />
    <glyph glyph-name="exclam" unicode="!" horiz-adv-x="271" 
d="M170 147h-31l-24 282v277h79v-288zM115 0v90h79v-90h-79z" />
    <glyph glyph-name="quotedbl" unicode="&#x22;" horiz-adv-x="347" 
d="M274 449h-31l-29 294h88zM105 449h-32l-29 294h89z" />
    <glyph glyph-name="numbersign" unicode="#" horiz-adv-x="667" 
d="M477 414l-16 -108h139v-77h-150l-33 -229h-79l33 229h-111l-33 -229h-81l35 229h-139v77h149l16 108h-142v77h152l31 214h80l-31 -214h110l32 214h78l-30 -214h138v-77h-148zM286 414l-16 -108h112l15 108h-111z" />
    <glyph glyph-name="dollar" unicode="$" horiz-adv-x="625" 
d="M502 22q-67 -40 -136 -40h-12v-119h-67v119l-5 1l-5 1q-8 1 -15 2q-20 4 -39 9q-55 16 -94 42q-52 35 -82 92q-11 21 -18 43l-6 18q-1 7 -3 14l102 11q11 -54 48 -94q14 -15 30 -26q13 -10 25 -15q21 -11 62 -19v253q-2 1 -7 2l-6 2l-7 2l-36 13q-54 20 -86 42
q-5 3 -10 7l-12 10q-15 15 -26 31q-33 44 -33 98q0 27 9 53q3 10 7 19q4 7 7 13q35 62 110 90q25 9 55 15q9 2 21 3l8 1l6 1v110h67l1 -110l20 -5l20 -5q11 -3 20 -6q12 -3 24 -8q30 -13 59 -36l4 -3l5 -5q7 -5 14 -12q17 -17 29 -35q19 -27 32 -74l-93 -9q-22 72 -83 105
q-24 12 -52 16l1 -236l9 -3l10 -3q14 -4 26 -8q36 -12 67 -27l6 -3l8 -4l18 -10q26 -15 45 -33q57 -53 56 -127q0 -104 -98 -163zM287 642h-4l-5 -1q-7 -1 -13 -2q-17 -3 -31 -9q-69 -29 -69 -98v-8l2 -12q3 -15 10 -27q14 -24 50 -41q13 -6 31 -13l15 -5l14 -4v220z
M462 244q-32 27 -108 51l1 -237q8 0 22 2h4l4 1q5 1 11 2q14 3 26 8q36 14 56 44q18 26 18 57q0 44 -34 72z" />
    <glyph glyph-name="percent" unicode="%" horiz-adv-x="896" 
d="M849 204q0 -9 -1 -18q-2 -28 -8 -53q-18 -78 -64 -113q-23 -18 -52 -25q-11 -2 -22 -3l-8 -1h-7q-13 0 -25 2q-17 3 -33 9q-41 17 -67 56q-39 59 -39 160q0 115 50 178q44 54 112 54q67 0 113 -56q52 -65 51 -181v-9zM303 -29l-55 26l318 685l54 -26zM353 440
q0 -9 -1 -17q-2 -26 -6 -49q-15 -70 -55 -109q-41 -41 -101 -41q-64 0 -106 47q-24 26 -39 67q-19 51 -19 114q0 54 16 104q19 60 54 92l6 4l7 6q10 6 20 11q29 14 60 14q6 0 12 -1q9 0 17 -2q20 -5 40 -16q63 -35 85 -121q7 -28 9 -60q1 -11 1 -21v-22zM756 350
q-15 23 -38 34q-9 4 -19 6q-8 1 -15 1q-46 -2 -69 -40q-29 -45 -28 -131q0 -83 28 -128q15 -25 38 -36q10 -4 20 -6q8 -2 15 -2q40 0 64 33q17 23 25 65q6 28 7 67q1 90 -28 137zM264 577q-15 27 -39 40q-10 5 -21 7q-8 2 -16 2q-38 0 -64 -34q-21 -28 -29 -83
q-2 -18 -3 -36v-34q1 -18 3 -35q7 -54 26 -84q25 -38 69 -38t71 39q27 40 27 129q0 85 -24 127z" />
    <glyph glyph-name="ampersand" unicode="&#x26;" horiz-adv-x="604" 
d="M593 -4q-11 -2 -22 -3q-10 -1 -16 -1q-54 0 -97 27q-15 10 -29 24q-6 5 -11 11l-5 5l-4 5q-21 -18 -40 -30q-38 -24 -81 -35q-17 -5 -33 -6q-13 -2 -24 -2q-7 0 -14 1q-10 0 -20 2q-26 5 -50 16q-16 7 -32 19q-21 15 -36 34q-41 50 -41 122q0 76 51 137q11 13 23 24
q5 4 9 8q4 3 7 5l18 12l20 12q25 14 37 23q-33 87 -33 130q0 70 44 117q45 48 114 48q61 0 103 -39q42 -41 42 -102q0 -29 -11 -57q-14 -33 -46 -64q-11 -11 -24 -21q-4 -3 -9 -6l-3 -3l-3 -2q-11 -8 -28 -17l-29 -17q19 -42 61 -113l19 -32l20 -33q30 57 47 130h77
q-9 -63 -36 -123q-10 -22 -22 -44q-5 -8 -10 -17l-4 -7l-4 -6q2 -3 5 -6q3 -4 7 -8q9 -10 19 -17q30 -21 66 -21q9 0 28 3v-83zM393 583q-2 9 -5 18q-16 39 -61 39q-8 0 -14 -1q-10 -3 -20 -8q-26 -14 -36 -42q-4 -10 -6 -21l-1 -9v-6q1 -20 8 -45q8 -31 25 -65
q111 48 111 127q0 6 -1 13zM326 178l-17 29l-17 29q-44 75 -56 101q-28 -13 -46 -26q-37 -27 -54 -62q-13 -27 -13 -54v-8l2 -10q2 -14 7 -27q31 -81 115 -81q39 1 76 22q12 7 24 17l9 7l3 3l3 3q-16 22 -36 57z" />
    <glyph glyph-name="quoteright" unicode="&#x2019;" horiz-adv-x="229" 
d="M162 654q0 -119 -41 -214h-47q33 95 33 156h-44v110h99v-52z" />
    <glyph glyph-name="parenleft" unicode="(" horiz-adv-x="315" 
d="M287 -163l-7 6l-6 5l-5 4l-4 3q-63 50 -113 118q-48 65 -74 136q-38 100 -38 212q0 181 94 325q27 40 62 77q36 37 88 75l33 -40q-56 -51 -85 -91q-99 -135 -99 -339q0 -137 50 -257t136 -188z" />
    <glyph glyph-name="parenright" unicode=")" horiz-adv-x="319" 
d="M245 105q-40 -108 -119 -190q-32 -34 -88 -75l-33 39q56 52 85 92q100 136 100 340q0 138 -50 257q-50 120 -136 187l33 46l7 -6l6 -4q7 -6 9 -8q61 -48 112 -118q50 -69 75 -136q37 -97 37 -212q0 -107 -38 -212z" />
    <glyph glyph-name="asterisk" unicode="*" horiz-adv-x="349" 
d="M219 546l63 -83l-48 -37l-66 85l-59 -85l-50 36l59 85l-100 28l17 57l102 -27v103h62v-105l103 34l21 -54z" />
    <glyph glyph-name="plus" unicode="+" horiz-adv-x="724" 
d="M406 262v-229h-88v229h-224v78h224v228h88v-228h225v-78h-225z" />
    <glyph glyph-name="comma" unicode="," horiz-adv-x="229" 
d="M162 49q0 -113 -41 -205h-47q33 95 33 156h-44v109h99v-60z" />
    <glyph glyph-name="hyphen" unicode="-" horiz-adv-x="370" 
d="M45 262v76h280v-76h-280z" />
    <glyph glyph-name="period" unicode="." horiz-adv-x="229" 
d="M64 0v113h99v-113h-99z" />
    <glyph glyph-name="slash" unicode="/" horiz-adv-x="333" 
d="M90 0h-77l233 702h75z" />
    <glyph glyph-name="zero" unicode="0" horiz-adv-x="583" 
d="M424 40q-56 -46 -134 -46q-60 0 -110 30q-132 82 -132 308v17q0 14 2 28q2 41 11 78q25 114 92 174q34 30 77 43q17 4 34 7q12 1 25 1q10 0 19 -1q13 -1 26 -4q35 -8 65 -26q58 -35 93 -106q43 -85 42 -207q0 -206 -110 -296zM444 347q0 9 -1 19q-1 29 -5 56
q-13 82 -47 128q-23 31 -54 43q-11 5 -24 7q-10 1 -21 1q-32 0 -58 -13q-10 -5 -19 -12q-7 -5 -13 -11q-9 -8 -17 -20q-11 -15 -20 -35q-15 -35 -22 -86q-6 -41 -6 -88v-30q1 -28 5 -53q11 -79 45 -126q6 -9 13 -17q10 -10 21 -18q30 -21 71 -20h11q9 1 16 3q22 4 39 15
q47 31 70 113q16 61 16 133v11z" />
    <glyph glyph-name="one" unicode="1" horiz-adv-x="583" 
d="M263 0v493h-145v62q114 0 151 59q10 15 16 36q2 7 3 14l1 6l1 4h67v-674h-94z" />
    <glyph glyph-name="two" unicode="2" horiz-adv-x="583" 
d="M79 0l1 86l21 11l21 12q28 18 68 49q52 41 98 84q131 121 131 231q0 60 -33 94q-34 35 -94 35q-37 0 -66 -14q-22 -10 -35 -27q-6 -9 -12 -21q-2 -5 -4 -9l-1 -4l-1 -2q-5 -16 -7 -34q0 -7 -1 -13v-9q0 -32 12 -80h-88l-2 7l-2 7l-4 18q-4 22 -4 48v12q1 8 1 16
q2 21 8 40q15 56 54 91q24 21 57 34q44 18 98 18h11q7 -1 14 -1q18 -2 36 -6q48 -13 84 -43q72 -60 72 -163q0 -46 -17 -91q-22 -58 -74 -116q-32 -37 -76 -74q-40 -35 -79 -63l-34 -23l-35 -23h323v-77h-441z" />
    <glyph glyph-name="three" unicode="3" horiz-adv-x="583" 
d="M528 164q-2 -16 -7 -32q-13 -42 -44 -73q-41 -42 -106 -57q-23 -5 -47 -7q-9 -1 -18 -1h-33q-15 1 -30 3q-39 5 -72 19q-97 39 -123 139q-7 27 -8 68h90v-4l1 -7q1 -9 2 -16q3 -25 9 -43q29 -79 146 -79h14q11 1 20 2q28 4 50 14q63 28 63 105q0 25 -8 44q-5 14 -15 26
q-33 43 -131 43q-30 0 -60 -3l1 81q108 -9 154 22q7 5 13 10q8 8 14 17q16 25 16 57q0 20 -6 38q-3 6 -6 13q-3 5 -6 9q-37 54 -118 54q-73 0 -108 -56q-19 -32 -23 -102l-89 4q4 59 13 89q26 85 104 119q27 12 60 17q12 2 25 2q9 1 19 1h17l23 -2q31 -4 60 -14
q71 -25 103 -85q12 -22 18 -48q4 -20 4 -39v-6q0 -5 -1 -10q-1 -14 -4 -26q-8 -38 -27 -61q-14 -18 -50 -40q15 -7 26 -13l8 -6l7 -5q10 -8 19 -19q12 -13 20 -28q22 -40 22 -90q0 -12 -1 -24z" />
    <glyph glyph-name="four" unicode="4" horiz-adv-x="583" 
d="M434 162v-162h-87v162h-305v81l322 431h70v-436h98v-76h-98zM133 238h214l4 302z" />
    <glyph glyph-name="five" unicode="5" horiz-adv-x="583" 
d="M487 99q-40 -65 -108 -90q-16 -6 -35 -10q-28 -5 -57 -5q-99 0 -163 56q-25 21 -42 49q-14 23 -23 47q-8 25 -12 64l89 6q2 -23 14 -53q24 -61 77 -82q4 -2 9 -3q6 -2 13 -3q16 -4 35 -4q34 0 61 12q35 15 58 48q29 43 29 108q0 34 -7 56q-18 65 -79 89q-6 2 -10 3l-14 4
q-17 3 -36 3h-13q-10 -1 -19 -3q-26 -5 -45 -18q-8 -4 -19 -15q-25 -24 -37 -51h-81l22 367h383v-79h-315l-9 -177q5 5 10 8l12 9q16 10 32 18q43 20 95 19q30 0 57 -6l20 -6q8 -3 15 -6q62 -28 98 -89q33 -59 33 -129q0 -75 -38 -137z" />
    <glyph glyph-name="six" unicode="6" horiz-adv-x="583" 
d="M527 213l-2 -21q-4 -29 -14 -55q-25 -67 -80 -105t-128 -38q-19 0 -38 3q-25 4 -48 13q-62 25 -101 84q-54 80 -54 235v12q0 9 1 18q1 25 3 49q8 68 28 120q14 38 41 73q43 51 95 67l12 4l16 4q23 4 46 4h14l18 -2q24 -3 48 -12q54 -20 85 -62q24 -35 40 -98l-87 -12
q-14 79 -71 102q-4 1 -7 3q-5 1 -11 2q-13 3 -28 3h-6l-8 -1q-11 -1 -22 -4q-30 -7 -51 -24q-13 -11 -25 -29q-15 -23 -25 -52q-15 -43 -20 -131l3 3l2 3l3 4q8 10 13 15q9 9 20 17q15 11 32 19q43 21 94 21h15l20 -2q27 -5 51 -15q20 -9 38 -22q23 -16 41 -38
q47 -57 47 -140v-15zM436 253l-2 10l-3 9q-20 65 -80 85q-14 5 -29 6q-6 1 -12 1h-16q-7 0 -13 -1q-19 -3 -34 -9q-40 -16 -63 -54q-22 -36 -22 -80v-10q1 -7 2 -13q2 -17 8 -34q5 -13 13 -26q11 -16 25 -29q39 -34 95 -34q28 0 55 11q39 17 61 57q19 36 18 80q0 16 -3 31z
" />
    <glyph glyph-name="seven" unicode="7" horiz-adv-x="583" 
d="M509 577q0 -30 -39 -99l-35 -61q-32 -58 -57 -109q-13 -27 -37 -81l-19 -45q-10 -25 -17 -46q-11 -32 -19 -72q-8 -32 -12 -64h-106q13 101 80 241q49 103 124 220l30 47q33 51 33 86h-267v-128h-72v208h413v-97z" />
    <glyph glyph-name="eight" unicode="8" horiz-adv-x="583" 
d="M533 196l-1 -10q0 -12 -2 -24q-6 -33 -22 -60q-25 -45 -70 -72q-59 -36 -146 -36h-15l-21 2q-29 3 -55 11q-76 23 -116 83q-20 30 -28 65q-3 13 -4 26q-1 10 -1 20q0 79 51 130q11 11 41 31q-75 50 -75 139q0 34 11 64q4 11 9 22q4 8 10 16q56 77 194 77q136 0 189 -74
q20 -27 28 -61q2 -13 3 -26l1 -10v-17q0 -6 -1 -12q-2 -16 -6 -30q-12 -41 -43 -69q-12 -10 -26 -19l7 -4l7 -5q8 -5 15 -10q18 -14 31 -30q35 -44 35 -110v-7zM424 508l-1 8q-2 11 -5 20q-10 27 -32 43q-21 15 -59 21q-12 2 -26 3h-13q-35 0 -62 -9q-33 -11 -51 -35
q-17 -23 -17 -56v-9q1 -6 2 -13q4 -17 12 -31q29 -53 120 -53q93 0 120 55q5 9 8 19q4 15 4 31v6zM440 210l-1 9q-1 11 -4 21q-9 29 -31 48q-24 22 -68 30q-15 2 -30 3q-6 1 -11 1h-6q-78 0 -116 -41q-30 -32 -30 -79v-12q1 -8 3 -16q5 -23 17 -41q25 -36 74 -49
q17 -5 35 -7q7 -1 13 -1h16q6 0 11 1q16 1 30 5q42 9 66 35q20 21 28 50q3 11 4 22v21z" />
    <glyph glyph-name="nine" unicode="9" horiz-adv-x="583" 
d="M525 327q0 -13 -1 -25q-2 -36 -8 -69q-17 -100 -67 -162l-4 -5l-5 -5q-6 -8 -12 -14q-18 -17 -38 -28t-44 -17q-32 -8 -71 -8q-22 0 -39 3q-12 1 -24 5t-24 9q-15 8 -30 18q-37 26 -60 68q-14 24 -25 65l87 16q0 -3 2 -9q2 -8 5 -16q8 -21 18 -37q32 -46 96 -46q8 0 16 1
q12 1 23 5q30 9 53 30q33 32 51 93q15 52 15 105q-5 -7 -9 -11q-6 -8 -12 -14q-16 -16 -34 -28q-49 -33 -112 -33q-98 0 -159 64q-61 63 -61 162v12q1 8 2 17q2 21 7 42q16 58 53 97q26 27 59 43q47 22 107 22h12q8 0 16 -1q21 -2 39 -7q53 -14 91 -50q87 -83 87 -276v-16z
M430 443q0 7 -1 14q-2 18 -7 36q-34 109 -143 109q-27 0 -50 -9q-10 -3 -18 -8l-12 -8q-36 -26 -50 -78q-5 -18 -7 -37q-1 -7 -1 -14v-9q0 -37 11 -61q5 -13 14 -25q11 -15 25 -26q37 -29 91 -29q32 0 58 10q13 5 26 12q16 10 29 23q33 34 35 89v11z" />
    <glyph glyph-name="colon" unicode=":" horiz-adv-x="271" 
d="M106 377v112h99v-112h-99zM106 0v113h99v-113h-99z" />
    <glyph glyph-name="semicolon" unicode=";" horiz-adv-x="271" 
d="M107 380v110h99v-110h-99zM206 50q0 -102 -25 -171l-7 -17l-7 -17h-45q25 78 25 155h-40v111h99v-61z" />
    <glyph glyph-name="less" unicode="&#x3c;" horiz-adv-x="724" 
d="M114 257v89l465 235v-88l-384 -190l384 -189v-91z" />
    <glyph glyph-name="equal" unicode="=" horiz-adv-x="724" 
d="M99 350v78h526v-78h-526zM99 163v77h526v-77h-526z" />
    <glyph glyph-name="greater" unicode="&#x3e;" horiz-adv-x="724" 
d="M144 21v89l384 189l-384 189v91l465 -233v-90z" />
    <glyph glyph-name="question" unicode="?" horiz-adv-x="562" 
d="M488 377q-14 -19 -33 -34q-15 -11 -31 -19q-34 -16 -88 -22v-152h-79l1 236h40q13 1 26 3q38 5 59 16q13 7 24 17q4 3 8 8q3 3 5 6q14 19 20 42q2 8 3 17v12q0 22 -7 43q-3 7 -6 15l-6 10q-15 23 -44 40q-39 22 -87 22q-40 0 -67 -14q-21 -11 -35 -29q-14 -17 -22 -40
q-11 -29 -11 -67v-16h-87q0 104 49 162q10 13 24 24q17 15 37 26q52 29 115 29q14 0 27 -2q20 -2 38 -7q50 -13 90 -46q44 -37 63 -89q7 -20 10 -41q2 -16 2 -31q0 -69 -38 -119zM251 0v97h89v-97h-89z" />
    <glyph glyph-name="at" unicode="@" horiz-adv-x="896" 
d="M804 278q-25 -77 -76 -136q-62 -72 -132 -72q-39 0 -61 24q-23 23 -22 62q-65 -85 -144 -85q-64 0 -99 51q-31 44 -31 111q0 71 30 139q31 74 86 112q46 33 95 33q83 0 115 -84l15 62h68l-33 -150l-5 -21l-4 -21l-9 -43q-10 -51 -10 -87q0 -18 7 -29q8 -14 24 -14t36 14
q15 11 29 27q86 101 86 250q0 111 -67 175q-65 62 -177 62q-166 0 -285 -129q-115 -126 -115 -294q0 -141 94 -224q90 -80 233 -80q184 0 335 146l33 -41q-160 -160 -367 -160q-90 0 -174 35q-210 89 -210 323q0 194 132 335q135 143 328 143q133 0 215 -77q83 -78 83 -211
q0 -74 -23 -146zM518 424q-23 30 -62 30q-31 0 -63 -26q-36 -31 -56 -87q-19 -51 -19 -103q0 -43 18 -71q22 -32 62 -32q51 0 90 52q30 41 44 99q8 37 8 71q0 40 -22 67z" />
    <glyph glyph-name="A" unicode="A" horiz-adv-x="646" 
d="M535 0l-77 216h-269l-79 -216h-100l269 706h98l257 -706h-99zM327 590l-108 -295h211z" />
    <glyph glyph-name="B" unicode="B" horiz-adv-x="688" 
d="M589 61q-19 -19 -44 -33q-19 -10 -40 -16q-39 -12 -152 -12h-276v706h332q93 0 152 -51q58 -49 58 -130q0 -71 -48 -118q-10 -9 -22 -18q-5 -3 -10 -5q-3 -3 -6 -4l-8 -4l-14 -4q34 -10 56 -25q30 -20 48 -50q25 -43 25 -102q-1 -83 -51 -134zM520 528l-1 10q-1 12 -5 22
q-10 28 -38 45q-30 18 -109 18h-201v-214h148q103 0 129 7q12 3 23 9q14 7 25 18q29 29 29 77v8zM543 211q0 6 -1 12q-2 16 -8 30q-4 9 -9 17q-7 11 -16 21q-25 24 -60 32q-27 6 -110 6h-173v-246h209q64 0 85 6q3 0 6 1q4 1 9 3q11 4 21 10q20 12 31 32q16 27 16 67v9z" />
    <glyph glyph-name="C" unicode="C" horiz-adv-x="764" 
d="M740 247q-2 -7 -3 -13q-5 -17 -12 -34q-9 -22 -22 -45q-18 -31 -42 -58q-63 -72 -154 -99q-33 -10 -68 -14l-26 -2h-19q-83 0 -150 29q-26 12 -49 28q-18 12 -35 28q-45 43 -73 102q-38 81 -38 184q0 167 95 268q96 103 262 103h19l26 -2q35 -3 67 -12q92 -25 148 -91
q37 -44 62 -111l-95 -19q-14 40 -32 66q-11 16 -26 29q-18 18 -40 31q-56 34 -130 34q-8 0 -17 -1q-13 0 -25 -2q-33 -5 -61 -17q-94 -40 -130 -144q-12 -36 -17 -77l-2 -30v-20q0 -116 49 -192q39 -61 101 -87q8 -3 17 -6l22 -6q30 -6 64 -6h12q8 0 17 1q22 2 43 8
q13 4 27 10q19 8 35 20q45 30 71 78q18 35 29 90l102 -12q-1 -4 -2 -9z" />
    <glyph glyph-name="D" unicode="D" horiz-adv-x="708" 
d="M646 231l-6 -22q-4 -14 -10 -27q-14 -35 -34 -63q-56 -79 -153 -106q-41 -12 -118 -12h-34l-34 -1h-179v706h295q10 -1 19 -1q24 -2 46 -8q61 -15 110 -57q48 -41 75 -102q35 -77 35 -186q0 -70 -12 -121zM507 550q-18 21 -35 33q-17 13 -35 21q-7 3 -14 5q-6 2 -11 3
q-36 11 -126 11h-111v-541h179q8 1 16 1q21 3 41 8q55 16 90 57q61 69 61 205q0 129 -55 197z" />
    <glyph glyph-name="E" unicode="E" horiz-adv-x="604" 
d="M79 0v706h486v-83h-396v-218h344v-82h-344v-241h408v-82h-498z" />
    <glyph glyph-name="F" unicode="F" horiz-adv-x="542" 
d="M172 622v-208h334v-82h-334v-332h-94v706h453v-84h-359z" />
    <glyph glyph-name="G" unicode="G" horiz-adv-x="812" 
d="M659 0v99l-5 -7l-5 -8q-8 -11 -18 -20q-33 -33 -83 -54q-65 -28 -147 -28q-89 0 -161 34q-31 15 -60 37q-35 28 -62 64q-68 94 -68 227v21l2 26q4 34 12 66q24 89 82 155q19 20 38 36q26 22 56 37q75 39 174 39h21q16 -1 31 -3q42 -5 78 -18q17 -6 33 -13q23 -11 43 -25
q55 -36 92 -93q15 -22 29 -53l-98 -25q-17 48 -45 79q-39 45 -104 63q-22 6 -46 8l-18 2h-13q-71 0 -125 -28q-21 -12 -39 -27q-14 -12 -27 -26q-29 -33 -47 -77q-25 -60 -25 -133v-14q0 -9 1 -18q2 -24 7 -47q13 -64 47 -112q13 -18 27 -32q19 -19 42 -33q57 -35 137 -35
h12q7 0 14 1q20 2 38 6q51 11 92 39q57 39 77 101q7 22 10 47q1 10 1 20v16h-246v79h328v-373h-82z" />
    <glyph glyph-name="H" unicode="H" horiz-adv-x="729" 
d="M556 0v323h-384v-323h-93v706h93v-300h384v300h95v-706h-95z" />
    <glyph glyph-name="I" unicode="I" horiz-adv-x="229" 
d="M67 0v706h95v-706h-95z" />
    <glyph glyph-name="J" unicode="J" horiz-adv-x="375" 
d="M297 187q0 -53 -5 -76q-7 -37 -33 -67q-34 -40 -87 -54q-19 -5 -39 -7q-8 -1 -16 -1h-12q-44 0 -96 10v103l12 -6q28 -14 71 -14h13q9 0 18 2q43 7 62 35q16 24 16 116v478h96v-519z" />
    <glyph glyph-name="K" unicode="K" horiz-adv-x="625" 
d="M509 0l-248 348l-100 -102v-246h-94v706h94v-345l335 345h116l-286 -292l298 -414h-115z" />
    <glyph glyph-name="L" unicode="L" 
d="M68 0v706h94v-622h342v-84h-436z" />
    <glyph glyph-name="M" unicode="M" horiz-adv-x="812" 
d="M652 0l13 592l-223 -592h-73l-219 583l10 -583h-92v706h122l216 -579l218 579h122v-706h-94z" />
    <glyph glyph-name="N" unicode="N" horiz-adv-x="708" 
d="M545 0l-387 574l9 -574h-89v706h89l382 -566l-4 566h85v-706h-85z" />
    <glyph glyph-name="O" unicode="O" horiz-adv-x="812" 
d="M762 342l-2 -24q-2 -30 -8 -60q-18 -83 -64 -145q-17 -23 -38 -42q-27 -25 -59 -43q-80 -46 -187 -46h-19l-24 2q-31 3 -60 11q-81 22 -140 77q-46 43 -73 100q-37 79 -37 182v19l2 25q2 33 10 64q21 89 76 151q99 111 268 111q75 0 140 -25q106 -41 163 -135
q52 -88 52 -205v-17zM660 372q0 9 -1 18q-1 25 -6 48q-13 69 -48 117q-42 58 -109 80q-24 8 -51 11l-21 2h-17q-77 -1 -133 -34q-40 -24 -67 -63q-54 -78 -54 -198q0 -62 16 -117q12 -39 31 -70q11 -17 26 -34q5 -6 11 -11l8 -8q19 -16 40 -28l16 -8q6 -3 12 -5
q19 -7 37 -11q27 -5 59 -5h18q13 1 25 3q35 5 64 18q60 28 98 89q47 77 46 193v13z" />
    <glyph glyph-name="P" unicode="P" horiz-adv-x="625" 
d="M614 507q0 -71 -34 -124q-37 -57 -103 -75q-32 -9 -106 -9h-204v-299h-91v706h305q102 0 149 -30q51 -32 72 -93q7 -22 10 -45l2 -18v-13zM521 516q0 6 -1 12q-1 15 -6 28q-18 49 -72 64q-21 5 -57 5h-218v-242h235q22 1 38 5q81 21 81 121v7z" />
    <glyph glyph-name="Q" unicode="Q" horiz-adv-x="812" 
d="M746 -36l-112 95q-104 -77 -231 -77q-136 0 -230 77q-51 42 -82 102q-44 84 -44 192q0 12 1 24q0 16 2 31q5 42 18 80q34 109 122 171q39 28 81 43q62 22 137 22q137 0 230 -75q51 -42 82 -104q42 -84 42 -195q0 -120 -65 -222l109 -94zM661 367q0 9 -1 18q-1 25 -6 48
q-12 66 -47 116q-42 61 -110 86q-24 9 -52 13q-19 3 -40 3q-17 0 -33 -2q-23 -3 -44 -9q-59 -19 -101 -63q-49 -53 -67 -128q-7 -27 -9 -56q-1 -10 -1 -21v-34l2 -24q3 -33 11 -63q23 -88 85 -139q11 -9 24 -17q16 -10 34 -18q46 -19 102 -19h15l20 2q24 3 47 11
q63 20 105 70q43 52 58 124q5 26 7 53q1 10 1 20v29z" />
    <glyph glyph-name="R" unicode="R" horiz-adv-x="667" 
d="M545 0l-193 300h-182v-300h-92v706h330q119 -5 174 -71q18 -22 29 -50q14 -38 14 -85v-14l-2 -18q-3 -25 -11 -47q-23 -62 -81 -92q-28 -15 -72 -23l198 -306h-112zM532 509q0 6 -1 12q-2 15 -7 28q-13 38 -48 59q-24 14 -60 18q-13 2 -31 2h-215v-249h208l21 1
q24 1 41 5q46 10 70 42q22 30 22 73v9z" />
    <glyph glyph-name="S" unicode="S" horiz-adv-x="667" 
d="M618 191q-1 -8 -1 -15q-3 -18 -8 -36q-14 -47 -50 -82q-35 -34 -81 -52q-60 -24 -142 -24h-12q-9 0 -17 1q-25 1 -48 6q-69 11 -116 42q-33 21 -57 53q-27 36 -39 84q-5 16 -7 34l-2 14l-1 5v5l101 13v-4l1 -6q0 -6 1 -12q1 -17 6 -32q11 -43 40 -73q23 -24 56 -38
q43 -18 99 -18h10q8 0 16 1q21 2 39 7q7 2 13 4q9 3 17 7q21 9 37 22q44 37 44 100q0 31 -12 53q-5 8 -12 16q-5 5 -12 11q-19 15 -47 24l-26 7l-25 6l-61 13l-39 9l-40 10q-45 13 -76 30q-57 31 -80 78q-16 32 -16 74q0 82 67 138q46 38 111 52q22 4 46 5q9 1 19 1h13
q120 0 189 -53q22 -17 38 -36q6 -7 11 -15l8 -12q22 -38 33 -101l-95 -6q-2 23 -7 42q-13 45 -49 73q-47 35 -126 35q-40 0 -74 -10q-42 -12 -63 -37q-24 -27 -24 -64q0 -5 1 -10q0 -6 2 -12q4 -17 14 -30q18 -24 56 -39q15 -6 34 -11l17 -4l16 -4l78 -19q23 -5 55 -14l5 -1
l6 -2l16 -4q22 -7 41 -16q56 -27 83 -73q5 -8 8 -15q5 -11 9 -22q9 -28 9 -61v-12z" />
    <glyph glyph-name="T" unicode="T" horiz-adv-x="542" 
d="M317 624v-624h-94v624h-212v82h517v-82h-211z" />
    <glyph glyph-name="U" unicode="U" horiz-adv-x="688" 
d="M611 224q-2 -30 -6 -51q-3 -15 -8 -30q-7 -20 -18 -38q-28 -48 -77 -80q-29 -18 -62 -28q-47 -15 -102 -15q-66 0 -115 19q-104 39 -137 143q-10 34 -10 125v437h94v-465q0 -24 3 -41q0 -4 1 -7l2 -10q3 -13 7 -25q13 -33 36 -55q24 -23 59 -34q16 -4 37 -6q7 -1 15 -1
h27q13 1 25 4q34 6 62 24q47 30 62 87q10 35 10 107v422h95v-482z" />
    <glyph glyph-name="V" unicode="V" horiz-adv-x="604" 
d="M343 0h-93l-239 706h100l187 -590l194 590h100z" />
    <glyph glyph-name="W" unicode="W" horiz-adv-x="1021" 
d="M787 0h-92l-186 585l-180 -585h-94l-217 706h99l167 -585l179 585h92l186 -585l165 585h97z" />
    <glyph glyph-name="X" unicode="X" horiz-adv-x="625" 
d="M494 0l-183 287l-181 -287h-109l235 370l-222 336h112l165 -254l158 254h111l-216 -336l241 -370h-111z" />
    <glyph glyph-name="Y" unicode="Y" horiz-adv-x="625" 
d="M357 323v-323h-95v323l-248 383h111l186 -299l188 299h112z" />
    <glyph glyph-name="Z" unicode="Z" horiz-adv-x="604" 
d="M18 0v92l436 528h-401v86h508v-88l-434 -533h444v-85h-553z" />
    <glyph glyph-name="bracketleft" unicode="[" horiz-adv-x="277" 
d="M68 -144v923h184v-59h-104v-805h104v-59h-184z" />
    <glyph glyph-name="backslash" unicode="\" horiz-adv-x="333" 
d="M246 0l-233 702h77l231 -702h-75z" />
    <glyph glyph-name="bracketright" unicode="]" horiz-adv-x="276" 
d="M23 -143v59h104v805h-104v58h184v-922h-184z" />
    <glyph glyph-name="asciicircum" unicode="^" horiz-adv-x="724" 
d="M520 287l-156 339l-157 -339h-94l204 419h91l203 -419h-91z" />
    <glyph glyph-name="underscore" unicode="_" horiz-adv-x="500" 
d="M-10 -214v75h520v-75h-520z" />
    <glyph glyph-name="quoteleft" unicode="&#x2018;" horiz-adv-x="229" 
d="M63 440v51q0 101 42 215h47q-26 -76 -33 -157h43v-109h-99z" />
    <glyph glyph-name="a" unicode="a" horiz-adv-x="500" 
d="M486 3q-27 -9 -51 -9h-7q-7 1 -13 2q-19 2 -30 10q-5 4 -10 10l-4 5l-1 2l-1 1q-8 12 -12 23l-2 9l-2 8l-4 -5l-6 -5q-6 -7 -12 -12q-16 -15 -33 -25q-47 -30 -106 -30q-21 0 -40 4q-7 1 -14 3q-5 1 -11 3q-95 32 -95 125q0 10 2 20q2 14 7 26q12 33 42 56q33 24 91 39
q45 10 100 14l72 5q0 26 -1 39q0 8 -1 14q-1 9 -3 17q-4 19 -13 34q-25 39 -87 39h-8q-5 0 -11 -1q-15 -2 -28 -6q-38 -14 -50 -50q-5 -15 -5 -42l-83 5q0 8 2 19q2 13 6 27q15 44 49 71q48 38 124 38h13q8 -1 17 -2q22 -2 44 -8q5 -1 9 -3l12 -4q16 -6 30 -15
q39 -25 54 -66q10 -28 10 -101v-169l1 -16v-5l1 -5q2 -7 5 -12q8 -14 29 -14q6 0 24 4v-67zM347 207l-1 14v9q-6 -1 -16 -3l-10 -1l-11 -2q-28 -4 -47 -7q-61 -11 -84 -21q-4 -1 -7 -3l-8 -4q-11 -6 -20 -14q-23 -21 -23 -51q0 -29 21 -48q24 -22 68 -22q20 0 40 5
q25 6 45 19q53 36 53 115v14z" />
    <glyph glyph-name="b" unicode="b" horiz-adv-x="562" 
d="M524 224q0 -9 -1 -17q-1 -22 -5 -42q-12 -59 -45 -102q-18 -24 -41 -41q-9 -7 -19 -12q-7 -4 -14 -7t-15 -6l-20 -6q-28 -6 -58 -6q-37 0 -67 10q-12 3 -23 9q-8 3 -18 9q-32 19 -53 48v-61h-80v706h80v-300l3 5l5 7q6 8 14 15q53 53 140 53q16 0 30 -2q21 -2 40 -9
q52 -17 89 -60q25 -30 39 -66q19 -49 19 -113v-12zM439 255l-2 25q-5 34 -20 60q-7 12 -15 22q-11 13 -24 24q-37 27 -85 27q-38 0 -68 -15q-11 -6 -21 -15q-8 -6 -15 -13q-45 -47 -46 -136q0 -64 22 -104q6 -12 14 -23q11 -14 25 -25q37 -29 89 -29q45 0 76 21q29 19 47 56
q23 46 23 109v16z" />
    <glyph glyph-name="c" unicode="c" 
d="M459 76q-10 -16 -23 -29q-10 -11 -21 -20q-35 -27 -83 -37q-17 -3 -36 -4q-6 -1 -13 -1h-24l-21 2q-29 3 -54 12q-56 20 -94 68q-51 65 -51 165q1 102 49 168q38 51 94 72q25 9 51 12l20 2h15q84 0 141 -40q42 -30 63 -76q9 -18 13 -42l-88 -8l-1 4l-1 5q-2 7 -3 13
q-6 19 -15 33q-21 33 -59 46q-14 4 -29 6q-5 1 -11 1h-9q-61 0 -98 -42q-44 -49 -44 -149q0 -104 54 -156q37 -34 94 -34q35 0 60 12q58 26 73 119l86 -8q-9 -53 -35 -94z" />
    <glyph glyph-name="d" unicode="d" horiz-adv-x="562" 
d="M417 0v60q-6 -6 -10 -11q-6 -7 -12 -13q-16 -14 -33 -24q-45 -27 -106 -27q-60 0 -105 25q-17 10 -32 23q-12 10 -22 23q-25 30 -39 67q-19 50 -19 114q0 101 48 165q10 13 22 25q16 16 34 28q50 31 112 31q44 0 85 -17q15 -7 29 -16q11 -7 20 -14q15 -12 28 -30v297h80
v-706h-80zM419 246q0 7 -1 15q-1 20 -5 36q-12 52 -49 83q-38 32 -90 33h-9l-12 -1q-14 -2 -27 -6q-36 -12 -61 -42q-40 -47 -40 -130v-21q1 -16 4 -31q8 -44 32 -75q25 -32 61 -44q13 -4 28 -6l12 -1h10q45 0 76 20q31 19 49 55q23 43 22 105v10z" />
    <glyph glyph-name="e" unicode="e" 
d="M481 139l-2 -6q-3 -8 -6 -15q-10 -22 -21 -40q-11 -16 -24 -30q-16 -17 -36 -30q-52 -33 -122 -33q-33 0 -61 7q-20 4 -38 12q-54 23 -88 72q-44 65 -44 164q0 59 18 104q12 33 35 61q67 81 175 81q38 0 74 -13q13 -5 26 -11q17 -9 32 -21q40 -31 61 -80q23 -55 23 -140
h-358q-1 -57 23 -100q18 -33 45 -52q36 -24 85 -24q29 0 50 10q15 6 29 19q5 4 12 11q8 10 14 20q7 13 13 31l2 6l2 6q2 6 2 7l81 -11zM396 279q-2 29 -7 46q-12 44 -47 71q-35 28 -81 28q-60 0 -96 -44q-32 -39 -38 -101h269z" />
    <glyph glyph-name="f" unicode="f" horiz-adv-x="271" 
d="M270 632q-1 0 -6 1q-4 1 -10 2q-16 2 -27 2h-10q-7 -1 -14 -3q-18 -7 -27 -24q-9 -16 -9 -57v-82h89v-66h-89v-405h-78v405h-78v66h78v41q0 94 12 124q16 41 59 57q14 5 31 7q7 1 13 1h9q10 0 23 -1q17 -2 35 -5z" />
    <glyph glyph-name="g" unicode="g" horiz-adv-x="562" 
d="M497 25q0 -85 -11 -122q-17 -57 -61 -90q-16 -12 -35 -21l-16 -6l-14 -4l-7 -2l-7 -1q-9 -3 -18 -4q-25 -4 -50 -4h-13l-18 2q-24 2 -48 9q-74 20 -108 78q-13 20 -20 47q-3 10 -5 21q-2 8 -3 18h90v-11q1 -8 3 -16q4 -21 17 -38q22 -29 62 -40q13 -3 29 -4q5 -1 11 -1
h15q5 0 11 1q16 1 30 5q43 11 63 42q21 35 20 130l-1 54q-36 -49 -83 -69q-18 -8 -38 -11q-16 -3 -33 -3q-32 0 -62 9q-11 3 -22 7q-8 3 -15 7q-48 26 -79 72q-40 63 -40 153v11q0 8 1 16q1 22 6 43q11 60 42 101q63 82 170 82q12 0 26 -2q19 -3 38 -10q20 -8 40 -21
q26 -18 50 -46v64h83v-446zM417 253l-2 18q-2 24 -8 43q-16 48 -54 74q-38 27 -87 26q-33 0 -61 -14q-34 -17 -55 -53q-27 -46 -27 -112q0 -104 59 -150q36 -28 90 -28q32 0 57 11q18 7 33 20q55 49 55 154v11z" />
    <glyph glyph-name="h" unicode="h" 
d="M377 0v302q-2 32 -9 52q-22 62 -95 62q-10 0 -20 -2q-15 -2 -28 -8q-37 -15 -57 -49q-15 -27 -20 -63q-1 -14 -2 -33v-261h-80v706h80l1 -282q36 38 79 53q16 5 34 7q13 2 29 2q43 0 76 -13q25 -10 44 -27l4 -4l4 -5q6 -7 12 -15q20 -30 26 -71q2 -17 3 -39v-312h-81z
" />
    <glyph glyph-name="i" unicode="i" horiz-adv-x="208" 
d="M69 614v92h77v-92h-77zM69 0v471h77v-471h-77z" />
    <glyph glyph-name="j" unicode="j" horiz-adv-x="208" 
d="M65 613v93h78v-93h-78zM143 -104q0 -68 -25 -95q-20 -21 -51 -27q-10 -3 -23 -3h-15q-18 0 -52 4v71q29 -3 36 -3h6q4 0 9 1q12 3 21 9q16 11 16 65v553h78v-575z" />
    <glyph glyph-name="k" unicode="k" horiz-adv-x="458" 
d="M372 0l-169 226l-57 -60v-166h-81v706h81v-435l188 200h98l-175 -186l215 -285h-100z" />
    <glyph glyph-name="l" unicode="l" horiz-adv-x="208" 
d="M67 0v706h76v-706h-76z" />
    <glyph glyph-name="m" unicode="m" horiz-adv-x="771" 
d="M628 0v311q0 21 -3 35q-7 38 -40 55q-3 1 -6 3q-5 2 -10 3q-14 4 -27 4q-36 -1 -68 -22q-35 -23 -45 -56q-6 -18 -6 -68v-265h-78v282l1 18q0 21 -2 36q-7 40 -35 59q-8 6 -19 10q-15 5 -32 5h-11q-10 -1 -18 -4q-26 -7 -49 -24q-26 -19 -34 -42q-7 -17 -7 -60v-280h-75
v471h75l1 -63q12 15 30 31q53 47 111 47h7q5 -1 10 -1q13 -2 25 -6q34 -11 56 -37q8 -8 16 -21l13 -22l8 8l8 8l3 3l4 4q6 5 11 10q15 14 31 24q46 31 93 30q38 0 72 -20q12 -8 23 -18q4 -3 8 -7q3 -4 6 -7q22 -26 29 -66q2 -15 3 -36v-332h-79z" />
    <glyph glyph-name="n" unicode="n" 
d="M376 0v316q0 12 -3 23q-7 32 -33 51q-12 9 -26 14q-20 7 -45 7q-52 0 -88 -35l-3 -3l-3 -3l-7 -9q-10 -14 -15 -28q-9 -22 -9 -65v-268h-80v471h80v-69l14 21q3 4 6 7l5 5q8 8 17 16q13 9 27 16q36 19 79 19h10l14 -2q18 -3 35 -8q48 -17 75 -55q29 -40 29 -140v-281h-79
z" />
    <glyph glyph-name="o" unicode="o" horiz-adv-x="542" 
d="M502 223q-1 -8 -1 -17q-2 -21 -7 -42q-13 -58 -47 -100q-12 -14 -25 -25q-16 -15 -35 -26q-50 -28 -115 -28h-13q-8 1 -16 1q-22 3 -42 8q-55 15 -92 53q-29 29 -46 67q-23 52 -23 119q0 101 54 171q64 82 181 82q52 0 94 -18q53 -22 88 -71q46 -66 45 -162v-12zM416 254
q0 15 -2 30q-6 42 -22 72q-12 22 -29 36q-22 19 -50 26q-10 2 -21 3l-8 1h-7q-96 0 -132 -86q-12 -28 -16 -65l-2 -25v-16q0 -15 2 -30q0 -5 1 -11l1 -4v-3q1 -8 3 -16q2 -10 5 -19q9 -25 22 -45q39 -54 111 -53q11 0 22 2q15 2 29 7q38 15 61 50q19 29 27 77q3 16 4 33
q1 6 1 11v25z" />
    <glyph glyph-name="p" unicode="p" horiz-adv-x="562" 
d="M523 222q0 -8 -1 -16q-1 -22 -5 -42q-12 -58 -45 -100q-11 -14 -23 -26q-16 -15 -35 -25q-48 -28 -112 -28h-10q-7 0 -14 1q-17 2 -33 6q-45 11 -79 39q-10 8 -23 24v-279h-78v695h78l1 -67l3 3l3 4q4 5 9 10q12 12 25 22q32 25 75 36q15 4 31 6q12 1 21 1q31 0 62 -10
q11 -4 22 -9l8 -4l7 -4q46 -25 75 -73q38 -62 38 -152v-12zM441 249q-1 10 -1 19q-3 27 -11 48q-5 15 -13 28q-12 19 -26 32q-41 38 -102 35q-42 -2 -74 -23q-30 -20 -48 -55q-23 -44 -23 -106q0 -44 12 -77q8 -24 25 -46q20 -25 49 -37q11 -5 24 -8q17 -4 38 -4q46 0 77 18
q21 12 38 36q22 31 31 76q2 15 3 31q1 6 1 12v21z" />
    <glyph glyph-name="q" unicode="q" horiz-adv-x="562" 
d="M415 -225v281q-14 -18 -27 -27q-54 -44 -135 -44q-50 0 -88 16q-27 11 -51 32q-49 42 -66 112q-6 24 -8 51q-1 9 -1 19v14q0 117 56 184q7 9 17 18q14 13 30 23q9 6 18 10q12 6 25 11q33 11 69 11q12 0 25 -2q17 -2 33 -6q44 -14 77 -45q15 -15 26 -32v70h81v-696h-81z
M421 228q0 7 -1 13q-1 18 -4 35q-9 48 -33 81q-2 3 -6 8l-10 10q-15 15 -32 23q-9 5 -23 8q-18 4 -39 5h-15q-10 -1 -20 -3q-29 -6 -51 -21q-61 -44 -61 -153v-24q2 -21 6 -40q12 -58 48 -88q23 -19 54 -27q11 -3 23 -4l9 -1h20q9 1 18 3q23 4 43 15q74 38 74 151v9z" />
    <glyph glyph-name="r" unicode="r" horiz-adv-x="313" 
d="M306 391q-36 5 -59 0q-76 -13 -95 -86q-7 -24 -7 -87v-218h-80v471h80v-86q17 33 44 54q9 7 18 12q12 7 25 13q34 13 74 13v-86z" />
    <glyph glyph-name="s" unicode="s" horiz-adv-x="479" 
d="M446 122q0 -9 -2 -17q-6 -23 -18 -42q-21 -33 -60 -53q-49 -25 -118 -25h-8q-6 0 -12 1q-18 1 -36 4q-51 8 -84 29l-7 4q-4 3 -8 7q-10 8 -19 19q-22 26 -33 60q-4 12 -7 25l-2 10l-1 8l91 13q0 -55 26 -83q33 -36 105 -36h14q11 1 22 3q32 6 52 24q14 12 19 29q2 6 3 13
v16q-1 4 -1 9q-3 12 -8 20q-11 18 -41 28q-11 4 -26 7l-11 3l-11 2l-46 9q-75 15 -111 37q-57 35 -57 100q0 7 1 14q1 9 3 18q6 25 21 45q31 40 91 55q20 5 42 7q8 1 15 1h10q66 0 117 -29q37 -21 59 -54q12 -19 19 -42q2 -8 4 -17l1 -7l1 -6l-86 -10q-1 32 -7 44
q-11 23 -38 40q-35 20 -81 20q-45 0 -71 -23q-22 -20 -22 -46q0 -5 1 -11q2 -7 6 -14q17 -28 107 -49l46 -11l22 -6l21 -6q114 -35 114 -125q0 -6 -1 -12z" />
    <glyph glyph-name="t" unicode="t" horiz-adv-x="292" 
d="M259 0h-2l-2 -1l-6 -1q-10 -1 -19 -2q-27 -4 -47 -4q-61 0 -80 29q-11 17 -11 78v306h-76v66h76v149h82v-149h85v-66h-85v-270q0 -55 6 -66q8 -14 29 -14q8 0 20 3q15 2 30 8v-66z" />
    <glyph glyph-name="u" unicode="u" 
d="M375 0l-1 72q-8 -12 -20 -24q-60 -60 -140 -60h-9q-6 1 -13 1q-18 3 -34 8q-47 15 -70 53q-18 29 -22 71q-2 16 -2 37v313h79v-268q0 -72 11 -95q9 -18 28 -30q23 -15 58 -15h9q5 1 11 1q16 2 30 7q40 14 62 46q16 23 21 57q1 13 2 31v266h78v-471h-78z" />
    <glyph glyph-name="v" unicode="v" horiz-adv-x="437" 
d="M256 0h-72l-172 471h83l125 -361l124 361h82z" />
    <glyph glyph-name="w" unicode="w" horiz-adv-x="729" 
d="M546 0h-70l-113 351l-115 -351h-73l-164 471h86l118 -350l116 350h70l111 -350l123 350h84z" />
    <glyph glyph-name="x" unicode="x" horiz-adv-x="396" 
d="M297 0l-100 168l-98 -168h-90l146 239l-139 232h92l94 -162l95 162h90l-142 -232l142 -239h-90z" />
    <glyph glyph-name="y" unicode="y" horiz-adv-x="437" 
d="M227 -86l-3 -9l-4 -9l-7 -20q-9 -23 -16 -36q-20 -40 -46 -56q-26 -17 -71 -17q-16 0 -29 2q-21 2 -42 8v72l9 -3l11 -2q15 -3 31 -3h7q6 0 11 1q15 2 26 9q18 12 32 41q5 10 10 24l4 12l4 11l20 58l-160 474h85l118 -374l125 374h83z" />
    <glyph glyph-name="z" unicode="z" horiz-adv-x="417" 
d="M13 0v66l271 336h-245v69h344v-64l-274 -341h280v-66h-376z" />
    <glyph glyph-name="braceleft" unicode="{" horiz-adv-x="281" 
d="M230 -148q-70 0 -99 35q-17 20 -23 44q-6 26 -6 83v167q0 56 -10 73q-16 28 -75 34v60q37 2 56 14q17 10 23 30q6 18 6 62v167q0 57 6 83q18 75 122 78l38 1v-58h-17q-36 0 -52 -16q-9 -11 -12 -22q-4 -15 -4 -71v-164q0 -62 -17 -89q-16 -27 -65 -46q30 -9 47 -24
q35 -32 35 -110v-165q0 -55 4 -70q10 -38 65 -38h16v-58h-38z" />
    <glyph glyph-name="bar" unicode="|" horiz-adv-x="236" 
d="M77 -143v922h80v-922h-80z" />
    <glyph glyph-name="braceright" unicode="}" horiz-adv-x="281" 
d="M263 287q-37 -4 -56 -15q-17 -10 -23 -29q-6 -18 -6 -62l1 -162v-5q0 -52 -7 -84q-19 -78 -121 -78h-39v58h17q37 0 52 16q9 9 12 22q5 18 5 70l-1 164q-1 62 16 89t66 47q-28 7 -47 24q-35 31 -35 110l1 164q0 52 -5 71q-10 37 -65 37h-16v58h38q71 0 99 -35
q17 -21 23 -43q7 -32 7 -84v-5l-1 -162q0 -52 10 -72q16 -29 75 -34v-60z" />
    <glyph glyph-name="asciitilde" unicode="~" horiz-adv-x="724" 
d="M579 245q-46 -30 -93 -30q-28 0 -66 15q-22 8 -54 23l-35 17q-65 31 -104 31q-18 0 -33 -6q-23 -9 -69 -62l-6 -7l-45 61q26 37 53 61q45 40 105 40q41 0 133 -41l45 -20q55 -25 79 -25q35 0 66 23q20 14 51 50l45 -60q-39 -48 -72 -70z" />
    <glyph glyph-name="exclamdown" unicode="&#xa1;" horiz-adv-x="271" 
d="M77 616v90h79v-90h-79zM77 0v288l24 271h31l24 -282v-277h-79z" />
    <glyph glyph-name="cent" unicode="&#xa2;" horiz-adv-x="500" 
d="M360 4q-18 -8 -42 -12q-8 -2 -17 -3l-6 -1h-4v-103h-60v103q-1 0 -6 1l-5 1l-5 1q-16 3 -30 8q-44 14 -75 40q-43 38 -65 99q-17 48 -17 99q0 65 25 119q33 69 100 102q22 11 48 17q9 2 19 4l7 1l5 1v96h59v-95q12 -2 20 -3q13 -3 24 -6q27 -8 50 -23q61 -39 89 -126
l-90 -8q-5 49 -38 76q-13 10 -29 16l-14 5q-5 2 -12 4v-364q42 7 68 33q34 33 37 94l88 -8q-27 -128 -124 -168zM231 419l-6 -2l-7 -2q-11 -3 -20 -8q-85 -44 -85 -170q0 -50 13 -87q18 -53 61 -79q11 -7 27 -12q6 -2 11 -4q5 -1 6 -1v365z" />
    <glyph glyph-name="sterling" unicode="&#xa3;" horiz-adv-x="667" 
d="M625 74q-27 -50 -71 -72q-28 -14 -69 -14q-21 0 -42 3q-29 5 -62 16q-16 6 -41 18l-21 9l-20 9l-18 -14q-10 -8 -18 -13q-47 -31 -105 -31q-18 0 -36 5q-42 11 -62 40q-7 12 -11 25q-3 11 -3 22v7q1 6 2 11q3 14 11 26q12 18 33 29q26 14 63 14q7 0 17 -1l23 -2
q31 -5 60 -15l1 4l1 5q1 7 0 13q-1 17 -8 41l-6 16l-2 5l-1 2v1q-7 16 -15 30q-3 5 -7 10l-3 4l-2 4h-177v65l131 1q-61 99 -61 167q0 11 1 23q2 15 7 29q11 39 38 70q46 53 124 75q27 8 56 11l21 2h26q7 0 14 -1q18 -1 36 -5q50 -10 89 -36q15 -10 29 -23q17 -17 31 -37
q35 -53 37 -123l-105 -10v3l1 4v11q1 14 -2 28q-3 18 -11 35q-9 22 -25 39q-40 43 -112 43h-10q-6 0 -13 -1q-18 -2 -35 -8q-13 -4 -26 -11q-16 -9 -29 -22q-34 -33 -34 -87q0 -47 25 -93q8 -16 25 -41l13 -21l14 -22h209v-65h-173q21 -63 21 -93q0 -13 -2 -30
q-3 -23 -9 -46q7 -3 13 -8q2 -1 5 -3q4 -2 9 -4q13 -6 27 -11q41 -15 70 -15q46 0 73 31q25 30 26 76l93 -6q-4 -53 -28 -98zM209 83l-18 5q-1 0 -4 1l-8 2q-13 3 -22 3q-20 0 -28 -12l-1 -2l-1 -2q-2 -5 -2 -8q0 -9 8 -16q9 -8 24 -8q14 0 30 6q21 8 40 25z" />
    <glyph glyph-name="yen" unicode="&#xa5;" horiz-adv-x="625" 
d="M440 430h112v-72h-159l-38 -52h197v-72h-195v-234h-94v234h-194v72h194l-32 51h-162v71h113l-168 249h112l185 -287l189 287h111z" />
    <glyph glyph-name="florin" unicode="&#x192;" horiz-adv-x="437" 
d="M423 644q-10 3 -22 4q-4 1 -9 1h-5q-28 0 -40 -27q-5 -10 -8 -24l-3 -12l-2 -11l-25 -104h85l-15 -62h-84l-130 -541q-24 -97 -109 -97q-20 0 -36 4l-13 4l-11 4l15 59q18 -7 31 -7q28 0 41 21q5 8 8 21l3 12l3 11l120 509h-72l15 62h72l34 132l3 13l4 12q4 13 9 24
q27 62 99 62q16 0 34 -4q7 -1 13 -3q5 -2 9 -3z" />
    <glyph glyph-name="section" unicode="&#xa7;" horiz-adv-x="625" 
d="M563 206q-25 -42 -68 -66q50 -45 50 -100q0 -32 -18 -65q-53 -97 -187 -97q-59 0 -134 26q-56 19 -127 55l40 74q107 -76 224 -76q40 0 68 15q35 19 35 56v3q0 34 -31 54q-10 7 -29 14l-16 7l-16 6q-11 5 -33 14l-18 8l-19 8q-47 21 -80 38q-97 48 -132 91t-35 100
q0 46 27 89q26 40 68 64q-42 42 -42 89q0 49 34 89q31 37 80 54q42 15 87 15h6q82 0 189 -48l27 -13l27 -12l-40 -71q-125 71 -205 71q-40 0 -72 -15q-42 -19 -42 -55q0 -31 29 -50q10 -8 27 -15l14 -6l14 -5l43 -16l44 -17q49 -19 85 -36q71 -34 106 -70q46 -49 46 -116
q0 -48 -26 -91zM485 339q-25 37 -96 71q-24 11 -60 25l-15 6l-14 5q-16 6 -25 10l-64 26q-32 -11 -56 -39q-27 -31 -27 -62q0 -42 38 -73q30 -25 121 -68l72 -32l16 -7l15 -7l25 -11q35 13 60 40q27 30 27 65q0 26 -17 51z" />
    <glyph glyph-name="currency" unicode="&#xa4;" horiz-adv-x="663" 
d="M543 494q51 -76 51 -155q0 -82 -52 -156l75 -76l-56 -55l-75 76q-78 -52 -155 -52q-80 0 -155 52l-76 -74l-55 55l76 74q-52 73 -52 157q0 81 52 155l-74 74l55 55l74 -74q72 52 156 52q90 0 155 -52l75 75l56 -56zM458 467q-50 51 -126 51q-75 0 -126 -51t-51 -127
q0 -77 51 -128q52 -51 129 -51q73 0 123 51t50 126q0 77 -50 129z" />
    <glyph glyph-name="quotesingle" unicode="'" horiz-adv-x="177" 
d="M105 449h-32l-29 294h89z" />
    <glyph glyph-name="quotedblleft" unicode="&#x201c;" horiz-adv-x="375" 
d="M212 440v57q0 113 42 209h46q-30 -70 -32 -157h43v-109h-99zM63 440v57q0 113 42 209h47q-33 -91 -33 -157h43v-109h-99z" />
    <glyph glyph-name="guillemotleft" unicode="&#xab;" horiz-adv-x="396" 
d="M200 254v83l134 116v-89l-80 -71l80 -66v-86zM42 250v85l135 117v-91l-78 -68l78 -67v-89z" />
    <glyph glyph-name="guilsinglleft" unicode="&#x2039;" horiz-adv-x="250" 
d="M48 254v83l134 116v-89l-80 -71l80 -66v-86z" />
    <glyph glyph-name="guilsinglright" unicode="&#x203a;" horiz-adv-x="250" 
d="M68 134v90l80 70l-80 67v85l134 -113v-83z" />
    <glyph glyph-name="endash" unicode="&#x2013;" horiz-adv-x="600" 
d="M45 262v76h510v-76h-510z" />
    <glyph glyph-name="dagger" unicode="&#x2020;" horiz-adv-x="458" 
d="M271 421v-421h-80v421h-171v79h171v206h80v-206h170v-79h-170z" />
    <glyph glyph-name="daggerdbl" unicode="&#x2021;" horiz-adv-x="458" 
d="M271 181v-181h-80v181h-172v79h172v161h-171v79h171v206h80v-206h170v-79h-170v-161h170v-79h-170z" />
    <glyph glyph-name="periodcentered" unicode="&#xb7;" horiz-adv-x="200" 
d="M49 228v124h102v-124h-102z" />
    <glyph glyph-name="paragraph" unicode="&#xb6;" horiz-adv-x="642" 
d="M492 652v-819h-57v819h-146v-819h-57v490q-28 4 -46 11q-51 19 -80 66q-30 47 -30 109q0 88 55 141q57 56 169 56h225v-54h-33z" />
    <glyph glyph-name="bullet" unicode="&#x2022;" horiz-adv-x="333" 
d="M53 241v227h228v-227h-228z" />
    <glyph glyph-name="quotesinglbase" unicode="&#x201a;" horiz-adv-x="229" 
d="M162 49q0 -113 -41 -205h-47q33 95 33 156h-44v109h99v-60z" />
    <glyph glyph-name="quotedblbase" unicode="&#x201e;" horiz-adv-x="375" 
d="M311 42q0 -84 -30 -169l-6 -14l-6 -15h-46q25 76 32 156h-43v109h99v-67zM162 49q0 -113 -41 -205h-47q33 95 33 156h-44v109h99v-60z" />
    <glyph glyph-name="quotedblright" unicode="&#x201d;" horiz-adv-x="375" 
d="M311 639q0 -87 -30 -170l-6 -14l-6 -15h-46q24 70 32 156h-43v110h99v-67zM162 645q0 -113 -41 -205h-47q33 95 33 156h-44v110h99v-61z" />
    <glyph glyph-name="guillemotright" unicode="&#xbb;" horiz-adv-x="396" 
d="M218 136v90l79 69l-79 66v89l135 -113v-84zM62 134v90l80 70l-80 67v85l134 -113v-83z" />
    <glyph glyph-name="ellipsis" unicode="&#x2026;" horiz-adv-x="1000" 
d="M786 0v93h95v-93h-95zM452 0v93h95v-93h-95zM119 0v93h94v-93h-94z" />
    <glyph glyph-name="perthousand" unicode="&#x2030;" horiz-adv-x="1250" 
d="M1177 48q-44 -56 -115 -57q-22 0 -41 5q-15 4 -27 10q-97 50 -97 207q0 58 14 105q18 65 61 100q24 20 55 28q11 2 22 3l8 1h5q40 0 72 -19q93 -56 92 -211q-1 -111 -49 -172zM831 106q-38 -113 -143 -115q-75 -1 -119 54q-46 58 -47 168q0 27 2 52q4 33 12 61
q22 72 78 105q6 3 11 6q8 4 16 6q20 7 41 7q73 1 119 -61q48 -66 47 -176q-2 -62 -17 -107zM302 -29l-55 26l318 685l54 -26zM336 341q-24 -69 -75 -98q-18 -11 -40 -16q-16 -3 -32 -3q-19 0 -39 6q-8 2 -15 5l-10 4q-55 28 -81 100q-10 28 -15 60q-4 26 -4 50q0 25 3 53
q5 33 15 62q27 75 83 104q17 8 37 12q7 2 14 2q6 1 10 1q72 1 118 -60q48 -64 47 -173q0 -61 -16 -109zM1159 219q0 170 -96 173q-24 1 -42 -10q-13 -9 -25 -25q-20 -26 -28 -68q-3 -16 -4 -36q-1 -14 -1 -32q0 -25 3 -49q6 -59 33 -92q25 -31 63 -31q58 -1 82 68
q9 25 13 57l2 25v20zM774 301q-11 48 -38 71q-23 19 -53 19q-100 -1 -97 -178q1 -75 26 -118q26 -47 75 -47q94 0 96 165q0 49 -9 88zM280 532q-20 92 -91 94q-13 0 -27 -5q-5 -2 -10 -5l-8 -4q-55 -36 -53 -161q2 -170 99 -169q14 0 28 5q11 4 19 10q50 38 50 153
q0 49 -7 82z" />
    <glyph glyph-name="questiondown" unicode="&#xbf;" horiz-adv-x="562" 
d="M222 609v97h89v-97h-89zM439 67q-11 -13 -24 -23q-17 -14 -36 -24q-49 -26 -111 -26q-95 0 -162 60q-69 62 -69 156q0 54 27 101t75 71q37 19 88 22v152h78v-236q-11 1 -32 0h-4q-3 0 -7 -1l-25 -2q-38 -6 -58 -16q-13 -6 -24 -16q-4 -4 -7 -8q-3 -3 -5 -6q-4 -5 -8 -11
q-4 -7 -7 -15q-9 -21 -9 -45q0 -35 16 -63q15 -26 44 -44q39 -24 91 -24h12q9 1 18 3q25 4 44 14q25 14 41 43q20 35 20 86v9l-1 9l88 -1q0 -103 -53 -165z" />
    <glyph glyph-name="grave" unicode="`" horiz-adv-x="271" 
d="M153 521l-83 144h89l42 -144h-48z" />
    <glyph glyph-name="acute" unicode="&#xb4;" horiz-adv-x="271" 
d="M113 522h-41l41 144h86z" />
    <glyph glyph-name="circumflex" unicode="&#x2c6;" horiz-adv-x="271" 
d="M193 523l-61 95l-59 -95h-70l94 151h67l104 -151h-75z" />
    <glyph glyph-name="tilde" unicode="&#x2dc;" horiz-adv-x="271" 
d="M281 635v-2l-1 -3q0 -6 -2 -12q-4 -19 -11 -35q-23 -49 -68 -48q-22 0 -86 25q-29 10 -41 10q-17 0 -26 -13q-4 -5 -5 -11q-2 -4 -2 -7h-49q0 2 1 7q0 6 2 13q4 18 12 34q23 46 71 45q20 0 45 -9l22 -8l22 -8l4 -2q3 -1 8 -3q14 -4 24 -4q17 0 26 13q3 4 5 10q1 5 1 8h48
z" />
    <glyph glyph-name="macron" unicode="&#xaf;" horiz-adv-x="271" 
d="M-7 541v68h285v-68h-285z" />
    <glyph glyph-name="dieresis" unicode="&#xa8;" horiz-adv-x="271" 
d="M189 541v103h89v-103h-89zM-7 541v103h87v-103h-87z" />
    <glyph glyph-name="cedilla" unicode="&#xb8;" horiz-adv-x="271" 
d="M203 -124l-2 -10q-4 -13 -11 -24q-17 -24 -51 -35q-25 -8 -63 -10l1 23q3 -1 9 -1q7 0 14 2q28 7 28 35q0 5 -2 12q-2 5 -4 7q-7 11 -24 18l-15 5l-15 6l73 112l29 -7l-29 -52l16 -8l15 -9q17 -13 25 -31q3 -8 5 -15q1 -6 1 -11v-7z" />
    <glyph glyph-name="emdash" unicode="&#x2014;" horiz-adv-x="895" 
d="M45 262v76h805v-76h-805z" />
    <glyph glyph-name="AE" unicode="&#xc6;" horiz-adv-x="1042" 
d="M514 0v232h-252l-154 -232h-110l483 706h521v-83h-395v-231h319v-79h-319v-231h407v-82h-500zM514 615l-197 -302h197v302z" />
    <glyph glyph-name="ordfeminine" unicode="&#xaa;" horiz-adv-x="313" 
d="M298 429q-5 -2 -11 -3q-8 -2 -16 -3q-24 -1 -39 11q-10 9 -18 26q-39 -42 -96 -41q-36 0 -60 20q-28 22 -28 59q0 54 51 76q38 17 130 22v11q0 70 -56 70h-7l-8 -1q-11 -2 -19 -6q-23 -12 -23 -46v-6l-55 4l1 5l1 4l1 6l3 13q2 7 4 12q14 32 45 46q24 10 56 10
q80 0 101 -59q3 -8 5 -20q1 -10 1 -20v-121q1 -7 3 -13q5 -15 19 -15q8 0 15 5v-46zM211 560l-21 -3q-76 -11 -91 -28q-7 -8 -10 -16q-1 -3 -1 -6v-4q-1 -21 15 -32q14 -9 34 -9q29 1 48 16q26 21 26 65v17z" />
    <glyph glyph-name="Oslash" unicode="&#xd8;" horiz-adv-x="812" 
d="M733 201q-43 -106 -131 -163q-87 -56 -203 -56q-129 0 -238 89l-65 -62l-49 50l69 66l-4 8l-5 8q-6 10 -11 20q-12 25 -21 50q-25 68 -25 142q0 10 1 20q0 13 2 27q4 34 13 67q25 93 86 156q39 42 89 66q71 35 163 35q39 0 82 -8q80 -17 160 -82l69 65l48 -51l-70 -68
q12 -17 21 -34q13 -24 23 -49q26 -68 26 -142q0 -78 -30 -154zM555 595q-17 15 -37 26q-51 28 -117 28h-15q-10 -1 -19 -2q-24 -3 -46 -10q-61 -21 -101 -70q-66 -80 -66 -217q0 -15 1 -28q1 -18 4 -36q7 -47 27 -93l394 378q-12 14 -25 24zM659 353q0 8 -1 16q-1 21 -5 41
q-9 55 -32 102l-397 -381q76 -75 182 -75q59 0 107 22q18 9 35 21q13 9 25 20q53 49 74 128q7 27 10 57l2 21v28z" />
    <glyph glyph-name="OE" unicode="&#x152;" horiz-adv-x="1146" 
d="M618 0v82q-16 -17 -33 -31q-23 -19 -48 -33q-67 -36 -151 -36h-18l-23 2q-29 3 -56 11q-74 22 -128 75q-19 19 -36 41q-21 28 -36 61q-39 82 -39 184q0 89 30 161q20 50 56 93q95 114 260 114h18l23 -2q29 -3 56 -11q74 -21 125 -79v74h490v-84h-400v-219h323v-82h-323
v-239h411v-82h-501zM571 557q-37 56 -97 79q-23 9 -47 12q-18 3 -36 3q-16 0 -32 -2q-23 -3 -43 -10q-56 -19 -95 -64q-31 -36 -48 -82q-23 -62 -23 -141q0 -116 54 -194q40 -57 99 -82q23 -9 47 -13q19 -3 38 -3q17 0 35 3q24 4 47 12q60 23 97 77q49 72 51 204
q0 130 -47 201z" />
    <glyph glyph-name="ordmasculine" unicode="&#xba;" horiz-adv-x="333" 
d="M271 460q-39 -43 -103 -43q-64 -1 -103 41q-37 40 -39 103q0 28 7 52q17 63 70 88q18 9 39 13l16 2h10q65 0 104 -47q35 -42 35 -104q0 -64 -36 -105zM232 637q-23 33 -66 34q-83 0 -83 -106q0 -18 5 -40q3 -10 7 -19q6 -12 14 -20q21 -24 56 -25q85 -2 85 106
q0 42 -18 70z" />
    <glyph glyph-name="ae" unicode="&#xe6;" horiz-adv-x="812" 
d="M437 214v-19q1 -15 4 -29q8 -40 30 -69q6 -8 13 -15q10 -8 21 -15q29 -17 67 -17q80 0 109 78l3 9q2 6 3 13l84 -13q-3 -11 -6 -19q-4 -12 -9 -22q-14 -28 -40 -52q-39 -37 -87 -51q-18 -5 -38 -7q-7 -1 -16 -1h-30l-20 2q-24 4 -46 13q-59 23 -94 84l-11 -13
q-6 -8 -13 -16q-19 -18 -39 -32q-56 -38 -128 -38h-11l-14 2q-19 2 -37 7q-99 29 -99 124q0 91 91 131q47 21 233 23q0 40 -5 59q-10 42 -38 67q-30 27 -72 27h-8l-12 -2q-15 -2 -28 -8q-8 -4 -15 -10q-10 -7 -17 -16q-19 -25 -21 -59l-84 6q5 41 20 68q18 32 53 54
q46 28 110 28h9q7 0 13 -1q16 -1 31 -5q44 -10 74 -38q8 -7 14 -14q9 -11 18 -26l1 2l3 3l8 10q11 14 20 22q8 8 19 15q13 9 28 15q38 17 83 17q16 0 31 -2q21 -3 40 -10q51 -18 88 -65q26 -31 40 -72q20 -54 19 -123h-342zM694 272v7l-1 10q-2 13 -5 25q-9 34 -30 59
q-2 3 -5 5q-3 4 -7 7q-10 9 -21 16q-30 19 -63 19q-10 0 -20 -2q-13 -3 -26 -8q-32 -14 -53 -46q-16 -24 -23 -55q-2 -11 -3 -22l-1 -9v-6h258zM295 214q-12 0 -24 -1q-33 -2 -61 -8h-2l-3 -1l-7 -2q-11 -3 -20 -6q-27 -11 -43 -29q-2 -2 -5 -6q-4 -5 -6 -10q-8 -15 -8 -30
q0 -27 21 -47q26 -26 73 -26h8l11 1q13 2 25 5q34 11 58 36q19 20 30 45q14 33 15 79h-62z" />
    <glyph glyph-name="oslash" unicode="&#xf8;" horiz-adv-x="542" 
d="M460 386q13 -18 18 -31q4 -9 8 -19q5 -13 8 -27q9 -35 9 -75v-15l-2 -23q-4 -30 -13 -57q-8 -23 -21 -44q-17 -29 -40 -51q-62 -59 -157 -59q-96 0 -157 64l-40 -40l-35 36l43 42q-8 12 -13 23q-8 16 -13 32q-14 41 -14 91v18q1 13 3 26q5 34 17 65q27 66 84 105t128 39
q85 0 154 -61l44 43l35 -36zM370 375l-3 3l-8 8q-10 10 -21 17q-31 19 -69 19q-39 0 -71 -21q-30 -19 -49 -54q-24 -44 -24 -105v-17l2 -22q4 -27 15 -55l231 224zM421 247l-2 24q-5 32 -18 57l-232 -225q10 -14 14 -18q7 -6 14 -11q9 -7 19 -12q28 -14 60 -13q39 0 70 20
q30 19 50 54q25 45 25 107v17z" />
    <glyph glyph-name="oe" unicode="&#x153;" horiz-adv-x="875" 
d="M482 214v-9l1 -10q1 -14 4 -27q8 -35 29 -63q7 -10 15 -17q10 -11 23 -19q32 -21 74 -20q50 0 84 35q17 18 26 37q4 8 8 19l2 7q1 4 2 5l81 -11q-12 -35 -33 -65q-8 -11 -17 -21q-6 -7 -14 -14q-10 -10 -21 -18q-14 -10 -30 -18q-43 -20 -94 -20h-13q-9 1 -17 2
q-22 3 -42 9q-56 18 -92 61q-3 3 -9 11l-4 6q-3 3 -4 5q-10 -15 -22 -28q-16 -18 -35 -31q-50 -35 -117 -35q-9 0 -19 1q-14 1 -27 4q-36 7 -66 23q-47 26 -76 72q-39 61 -38 150v11q0 7 1 14q1 19 4 37q9 51 35 90q11 16 24 30q17 19 38 33q55 36 127 36q65 0 114 -32
q18 -12 35 -29q6 -6 12 -14q5 -5 10 -12q11 15 23 27q16 17 34 29q49 31 115 31h15l18 -2q22 -3 43 -10q56 -19 93 -69q34 -45 47 -114q5 -23 7 -48q1 -9 1 -17v-12h-355zM749 279l-1 5q-1 6 -2 13q-4 17 -10 34q-20 51 -59 74q-28 17 -62 17q-16 0 -32 -4l-12 -4l-8 -4
q-72 -34 -81 -136l267 1v4zM402 233q0 110 -58 158l-11 9q-8 5 -17 9q-24 10 -52 10q-18 0 -35 -5q-7 -2 -13 -4l-5 -2l-4 -2q-34 -18 -55 -57q-26 -47 -26 -116v-9q0 -8 1 -16q2 -22 7 -43q16 -62 58 -91l10 -6q8 -5 16 -8q22 -8 46 -8h11l14 2q19 4 37 14q48 26 67 93
q6 22 8 46q1 8 1 17v9z" />
    <glyph glyph-name="germandbls" unicode="&#xdf;" horiz-adv-x="542" 
d="M502 232q0 -157 -97 -213q-9 -5 -19 -10q-13 -5 -27 -9q-35 -11 -74 -11q-42 0 -94 15v84l3 -1l3 -1l9 -3q12 -4 23 -7q32 -9 61 -9h8q5 0 10 1q14 1 27 5q35 11 56 40q18 25 26 67q2 14 3 28q1 5 1 10v14l-1 10q0 14 -3 26q-8 34 -30 60q-27 31 -68 43t-120 12l1 79
q100 -10 142 32q27 27 27 66q0 44 -33 69q-31 22 -76 21q-25 0 -45 -6q-16 -5 -28 -13q-32 -21 -41 -63q-3 -16 -4 -38v-530h-79v538q1 23 4 41q6 44 29 76q21 30 56 47q44 22 106 22h9q6 0 12 -1q16 -1 31 -3q45 -9 76 -31q11 -8 20 -17q12 -11 21 -25q22 -36 22 -84v-9
l-1 -11q-1 -14 -5 -27q-10 -36 -37 -61q-13 -13 -26 -21q-5 -2 -11 -5l-10 -4q63 -8 101 -55q14 -17 24 -38q7 -16 11 -31q5 -19 6 -42q1 -8 1 -16v-11z" />
    <glyph glyph-name="Ydieresis" unicode="&#x178;" horiz-adv-x="625" 
d="M367 781v102h87v-102h-87zM171 781v102h87v-102h-87zM357 323v-323h-95v323l-248 383h111l186 -299l188 299h112z" />
    <glyph glyph-name="trademark" unicode="&#x2122;" horiz-adv-x="694" 
d="M567 374l2 261l-78 -261h-54l-75 257l1 -257h-56v332h78l82 -265l79 265h75v-332h-54zM178 657v-283h-59v283h-96v49h250v-49h-95z" />
    <glyph glyph-name="scaron" unicode="&#x161;" horiz-adv-x="479" 
d="M270 522h-67l-102 151h74l61 -96l59 96h71zM397 31q-55 -46 -149 -46q-136 0 -189 86q-9 15 -16 32q-9 23 -12 49l91 14v-9q0 -72 58 -98q19 -9 44 -12q8 -1 17 -1h11q111 0 111 79q0 35 -23 51q-20 13 -75 24l-45 9l-26 5q-16 4 -29 8q-32 9 -55 23q-60 35 -59 103
q1 58 45 96q49 42 138 42q125 0 179 -87q11 -19 17 -42l4 -16v-6l1 -4l-86 -11q0 9 -1 22q-2 14 -5 21q-29 62 -119 62q-43 0 -70 -22q-25 -21 -24 -49q1 -29 35 -46q22 -12 79 -26l45 -11q34 -8 53 -15q31 -11 52 -24q53 -35 53 -98q0 -61 -50 -103z" />
    <glyph glyph-name="Scaron" unicode="&#x160;" horiz-adv-x="667" 
d="M367 771h-65l-106 124h76l62 -77l59 77h75zM548 48q-76 -66 -210 -66q-222 0 -283 158q-9 24 -14 52q-2 11 -3 21q-1 8 -1 13l101 13q0 -68 39 -116q52 -66 161 -67q70 -1 118 30q60 37 61 110q1 57 -43 86q-17 11 -43 20q-17 5 -48 12l-60 13l-19 4l-19 5q-23 5 -42 10
q-47 14 -80 32q-89 49 -92 143q-2 69 44 122q45 52 120 71q35 10 97 10q177 -1 245 -123q14 -26 22 -57q2 -10 4 -23l2 -8l1 -6l-95 -7v4l-1 5q0 8 -1 14q-3 19 -10 35q-39 93 -169 93q-77 0 -120 -31q-43 -30 -42 -80q1 -54 51 -81q18 -10 45 -18l23 -6l11 -3l10 -2l77 -19
q10 -2 27 -6l13 -4l14 -3l10 -3l12 -3l27 -10q35 -13 60 -33q73 -55 70 -152q-2 -91 -70 -149z" />
    <glyph glyph-name="ydieresis" unicode="&#xff;" horiz-adv-x="437" 
d="M274 541v103h89v-103h-89zM78 541v103h87v-103h-87zM227 -86l-3 -9l-4 -9l-7 -20q-9 -23 -16 -36q-20 -40 -46 -56q-26 -17 -71 -17q-16 0 -29 2q-21 2 -42 8v72l9 -3l11 -2q15 -3 31 -3h7q6 0 11 1q15 2 26 9q18 12 32 41q5 10 10 24l4 12l4 11l20 58l-160 474h85
l118 -374l125 374h83z" />
    <glyph glyph-name="thorn" unicode="&#xfe;" horiz-adv-x="562" 
d="M468 59q-61 -75 -169 -74q-100 1 -156 70v-279h-78v930h78v-303q41 50 99 71q19 7 40 10q7 1 14 1l5 1h4q38 1 75 -12q28 -11 49 -27q95 -70 94 -214q-1 -106 -55 -174zM407 357q-41 57 -118 54q-43 -2 -76 -24q-70 -46 -70 -162q1 -73 37 -119q41 -52 116 -51q25 1 46 7
q17 5 30 13q69 44 69 158q1 75 -34 124z" />
    <glyph glyph-name="yacute" unicode="&#xfd;" horiz-adv-x="437" 
d="M237 522h-41l41 144h86zM227 -86q-31 -87 -60 -117q-30 -30 -85 -30q-37 0 -66 8l-7 2v72q3 -1 7 -2q6 -2 12 -3q16 -3 30 -3q38 -1 59 21q17 17 31 60l26 75l-160 474h85l118 -374l125 374h83z" />
    <glyph glyph-name="udieresis" unicode="&#xfc;" 
d="M311 541v103h89v-103h-89zM115 541v103h87v-103h-87zM375 0l-1 72q-8 -12 -20 -24q-60 -60 -140 -60h-9q-6 1 -13 1q-18 3 -34 8q-47 15 -70 53q-18 29 -22 71q-2 16 -2 37v313h79v-268q0 -72 11 -95q9 -18 28 -30q23 -15 58 -15h9q5 1 11 1q16 2 30 7q40 14 62 46
q16 23 21 57q1 13 2 31v266h78v-471h-78z" />
    <glyph glyph-name="ucircumflex" unicode="&#xfb;" 
d="M320 523l-61 95l-59 -95h-70l94 151h68l104 -151h-76zM375 0l-1 72q-8 -12 -20 -24q-60 -60 -140 -60h-9q-6 1 -13 1q-18 3 -34 8q-47 15 -70 53q-18 29 -22 71q-2 16 -2 37v313h79v-268q0 -72 11 -95q9 -18 28 -30q23 -15 58 -15h9q5 1 11 1q16 2 30 7q40 14 62 46
q16 23 21 57q1 13 2 31v266h78v-471h-78z" />
    <glyph glyph-name="uacute" unicode="&#xfa;" 
d="M273 522h-42l42 144h86zM375 0l-1 72q-8 -12 -20 -24q-60 -60 -140 -60h-9q-6 1 -13 1q-18 3 -34 8q-47 15 -70 53q-18 29 -22 71q-2 16 -2 37v313h79v-268q0 -72 11 -95q9 -18 28 -30q23 -15 58 -15h9q5 1 11 1q16 2 30 7q40 14 62 46q16 23 21 57q1 13 2 31v266h78
v-471h-78z" />
    <glyph glyph-name="ugrave" unicode="&#xf9;" 
d="M246 521l-82 144h89l41 -144h-48zM375 0l-1 72q-8 -12 -20 -24q-60 -60 -140 -60h-9q-6 1 -13 1q-18 3 -34 8q-47 15 -70 53q-18 29 -22 71q-2 16 -2 37v313h79v-268q0 -72 11 -95q9 -18 28 -30q23 -15 58 -15h9q5 1 11 1q16 2 30 7q40 14 62 46q16 23 21 57q1 13 2 31
v266h78v-471h-78z" />
    <glyph glyph-name="divide" unicode="&#xf7;" horiz-adv-x="724" 
d="M318 409v110h89v-110h-89zM79 260v81h566v-81h-566zM318 82v110h89v-110h-89z" />
    <glyph glyph-name="odieresis" unicode="&#xf6;" horiz-adv-x="542" 
d="M330 541v103h88v-103h-88zM133 541v103h87v-103h-87zM502 219l-2 -21q-4 -29 -12 -55q-24 -76 -84 -118q-23 -17 -49 -26q-37 -14 -83 -14h-12q-8 1 -16 1q-20 2 -40 7q-54 14 -90 49q-30 29 -49 69q-25 54 -25 122v13q1 8 1 16q2 21 7 41q13 57 45 100q64 83 182 83
q52 0 94 -18q53 -22 88 -71q46 -66 45 -162v-16zM416 253q0 14 -2 29q-5 42 -20 71q-7 13 -17 25q-4 5 -8 9q-3 3 -6 5q-22 19 -50 26q-10 2 -21 3l-9 1h-7q-95 0 -130 -86q-12 -28 -17 -65l-2 -25v-16q2 -73 28 -117q6 -11 14 -20q10 -12 22 -21q33 -24 79 -23q44 0 77 22
q12 8 23 19q8 8 14 18q19 29 27 78q3 16 4 33q1 5 1 11v23z" />
    <glyph glyph-name="otilde" unicode="&#xf5;" horiz-adv-x="542" 
d="M417 635v-2l-1 -3l-1 -6l-1 -6q-5 -19 -12 -35q-24 -49 -68 -48q-21 0 -87 25q-29 10 -41 10q-17 0 -25 -13q-3 -5 -6 -11l-1 -4l-1 -3h-48v3l1 4q1 6 2 13q5 19 13 34q24 46 71 45q19 0 45 -9l21 -8l21 -8l2 -1l3 -1q4 -1 9 -3q14 -4 24 -4q17 0 26 13q3 4 4 10l1 5l1 3
h48zM502 223q-1 -8 -1 -17q-2 -21 -7 -42q-13 -58 -47 -100q-12 -14 -25 -25q-16 -15 -35 -26q-50 -28 -115 -28h-13q-8 1 -16 1q-22 3 -42 8q-55 15 -92 53q-29 29 -46 67q-23 52 -23 119q0 101 54 171q64 82 181 82q52 0 94 -18q53 -22 88 -71q46 -66 45 -162v-12z
M416 254q0 15 -2 30q-6 42 -22 72q-12 22 -29 36q-22 19 -50 26q-10 2 -21 3l-8 1h-7q-96 0 -132 -86q-12 -28 -16 -65l-2 -25v-16q0 -15 2 -30q0 -5 1 -11l1 -4v-3q1 -8 3 -16q2 -10 5 -19q9 -25 22 -45q39 -54 111 -53q11 0 22 2q15 2 29 7q38 15 61 50q19 29 27 77
q3 16 4 33q1 6 1 11v25z" />
    <glyph glyph-name="ocircumflex" unicode="&#xf4;" horiz-adv-x="542" 
d="M332 523l-61 95l-59 -95h-70l94 151h67l104 -151h-75zM502 223q-1 -8 -1 -17q-2 -21 -7 -42q-13 -58 -47 -100q-12 -14 -25 -25q-16 -15 -35 -26q-50 -28 -115 -28h-13q-8 1 -16 1q-22 3 -42 8q-55 15 -92 53q-29 29 -46 67q-23 52 -23 119q0 101 54 171q64 82 181 82
q52 0 94 -18q53 -22 88 -71q46 -66 45 -162v-12zM416 254q0 15 -2 30q-6 42 -22 72q-12 22 -29 36q-22 19 -50 26q-10 2 -21 3l-8 1h-7q-96 0 -132 -86q-12 -28 -16 -65l-2 -25v-16q0 -15 2 -30q0 -5 1 -11l1 -4v-3q1 -8 3 -16q2 -10 5 -19q9 -25 22 -45q39 -54 111 -53
q11 0 22 2q15 2 29 7q38 15 61 50q19 29 27 77q3 16 4 33q1 6 1 11v25z" />
    <glyph glyph-name="oacute" unicode="&#xf3;" horiz-adv-x="542" 
d="M284 522h-41l41 144h86zM502 223q-1 -8 -1 -17q-2 -21 -7 -42q-13 -58 -47 -100q-12 -14 -25 -25q-16 -15 -35 -26q-50 -28 -115 -28h-13q-8 1 -16 1q-22 3 -42 8q-55 15 -92 53q-29 29 -46 67q-23 52 -23 119q0 101 54 171q64 82 181 82q52 0 94 -18q53 -22 88 -71
q46 -66 45 -162v-12zM416 254q0 15 -2 30q-6 42 -22 72q-12 22 -29 36q-22 19 -50 26q-10 2 -21 3l-8 1h-7q-96 0 -132 -86q-12 -28 -16 -65l-2 -25v-16q0 -15 2 -30q0 -5 1 -11l1 -4v-3q1 -8 3 -16q2 -10 5 -19q9 -25 22 -45q39 -54 111 -53q11 0 22 2q15 2 29 7
q38 15 61 50q19 29 27 77q3 16 4 33q1 6 1 11v25z" />
    <glyph glyph-name="ograve" unicode="&#xf2;" horiz-adv-x="542" 
d="M258 521l-83 144h89l41 -144h-47zM502 223q-1 -8 -1 -17q-2 -21 -7 -42q-13 -58 -47 -100q-12 -14 -25 -25q-16 -15 -35 -26q-50 -28 -115 -28h-13q-8 1 -16 1q-22 3 -42 8q-55 15 -92 53q-29 29 -46 67q-23 52 -23 119q0 101 54 171q64 82 181 82q52 0 94 -18
q53 -22 88 -71q46 -66 45 -162v-12zM416 254q0 15 -2 30q-6 42 -22 72q-12 22 -29 36q-22 19 -50 26q-10 2 -21 3l-8 1h-7q-96 0 -132 -86q-12 -28 -16 -65l-2 -25v-16q0 -15 2 -30q0 -5 1 -11l1 -4v-3q1 -8 3 -16q2 -10 5 -19q9 -25 22 -45q39 -54 111 -53q11 0 22 2
q15 2 29 7q38 15 61 50q19 29 27 77q3 16 4 33q1 6 1 11v25z" />
    <glyph glyph-name="ntilde" unicode="&#xf1;" 
d="M406 635v-2l-1 -3q0 -6 -2 -12q-4 -19 -11 -35q-24 -49 -69 -48q-20 0 -86 25q-29 10 -41 10q-17 0 -25 -13q-3 -5 -6 -11l-1 -4l-1 -3h-49v3l1 4q2 7 3 13q5 19 13 34q24 46 71 45q19 0 45 -9l21 -8l21 -8l2 -1l3 -1q4 -1 9 -3q14 -4 24 -4q17 0 25 13q3 4 5 10l1 5l1 3
h47zM376 0v316q0 12 -3 23q-7 32 -33 51q-12 9 -26 14q-20 7 -45 7q-52 0 -88 -35l-3 -3l-3 -3l-7 -9q-10 -14 -15 -28q-9 -22 -9 -65v-268h-80v471h80v-69l14 21q3 4 6 7l5 5q8 8 17 16q13 9 27 16q36 19 79 19h10l14 -2q18 -3 35 -8q48 -17 75 -55q29 -40 29 -140v-281
h-79z" />
    <glyph glyph-name="eth" unicode="&#xf0;" horiz-adv-x="542" 
d="M490 154q-18 -68 -63 -111q-59 -58 -155 -58q-138 -1 -197 104q-20 37 -29 84q-3 17 -5 35q-1 14 -1 27q0 39 7 73q6 25 16 48q31 69 92 103q53 29 117 27q73 -1 129 -57l-2 6l-1 5l-2 7q-5 19 -11 36q-20 56 -44 89l-178 -58l-18 45l165 55q-16 21 -41 46l-9 9l-8 8
q-11 10 -13 12l62 29q21 -19 75 -83l85 29l19 -47l-74 -24q96 -155 96 -336q0 -63 -12 -103zM416 243q0 94 -44 141q-38 40 -101 38q-78 -3 -115 -65q-28 -47 -29 -122v-11q0 -12 2 -23q3 -35 14 -63q35 -89 129 -89q64 0 102 43q42 48 42 144v7z" />
    <glyph glyph-name="idieresis" unicode="&#xef;" horiz-adv-x="208" 
d="M160 541v103h88v-103h-88zM-37 541v103h87v-103h-87zM67 0v471h77v-471h-77z" />
    <glyph glyph-name="icircumflex" unicode="&#xee;" horiz-adv-x="208" 
d="M165 523l-61 95l-59 -95h-70l94 151h68l103 -151h-75zM67 0v471h77v-471h-77z" />
    <glyph glyph-name="iacute" unicode="&#xed;" horiz-adv-x="208" 
d="M117 522h-41l41 144h86zM67 0v471h77v-471h-77z" />
    <glyph glyph-name="igrave" unicode="&#xec;" horiz-adv-x="208" 
d="M91 521l-82 144h88l42 -144h-48zM67 0v471h77v-471h-77z" />
    <glyph glyph-name="edieresis" unicode="&#xeb;" 
d="M326 541v103h89v-103h-89zM130 541v103h87v-103h-87zM481 139l-2 -6q-3 -8 -6 -15q-10 -22 -21 -40q-11 -16 -24 -30q-16 -17 -36 -30q-52 -33 -122 -33q-33 0 -61 7q-20 4 -38 12q-54 23 -88 72q-44 65 -44 164q0 59 18 104q12 33 35 61q67 81 175 81q38 0 74 -13
q13 -5 26 -11q17 -9 32 -21q40 -31 61 -80q23 -55 23 -140h-358q-1 -57 23 -100q18 -33 45 -52q36 -24 85 -24q29 0 50 10q15 6 29 19q5 4 12 11q8 10 14 20q7 13 13 31l2 6l2 6q2 6 2 7l81 -11zM396 279q-2 29 -7 46q-12 44 -47 71q-35 28 -81 28q-60 0 -96 -44
q-32 -39 -38 -101h269z" />
    <glyph glyph-name="ecircumflex" unicode="&#xea;" 
d="M321 523l-61 95l-59 -95h-70l94 151h68l104 -151h-76zM481 139l-2 -6q-3 -8 -6 -15q-10 -22 -21 -40q-11 -16 -24 -30q-16 -17 -36 -30q-52 -33 -122 -33q-33 0 -61 7q-20 4 -38 12q-54 23 -88 72q-44 65 -44 164q0 59 18 104q12 33 35 61q67 81 175 81q38 0 74 -13
q13 -5 26 -11q17 -9 32 -21q40 -31 61 -80q23 -55 23 -140h-358q-1 -57 23 -100q18 -33 45 -52q36 -24 85 -24q29 0 50 10q15 6 29 19q5 4 12 11q8 10 14 20q7 13 13 31l2 6l2 6q2 6 2 7l81 -11zM396 279q-2 29 -7 46q-12 44 -47 71q-35 28 -81 28q-60 0 -96 -44
q-32 -39 -38 -101h269z" />
    <glyph glyph-name="eacute" unicode="&#xe9;" 
d="M279 522h-42l42 144h86zM481 139l-2 -6q-3 -8 -6 -15q-10 -22 -21 -40q-11 -16 -24 -30q-16 -17 -36 -30q-52 -33 -122 -33q-33 0 -61 7q-20 4 -38 12q-54 23 -88 72q-44 65 -44 164q0 59 18 104q12 33 35 61q67 81 175 81q38 0 74 -13q13 -5 26 -11q17 -9 32 -21
q40 -31 61 -80q23 -55 23 -140h-358q-1 -57 23 -100q18 -33 45 -52q36 -24 85 -24q29 0 50 10q15 6 29 19q5 4 12 11q8 10 14 20q7 13 13 31l2 6l2 6q2 6 2 7l81 -11zM396 279q-2 29 -7 46q-12 44 -47 71q-35 28 -81 28q-60 0 -96 -44q-32 -39 -38 -101h269z" />
    <glyph glyph-name="egrave" unicode="&#xe8;" 
d="M247 521l-82 144h89l41 -144h-48zM481 139l-2 -6q-3 -8 -6 -15q-10 -22 -21 -40q-11 -16 -24 -30q-16 -17 -36 -30q-52 -33 -122 -33q-33 0 -61 7q-20 4 -38 12q-54 23 -88 72q-44 65 -44 164q0 59 18 104q12 33 35 61q67 81 175 81q38 0 74 -13q13 -5 26 -11
q17 -9 32 -21q40 -31 61 -80q23 -55 23 -140h-358q-1 -57 23 -100q18 -33 45 -52q36 -24 85 -24q29 0 50 10q15 6 29 19q5 4 12 11q8 10 14 20q7 13 13 31l2 6l2 6q2 6 2 7l81 -11zM396 279q-2 29 -7 46q-12 44 -47 71q-35 28 -81 28q-60 0 -96 -44q-32 -39 -38 -101h269z
" />
    <glyph glyph-name="ccedilla" unicode="&#xe7;" 
d="M434 46q-34 -34 -80 -49q-23 -6 -62 -10l-18 -30q2 -1 7 -4l9 -4q12 -7 21 -14q26 -20 26 -52q0 -38 -33 -61q-35 -25 -94 -25v23q2 -1 7 -1q22 0 35 13q11 11 10 25q-2 21 -24 33q-7 4 -19 8l-9 3l-8 3l53 82l-22 2l-23 4q-26 5 -45 14q-57 27 -91 85q-38 64 -36 151
q2 92 47 155q38 55 100 77q36 12 86 12q106 -2 167 -68q16 -17 27 -37q4 -7 8 -15l2 -6l2 -4q6 -15 7 -28l-88 -9l-1 3v4q-2 7 -3 13q-6 19 -14 32q-23 37 -62 50q-14 5 -28 6q-5 1 -10 1h-6q-65 2 -103 -42q-42 -49 -43 -146q-1 -98 44 -149q39 -44 104 -44q74 0 108 53
q12 19 18 44q3 9 5 19l1 8l1 7l86 -8q-13 -76 -59 -124z" />
    <glyph glyph-name="aring" unicode="&#xe5;" horiz-adv-x="500" 
d="M313 541q-28 -28 -67 -28t-67 28q-27 28 -27 67t28 67q27 28 66 28q40 -1 67 -28q28 -28 28 -67t-28 -67zM486 3q-27 -9 -51 -9h-7q-7 1 -13 2q-19 2 -30 10q-5 4 -10 10l-4 5l-1 2l-1 1q-8 12 -12 23l-2 9l-2 8l-4 -5l-6 -5q-6 -7 -12 -12q-16 -15 -33 -25
q-47 -30 -106 -30q-21 0 -40 4q-7 1 -14 3q-5 1 -11 3q-95 32 -95 125q0 10 2 20q2 14 7 26q12 33 42 56q33 24 91 39q45 10 100 14l72 5q0 26 -1 39q0 8 -1 14q-1 9 -3 17q-4 19 -13 34q-25 39 -87 39h-8q-5 0 -11 -1q-15 -2 -28 -6q-38 -14 -50 -50q-5 -15 -5 -42l-83 5
q0 8 2 19q2 13 6 27q15 44 49 71q48 38 124 38h13q8 -1 17 -2q22 -2 44 -8q5 -1 9 -3l12 -4q16 -6 30 -15q39 -25 54 -66q10 -28 10 -101v-169l1 -16v-5l1 -5q2 -7 5 -12q8 -14 29 -14q6 0 24 4v-67zM282 645q-15 15 -36 15t-36 -15q-15 -16 -15 -37t15 -36q14 -15 36 -15
q21 0 36 16q15 15 15 36q0 20 -15 36zM347 207l-1 14v9q-6 -1 -16 -3l-10 -1l-11 -2q-28 -4 -47 -7q-61 -11 -84 -21q-4 -1 -7 -3l-8 -4q-11 -6 -20 -14q-23 -21 -23 -51q0 -29 21 -48q24 -22 68 -22q20 0 40 5q25 6 45 19q53 36 53 115v14z" />
    <glyph glyph-name="adieresis" unicode="&#xe4;" horiz-adv-x="500" 
d="M301 541v103h89v-103h-89zM105 541v103h87v-103h-87zM486 3q-27 -9 -51 -9h-7q-7 1 -13 2q-19 2 -30 10q-5 4 -10 10l-4 5l-1 2l-1 1q-8 12 -12 23l-2 9l-2 8l-4 -5l-6 -5q-6 -7 -12 -12q-16 -15 -33 -25q-47 -30 -106 -30q-21 0 -40 4q-7 1 -14 3q-5 1 -11 3
q-95 32 -95 125q0 10 2 20q2 14 7 26q12 33 42 56q33 24 91 39q45 10 100 14l72 5q0 26 -1 39q0 8 -1 14q-1 9 -3 17q-4 19 -13 34q-25 39 -87 39h-8q-5 0 -11 -1q-15 -2 -28 -6q-38 -14 -50 -50q-5 -15 -5 -42l-83 5q0 8 2 19q2 13 6 27q15 44 49 71q48 38 124 38h13
q8 -1 17 -2q22 -2 44 -8q5 -1 9 -3l12 -4q16 -6 30 -15q39 -25 54 -66q10 -28 10 -101v-169l1 -16v-5l1 -5q2 -7 5 -12q8 -14 29 -14q6 0 24 4v-67zM347 207l-1 14v9q-6 -1 -16 -3l-10 -1l-11 -2q-28 -4 -47 -7q-61 -11 -84 -21q-4 -1 -7 -3l-8 -4q-11 -6 -20 -14
q-23 -21 -23 -51q0 -29 21 -48q24 -22 68 -22q20 0 40 5q25 6 45 19q53 36 53 115v14z" />
    <glyph glyph-name="atilde" unicode="&#xe3;" horiz-adv-x="500" 
d="M396 635v-2l-1 -3l-1 -6l-1 -6q-5 -19 -12 -35q-24 -49 -68 -48q-21 0 -87 25q-27 10 -40 10q-17 0 -26 -13q-3 -5 -5 -11l-1 -4l-1 -3h-49v3l1 4q1 6 2 13q5 19 13 34q24 46 71 45q20 0 45 -8l21 -8l22 -9l4 -1l4 -2l5 -1q15 -5 24 -5q17 0 26 13q3 4 4 10l1 5l1 3h48z
M486 3q-27 -9 -51 -9h-7q-7 1 -13 2q-19 2 -30 10q-5 4 -10 10l-4 5l-1 2l-1 1q-8 12 -12 23l-2 9l-2 8l-4 -5l-6 -5q-6 -7 -12 -12q-16 -15 -33 -25q-47 -30 -106 -30q-21 0 -40 4q-7 1 -14 3q-5 1 -11 3q-95 32 -95 125q0 10 2 20q2 14 7 26q12 33 42 56q33 24 91 39
q45 10 100 14l72 5q0 26 -1 39q0 8 -1 14q-1 9 -3 17q-4 19 -13 34q-25 39 -87 39h-8q-5 0 -11 -1q-15 -2 -28 -6q-38 -14 -50 -50q-5 -15 -5 -42l-83 5q0 8 2 19q2 13 6 27q15 44 49 71q48 38 124 38h13q8 -1 17 -2q22 -2 44 -8q5 -1 9 -3l12 -4q16 -6 30 -15
q39 -25 54 -66q10 -28 10 -101v-169l1 -16v-5l1 -5q2 -7 5 -12q8 -14 29 -14q6 0 24 4v-67zM347 207l-1 14v9q-6 -1 -16 -3l-10 -1l-11 -2q-28 -4 -47 -7q-61 -11 -84 -21q-4 -1 -7 -3l-8 -4q-11 -6 -20 -14q-23 -21 -23 -51q0 -29 21 -48q24 -22 68 -22q20 0 40 5
q25 6 45 19q53 36 53 115v14z" />
    <glyph glyph-name="acircumflex" unicode="&#xe2;" horiz-adv-x="500" 
d="M311 523l-61 95l-59 -95h-70l94 151h67l104 -151h-75zM486 3q-27 -9 -51 -9h-7q-7 1 -13 2q-19 2 -30 10q-5 4 -10 10l-4 5l-1 2l-1 1q-8 12 -12 23l-2 9l-2 8l-4 -5l-6 -5q-6 -7 -12 -12q-16 -15 -33 -25q-47 -30 -106 -30q-21 0 -40 4q-7 1 -14 3q-5 1 -11 3
q-95 32 -95 125q0 10 2 20q2 14 7 26q12 33 42 56q33 24 91 39q45 10 100 14l72 5q0 26 -1 39q0 8 -1 14q-1 9 -3 17q-4 19 -13 34q-25 39 -87 39h-8q-5 0 -11 -1q-15 -2 -28 -6q-38 -14 -50 -50q-5 -15 -5 -42l-83 5q0 8 2 19q2 13 6 27q15 44 49 71q48 38 124 38h13
q8 -1 17 -2q22 -2 44 -8q5 -1 9 -3l12 -4q16 -6 30 -15q39 -25 54 -66q10 -28 10 -101v-169l1 -16v-5l1 -5q2 -7 5 -12q8 -14 29 -14q6 0 24 4v-67zM347 207l-1 14v9q-6 -1 -16 -3l-10 -1l-11 -2q-28 -4 -47 -7q-61 -11 -84 -21q-4 -1 -7 -3l-8 -4q-11 -6 -20 -14
q-23 -21 -23 -51q0 -29 21 -48q24 -22 68 -22q20 0 40 5q25 6 45 19q53 36 53 115v14z" />
    <glyph glyph-name="aacute" unicode="&#xe1;" horiz-adv-x="500" 
d="M486 3q-27 -9 -51 -9h-7q-7 1 -13 2q-19 2 -30 10q-5 4 -10 10l-4 5l-1 2l-1 1q-8 12 -12 23l-2 9l-2 8l-4 -5l-6 -5q-6 -7 -12 -12q-16 -15 -33 -25q-47 -30 -106 -30q-21 0 -40 4q-7 1 -14 3q-5 1 -11 3q-95 32 -95 125q0 10 2 20q2 14 7 26q12 33 42 56q33 24 91 39
q45 10 100 14l72 5q0 26 -1 39q0 8 -1 14q-1 9 -3 17q-4 19 -13 34q-25 39 -87 39h-8q-5 0 -11 -1q-15 -2 -28 -6q-38 -14 -50 -50q-5 -15 -5 -42l-83 5q0 8 2 19q2 13 6 27q15 44 49 71q48 38 124 38h13q8 -1 17 -2q22 -2 44 -8q5 -1 9 -3l12 -4q16 -6 30 -15
q39 -25 54 -66q10 -28 10 -101v-169l1 -16v-5l1 -5q2 -7 5 -12q8 -14 29 -14q6 0 24 4v-67zM347 207l-1 14v9q-6 -1 -16 -3l-10 -1l-11 -2q-28 -4 -47 -7q-61 -11 -84 -21q-4 -1 -7 -3l-8 -4q-11 -6 -20 -14q-23 -21 -23 -51q0 -29 21 -48q24 -22 68 -22q20 0 40 5
q25 6 45 19q53 36 53 115v14zM258 522h-41l41 144h86z" />
    <glyph glyph-name="agrave" unicode="&#xe0;" horiz-adv-x="500" 
d="M232 521l-83 144h89l41 -144h-47zM486 3q-27 -9 -51 -9h-7q-7 1 -13 2q-19 2 -30 10q-5 4 -10 10l-4 5l-1 2l-1 1q-8 12 -12 23l-2 9l-2 8l-4 -5l-6 -5q-6 -7 -12 -12q-16 -15 -33 -25q-47 -30 -106 -30q-21 0 -40 4q-7 1 -14 3q-5 1 -11 3q-95 32 -95 125q0 10 2 20
q2 14 7 26q12 33 42 56q33 24 91 39q45 10 100 14l72 5q0 26 -1 39q0 8 -1 14q-1 9 -3 17q-4 19 -13 34q-25 39 -87 39h-8q-5 0 -11 -1q-15 -2 -28 -6q-38 -14 -50 -50q-5 -15 -5 -42l-83 5q0 8 2 19q2 13 6 27q15 44 49 71q48 38 124 38h13q8 -1 17 -2q22 -2 44 -8
q5 -1 9 -3l12 -4q16 -6 30 -15q39 -25 54 -66q10 -28 10 -101v-169l1 -16v-5l1 -5q2 -7 5 -12q8 -14 29 -14q6 0 24 4v-67zM347 207l-1 14v9q-6 -1 -16 -3l-10 -1l-11 -2q-28 -4 -47 -7q-61 -11 -84 -21q-4 -1 -7 -3l-8 -4q-11 -6 -20 -14q-23 -21 -23 -51q0 -29 21 -48
q24 -22 68 -22q20 0 40 5q25 6 45 19q53 36 53 115v14z" />
    <glyph glyph-name="Thorn" unicode="&#xde;" horiz-adv-x="625" 
d="M586 263q-36 -62 -104 -83q-24 -8 -61 -9q-13 -1 -25 -1h-229v-170h-91v706h91v-129h243q12 0 23 -1q33 -2 57 -10q64 -21 97 -78q26 -48 27 -109q1 -64 -28 -116zM521 379q1 76 -59 103q-20 9 -46 12q-9 1 -19 1h-230v-242h232q21 1 37 4q42 10 66 48q13 19 17 46
q1 8 2 18v10z" />
    <glyph glyph-name="Yacute" unicode="&#xdd;" horiz-adv-x="625" 
d="M330 771h-60l48 124h99zM357 323v-323h-95v323l-248 383h111l186 -299l188 299h112z" />
    <glyph glyph-name="Udieresis" unicode="&#xdc;" horiz-adv-x="688" 
d="M398 781v102h87v-102h-87zM201 781v102h87v-102h-87zM611 224q-2 -30 -6 -51q-3 -15 -8 -30q-7 -20 -18 -38q-28 -48 -77 -80q-29 -18 -62 -28q-47 -15 -102 -15q-66 0 -115 19q-104 39 -137 143q-10 34 -10 125v437h94v-465q0 -24 3 -41q0 -4 1 -7l2 -10q3 -13 7 -25
q13 -33 36 -55q24 -23 59 -34q16 -4 37 -6q7 -1 15 -1h27q13 1 25 4q34 6 62 24q47 30 62 87q10 35 10 107v422h95v-482z" />
    <glyph glyph-name="Ucircumflex" unicode="&#xdb;" horiz-adv-x="688" 
d="M405 771l-62 74l-59 -74h-75l101 124h65l107 -124h-77zM611 224q-2 -30 -6 -51q-3 -15 -8 -30q-7 -20 -18 -38q-28 -48 -77 -80q-29 -18 -62 -28q-47 -15 -102 -15q-66 0 -115 19q-104 39 -137 143q-10 34 -10 125v437h94v-465q0 -24 3 -41q0 -4 1 -7l2 -10q3 -13 7 -25
q13 -33 36 -55q24 -23 59 -34q16 -4 37 -6q7 -1 15 -1h27q13 1 25 4q34 6 62 24q47 30 62 87q10 35 10 107v422h95v-482z" />
    <glyph glyph-name="Uacute" unicode="&#xda;" horiz-adv-x="688" 
d="M362 771h-60l48 124h99zM611 224q-2 -30 -6 -51q-3 -15 -8 -30q-7 -20 -18 -38q-28 -48 -77 -80q-29 -18 -62 -28q-47 -15 -102 -15q-66 0 -115 19q-104 39 -137 143q-10 34 -10 125v437h94v-465q0 -24 3 -41q0 -4 1 -7l2 -10q3 -13 7 -25q13 -33 36 -55q24 -23 59 -34
q16 -4 37 -6q7 -1 15 -1h27q13 1 25 4q34 6 62 24q47 30 62 87q10 35 10 107v422h95v-482z" />
    <glyph glyph-name="Ugrave" unicode="&#xd9;" horiz-adv-x="688" 
d="M326 771l-87 124h99l48 -124h-60zM611 224q-2 -30 -6 -51q-3 -15 -8 -30q-7 -20 -18 -38q-28 -48 -77 -80q-29 -18 -62 -28q-47 -15 -102 -15q-66 0 -115 19q-104 39 -137 143q-10 34 -10 125v437h94v-465q0 -24 3 -41q0 -4 1 -7l2 -10q3 -13 7 -25q13 -33 36 -55
q24 -23 59 -34q16 -4 37 -6q7 -1 15 -1h27q13 1 25 4q34 6 62 24q47 30 62 87q10 35 10 107v422h95v-482z" />
    <glyph glyph-name="multiply" unicode="&#xd7;" horiz-adv-x="724" 
d="M515 84l-163 159l-158 -160l-56 55l158 160l-164 161l62 62l163 -160l157 160l56 -55l-157 -160l163 -160z" />
    <glyph glyph-name="Odieresis" unicode="&#xd6;" horiz-adv-x="812" 
d="M465 781v102h87v-102h-87zM269 781v102h87v-102h-87zM762 342l-2 -24q-2 -30 -8 -60q-18 -83 -64 -145q-17 -23 -38 -42q-27 -25 -59 -43q-80 -46 -187 -46h-19l-24 2q-31 3 -60 11q-81 22 -140 77q-46 43 -73 100q-37 79 -37 182v19l2 25q2 33 10 64q21 89 76 151
q99 111 268 111q75 0 140 -25q106 -41 163 -135q52 -88 52 -205v-17zM660 372q0 9 -1 18q-1 25 -6 48q-13 69 -48 117q-42 58 -109 80q-24 8 -51 11l-21 2h-17q-77 -1 -133 -34q-40 -24 -67 -63q-54 -78 -54 -198q0 -62 16 -117q12 -39 31 -70q11 -17 26 -34q5 -6 11 -11
l8 -8q19 -16 40 -28l16 -8q6 -3 12 -5q19 -7 37 -11q27 -5 59 -5h18q13 1 25 3q35 5 64 18q60 28 98 89q47 77 46 193v13z" />
    <glyph glyph-name="Otilde" unicode="&#xd5;" horiz-adv-x="812" 
d="M552 882v-3l-1 -4q-1 -5 -2 -9q-2 -13 -7 -25l-1 -3l-1 -3q-2 -5 -4 -9q-6 -11 -13 -20q-22 -26 -54 -25q-22 0 -82 24q-31 12 -46 12h-4l-6 -1q-7 -3 -12 -9q-8 -9 -10 -21h-48q9 62 40 85q12 9 27 12q5 1 11 2h9q21 0 47 -10l22 -9l23 -9l2 -1h3l8 -2q12 -3 20 -3
q10 0 15 4q10 6 17 27h47zM762 342l-2 -24q-2 -30 -8 -60q-18 -83 -64 -145q-17 -23 -38 -42q-27 -25 -59 -43q-80 -46 -187 -46h-19l-24 2q-31 3 -60 11q-81 22 -140 77q-46 43 -73 100q-37 79 -37 182v19l2 25q2 33 10 64q21 89 76 151q99 111 268 111q75 0 140 -25
q106 -41 163 -135q52 -88 52 -205v-17zM660 372q0 9 -1 18q-1 25 -6 48q-13 69 -48 117q-42 58 -109 80q-24 8 -51 11l-21 2h-17q-77 -1 -133 -34q-40 -24 -67 -63q-54 -78 -54 -198q0 -62 16 -117q12 -39 31 -70q11 -17 26 -34q5 -6 11 -11l8 -8q19 -16 40 -28l16 -8
q6 -3 12 -5q19 -7 37 -11q27 -5 59 -5h18q13 1 25 3q35 5 64 18q60 28 98 89q47 77 46 193v13z" />
    <glyph glyph-name="Ocircumflex" unicode="&#xd4;" horiz-adv-x="812" 
d="M468 771l-62 74l-60 -74h-74l100 124h65l108 -124h-77zM762 342l-2 -24q-2 -30 -8 -60q-18 -83 -64 -145q-17 -23 -38 -42q-27 -25 -59 -43q-80 -46 -187 -46h-19l-24 2q-31 3 -60 11q-81 22 -140 77q-46 43 -73 100q-37 79 -37 182v19l2 25q2 33 10 64q21 89 76 151
q99 111 268 111q75 0 140 -25q106 -41 163 -135q52 -88 52 -205v-17zM660 372q0 9 -1 18q-1 25 -6 48q-13 69 -48 117q-42 58 -109 80q-24 8 -51 11l-21 2h-17q-77 -1 -133 -34q-40 -24 -67 -63q-54 -78 -54 -198q0 -62 16 -117q12 -39 31 -70q11 -17 26 -34q5 -6 11 -11
l8 -8q19 -16 40 -28l16 -8q6 -3 12 -5q19 -7 37 -11q27 -5 59 -5h18q13 1 25 3q35 5 64 18q60 28 98 89q47 77 46 193v13z" />
    <glyph glyph-name="Oacute" unicode="&#xd3;" horiz-adv-x="812" 
d="M424 771h-60l48 124h99zM762 342l-2 -24q-2 -30 -8 -60q-18 -83 -64 -145q-17 -23 -38 -42q-27 -25 -59 -43q-80 -46 -187 -46h-19l-24 2q-31 3 -60 11q-81 22 -140 77q-46 43 -73 100q-37 79 -37 182v19l2 25q2 33 10 64q21 89 76 151q99 111 268 111q75 0 140 -25
q106 -41 163 -135q52 -88 52 -205v-17zM660 372q0 9 -1 18q-1 25 -6 48q-13 69 -48 117q-42 58 -109 80q-24 8 -51 11l-21 2h-17q-77 -1 -133 -34q-40 -24 -67 -63q-54 -78 -54 -198q0 -62 16 -117q12 -39 31 -70q11 -17 26 -34q5 -6 11 -11l8 -8q19 -16 40 -28l16 -8
q6 -3 12 -5q19 -7 37 -11q27 -5 59 -5h18q13 1 25 3q35 5 64 18q60 28 98 89q47 77 46 193v13z" />
    <glyph glyph-name="Ograve" unicode="&#xd2;" horiz-adv-x="812" 
d="M389 771l-87 124h99l47 -124h-59zM762 342l-2 -24q-2 -30 -8 -60q-18 -83 -64 -145q-17 -23 -38 -42q-27 -25 -59 -43q-80 -46 -187 -46h-19l-24 2q-31 3 -60 11q-81 22 -140 77q-46 43 -73 100q-37 79 -37 182v19l2 25q2 33 10 64q21 89 76 151q99 111 268 111
q75 0 140 -25q106 -41 163 -135q52 -88 52 -205v-17zM660 372q0 9 -1 18q-1 25 -6 48q-13 69 -48 117q-42 58 -109 80q-24 8 -51 11l-21 2h-17q-77 -1 -133 -34q-40 -24 -67 -63q-54 -78 -54 -198q0 -62 16 -117q12 -39 31 -70q11 -17 26 -34q5 -6 11 -11l8 -8
q19 -16 40 -28l16 -8q6 -3 12 -5q19 -7 37 -11q27 -5 59 -5h18q13 1 25 3q35 5 64 18q60 28 98 89q47 77 46 193v13z" />
    <glyph glyph-name="Ntilde" unicode="&#xd1;" horiz-adv-x="708" 
d="M500 882v-3l-1 -4q-1 -5 -2 -9q-2 -13 -7 -25l-1 -3l-1 -3q-2 -5 -4 -9q-6 -11 -13 -20q-22 -26 -54 -25q-21 0 -83 24q-29 12 -45 12h-4l-6 -1q-7 -3 -12 -9q-8 -9 -10 -21h-48q9 62 40 85q12 9 27 12q5 1 11 2h9q21 0 47 -10l22 -9l23 -9l2 -1h3l8 -2q12 -3 20 -3
q10 0 15 4q10 6 17 27h47zM545 0l-387 574l9 -574h-89v706h89l382 -566l-4 566h85v-706h-85z" />
    <glyph glyph-name="Eth" unicode="&#xd0;" horiz-adv-x="708" 
d="M658 326q-1 -18 -3 -36q-5 -55 -23 -102q-54 -144 -203 -179q-37 -8 -107 -8h-32q-21 -1 -33 -1h-179v341h-65v60h65v305h248q88 0 133 -15q91 -31 143 -112q57 -91 56 -232v-21zM557 422q-6 43 -20 77q-37 89 -128 114q-39 10 -108 10h-126v-222h168v-60h-168v-259h125
q90 0 132 17q129 50 130 250q0 40 -5 73z" />
    <glyph glyph-name="Idieresis" unicode="&#xcf;" horiz-adv-x="229" 
d="M169 781v102h87v-102h-87zM-27 781v102h87v-102h-87zM67 0v706h95v-706h-95z" />
    <glyph glyph-name="Icircumflex" unicode="&#xce;" horiz-adv-x="229" 
d="M176 771l-62 74l-59 -74h-75l101 124h65l107 -124h-77zM67 0v706h95v-706h-95z" />
    <glyph glyph-name="Iacute" unicode="&#xcd;" horiz-adv-x="229" 
d="M133 771h-60l48 124h98zM67 0v706h95v-706h-95z" />
    <glyph glyph-name="Igrave" unicode="&#xcc;" horiz-adv-x="229" 
d="M97 771l-87 124h99l47 -124h-59zM67 0v706h95v-706h-95z" />
    <glyph glyph-name="Edieresis" unicode="&#xcb;" horiz-adv-x="604" 
d="M372 781v102h88v-102h-88zM176 781v102h87v-102h-87zM79 0v706h486v-83h-396v-218h344v-82h-344v-241h408v-82h-498z" />
    <glyph glyph-name="Ecircumflex" unicode="&#xca;" horiz-adv-x="604" 
d="M379 771l-62 74l-59 -74h-75l101 124h65l107 -124h-77zM79 0v706h486v-83h-396v-218h344v-82h-344v-241h408v-82h-498z" />
    <glyph glyph-name="Eacute" unicode="&#xc9;" horiz-adv-x="604" 
d="M330 771h-60l48 124h99zM79 0v706h486v-83h-396v-218h344v-82h-344v-241h408v-82h-498z" />
    <glyph glyph-name="Egrave" unicode="&#xc8;" horiz-adv-x="604" 
d="M295 771l-87 124h99l47 -124h-59zM79 0v706h486v-83h-396v-218h344v-82h-344v-241h408v-82h-498z" />
    <glyph glyph-name="Ccedilla" unicode="&#xc7;" horiz-adv-x="764" 
d="M671 108q-59 -73 -141 -103q-37 -14 -109 -20l-16 -28q2 -2 6 -4l9 -4q13 -7 21 -13q26 -20 26 -53q0 -38 -33 -61q-35 -25 -94 -25v23l4 -1h3q22 0 35 13q11 11 10 25q-2 28 -60 47l52 79l-35 4l-37 5q-42 7 -71 21q-81 36 -132 117q-60 94 -60 225q1 166 95 266
q97 103 263 103q135 0 222 -69q71 -56 99 -147l-95 -20l-2 5l-2 7l-7 18q-12 26 -28 46q-68 85 -188 85q-101 0 -169 -62q-85 -78 -84 -232q1 -121 57 -200q67 -95 195 -95q93 0 156 55t79 153l102 -12q-16 -80 -71 -148z" />
    <glyph glyph-name="Aring" unicode="&#xc5;" horiz-adv-x="646" 
d="M395 781q-29 -28 -68 -28q-40 0 -67 28q-28 28 -28 68q0 39 28 67q28 27 68 27q39 0 67 -28q28 -27 28 -67q0 -39 -28 -67zM535 0l-77 216h-269l-79 -216h-100l269 706h98l257 -706h-99zM363 885q-15 14 -36 14t-35 -15q-15 -15 -15 -36t15 -35q15 -15 36 -15q20 0 35 15
t15 36t-15 36zM327 590l-108 -295h211z" />
    <glyph glyph-name="Adieresis" unicode="&#xc4;" horiz-adv-x="646" 
d="M380 781v102h87v-102h-87zM184 781v102h87v-102h-87zM535 0l-77 216h-269l-79 -216h-100l269 706h98l257 -706h-99zM327 590l-108 -295h211z" />
    <glyph glyph-name="Atilde" unicode="&#xc3;" horiz-adv-x="646" 
d="M469 882q0 -3 -1 -7q-1 -5 -2 -9q-3 -13 -8 -25l-1 -3l-1 -3q-2 -4 -4 -9q-5 -11 -12 -20q-21 -26 -54 -25q-21 0 -83 24q-29 12 -45 12h-4q-4 0 -7 -1q-6 -2 -12 -9q-7 -9 -9 -21h-49q10 62 41 85q12 9 27 12q5 1 11 2h9q20 0 47 -10l22 -9q13 -6 23 -9q1 0 4 -1l8 -2
q12 -3 20 -3q4 0 8 1q5 1 8 3q9 6 17 27h47zM535 0l-77 216h-269l-79 -216h-100l269 706h98l257 -706h-99zM327 590l-108 -295h211z" />
    <glyph glyph-name="Acircumflex" unicode="&#xc2;" horiz-adv-x="646" 
d="M384 747l-62 74l-59 -74h-75l101 124h65l107 -124h-77zM535 0l-77 216h-269l-79 -216h-100l269 706h98l257 -706h-99zM327 590l-108 -295h211z" />
    <glyph glyph-name="Aacute" unicode="&#xc1;" horiz-adv-x="646" 
d="M341 771h-60l48 124h99zM535 0l-77 216h-269l-79 -216h-100l269 706h98l257 -706h-99zM327 590l-108 -295h211z" />
    <glyph glyph-name="Agrave" unicode="&#xc0;" horiz-adv-x="646" 
d="M305 771l-87 124h100l47 -124h-60zM535 0l-77 216h-269l-79 -216h-100l269 706h98l257 -706h-99zM327 590l-108 -295h211z" />
    <glyph glyph-name="uni00B5" unicode="&#xb5;" horiz-adv-x="564" 
d="M530 -2q-28 -7 -43 -7q-77 0 -88 80q-42 -82 -126 -82q-68 0 -109 59l4 -264h-82v686h80v-236q0 -102 22 -134q28 -44 86 -44q68 0 98 68q17 38 17 130l1 216h79v-347q0 -40 7 -54t26 -14q12 0 28 7v-64z" />
    <glyph glyph-name="plusminus" unicode="&#xb1;" horiz-adv-x="724" 
d="M406 355v-219h-88v219h-224v78h224v217h88v-217h225v-78h-225zM94 0l-1 79h537v-79h-536z" />
    <glyph glyph-name="degree" unicode="&#xb0;" horiz-adv-x="354" 
d="M291 480q-47 -48 -114 -48t-114 48q-47 47 -47 114t47 114t114 47q68 0 115 -47q46 -46 46 -114q0 -67 -47 -114zM233 652q-23 23 -56 23t-56 -23t-23 -56q0 -32 23 -56q24 -23 56 -23q33 0 56 23t23 56t-23 56z" />
    <glyph glyph-name="registered" unicode="&#xae;" horiz-adv-x="840" 
d="M674 101q-102 -104 -255 -104q-148 0 -251 104q-104 104 -104 252q0 149 104 252q104 104 253 104q146 0 250 -103q105 -103 105 -246q0 -155 -102 -259zM648 581q-92 94 -228 94q-133 0 -226 -94q-93 -95 -93 -229t93 -228q93 -93 226 -93q130 0 225 93q95 94 95 222
q0 140 -92 235zM499 128l-95 189h-54v-189h-69v450h130q83 0 121 -31t38 -98q0 -100 -96 -126l102 -195h-77zM401 517h-50v-139h57q92 0 92 70q0 69 -99 69z" />
    <glyph glyph-name="logicalnot" unicode="&#xac;" horiz-adv-x="724" 
d="M547 6v255h-477v80h566v-335h-89z" />
    <glyph glyph-name="copyright" unicode="&#xa9;" horiz-adv-x="840" 
d="M674 101q-102 -104 -255 -104q-148 0 -251 104q-104 104 -104 252q0 149 104 252q104 104 253 104q146 0 250 -103q105 -103 105 -246q0 -155 -102 -259zM648 581q-92 94 -228 94q-133 0 -226 -94q-94 -95 -94 -229t93 -228q93 -93 227 -93q130 0 225 93q95 94 95 222
q0 140 -92 235zM423 119q-94 0 -151 62q-58 63 -58 164q0 106 61 173q61 68 158 68q137 0 183 -138l-67 -19q-21 52 -46 72q-26 20 -71 20q-66 0 -105 -47q-39 -46 -39 -125q0 -75 37 -119t99 -44q96 0 128 104l68 -14q-45 -157 -197 -157z" />
    <glyph glyph-name="brokenbar" unicode="&#xa6;" horiz-adv-x="252" 
d="M85 383v402h82v-402h-82zM85 -137v401h82v-401h-82z" />
    <glyph glyph-name="uni00B3" unicode="&#xb3;" horiz-adv-x="375" 
d="M315 267q-44 -44 -127 -43q-118 3 -154 86q-7 17 -11 41l-2 16v9h67q0 -96 103 -94h8q6 1 12 1q17 3 30 9q40 18 40 66q0 71 -85 71h-43v59h38q5 0 10 1q16 1 29 7q40 15 40 58q0 35 -28 55q-23 17 -56 17q-45 0 -66 -28q-8 -10 -13 -25l-3 -12l-2 -10l-2 -18v-11l-65 1
v10q0 8 1 17q3 25 9 42q34 91 140 91q61 0 103 -31q49 -36 49 -99q0 -41 -25 -65q-10 -10 -24 -17q-10 -5 -23 -9q29 -7 41 -15q45 -28 45 -90q0 -53 -36 -90z" />
    <glyph glyph-name="uni00B2" unicode="&#xb2;" horiz-adv-x="375" 
d="M44 233v61l10 6q51 31 101 72q59 50 86 92q17 25 24 50q3 9 4 18q1 7 1 14q0 36 -23 58q-23 21 -58 22q-41 1 -62 -24q-20 -24 -20 -63q0 -15 3 -32q1 -5 3 -11l1 -5l1 -4h-65q-6 26 -6 53q0 64 39 103q38 38 103 40q64 2 106 -35q44 -38 44 -103q0 -123 -204 -256h209
v-56h-297z" />
    <glyph glyph-name="uni00B9" unicode="&#xb9;" horiz-adv-x="375" 
d="M166 233v327h-86v45q45 3 67 16q28 18 36 63h50v-451h-67z" />
    <glyph glyph-name="threequarters" unicode="&#xbe;" horiz-adv-x="875" 
d="M788 109v-109h-63v109h-203v58l214 283h53v-285h64v-56h-65zM346 -29l-55 26l318 685l54 -26zM315 267q-44 -44 -127 -43q-118 3 -154 86q-7 17 -11 41l-2 16v9h67q0 -96 103 -94h8q6 1 12 1q17 3 30 9q40 18 40 66q0 71 -85 71h-43v59h38q5 0 10 1q16 1 29 7
q40 15 40 58q0 35 -28 55q-23 17 -56 17q-45 0 -66 -28q-8 -10 -13 -25l-3 -12l-2 -10l-2 -18v-11l-65 1v10q0 8 1 17q3 25 9 42q34 91 140 91q61 0 103 -31q49 -36 49 -99q0 -41 -25 -65q-10 -10 -24 -17q-10 -5 -23 -9q29 -7 41 -15q45 -28 45 -90q0 -53 -36 -90zM589 165
h137l2 191z" />
    <glyph glyph-name="onehalf" unicode="&#xbd;" horiz-adv-x="875" 
d="M544 0v61l11 6q61 33 117 86q22 20 40 40l25 31q19 28 27 55q4 10 5 20q1 8 1 15q0 11 -3 22q-4 15 -12 26q-21 31 -66 32q-82 1 -82 -88q0 -16 3 -30l2 -11l3 -10h-65q-6 26 -6 52q0 65 39 103q38 38 103 40q63 2 105 -34q44 -39 44 -104q0 -124 -203 -255h209v-57h-297
zM279 -29l-55 26l318 685l54 -26zM166 233v327h-86v45q45 3 67 16q28 18 36 63h50v-451h-67z" />
    <glyph glyph-name="onequarter" unicode="&#xbc;" horiz-adv-x="875" 
d="M788 109v-109h-63v109h-203v58l214 283h53v-285h64v-56h-65zM303 -29l-55 26l318 685l54 -26zM166 233v327h-86v45q45 3 67 16q28 18 36 63h50v-451h-67zM589 165h137l2 191z" />
    <glyph glyph-name="Euro" unicode="&#x20ac;" horiz-adv-x="700" 
d="M646 558q-71 91 -194 91q-202 0 -245 -209h399l-22 -62h-384v-20l1 -14v-15h366l-22 -62h-337q18 -99 81 -152q64 -54 164 -54q144 0 224 101v-106q-93 -74 -236 -74q-139 0 -227 74q-90 74 -112 211h-79l23 62h50v25q1 13 2 24h-75l23 62h59q26 137 112 210
q86 74 225 74q151 0 236 -75z" />
    <glyph glyph-name="uni1EA0" unicode="&#x1ea0;" horiz-adv-x="646" 
d="M535 0l-77 216h-269l-79 -216h-100l269 706h98l257 -706h-99zM327 590l-108 -295h211zM280 -192v103h87v-103h-87z" />
    <glyph glyph-name="uni1EA2" unicode="&#x1ea2;" horiz-adv-x="646" 
d="M535 0l-77 216h-269l-79 -216h-100l269 706h98l257 -706h-99zM327 590l-108 -295h211zM295 789q5 14 15 27l8 10l9 9q20 21 20 38q0 31 -33 31q-14 0 -28 -11q-11 -9 -21 -24l-34 20q34 67 99 67q35 0 59 -21q24 -20 24 -51q0 -29 -26 -56l-11 -11l-12 -12
q-14 -15 -22 -29z" />
    <glyph glyph-name="uni1EA4" unicode="&#x1ea4;" horiz-adv-x="646" 
d="M535 0l-77 216h-269l-79 -216h-100l269 706h98l257 -706h-99zM327 590l-108 -295h211zM380 751l-61 95l-59 -95h-70l94 151h67l104 -151h-75zM492 810h-41l41 144h86z" />
    <glyph glyph-name="uni1EA6" unicode="&#x1ea6;" horiz-adv-x="646" 
d="M535 0l-77 216h-269l-79 -216h-100l269 706h98l257 -706h-99zM327 590l-108 -295h211zM380 750l-61 95l-59 -95h-70l94 151h67l104 -151h-75zM477 843l-83 144h89l42 -144h-48z" />
    <glyph glyph-name="uni1EA8" unicode="&#x1ea8;" horiz-adv-x="646" 
d="M535 0l-77 216h-269l-79 -216h-100l269 706h98l257 -706h-99zM327 590l-108 -295h211zM380 748l-61 95l-59 -95h-70l94 151h67l104 -151h-75zM440 822q5 14 15 27l8 10l9 9q20 21 20 38q0 31 -33 31q-14 0 -28 -11q-11 -9 -21 -24l-34 20q34 67 99 67q35 0 59 -21
q24 -20 24 -51q0 -29 -26 -56l-11 -11l-12 -12q-14 -15 -22 -29z" />
    <glyph glyph-name="uni1EAA" unicode="&#x1eaa;" horiz-adv-x="646" 
d="M535 0l-77 216h-269l-79 -216h-100l269 706h98l257 -706h-99zM327 590l-108 -295h211zM380 749l-61 95l-59 -95h-70l94 151h67l104 -151h-75zM510 1016v-2l-1 -3q0 -6 -2 -12q-4 -19 -11 -35q-23 -49 -68 -48q-22 0 -86 25q-29 10 -41 10q-17 0 -26 -13q-4 -5 -5 -11
q-2 -4 -2 -7h-49q0 2 1 7q0 6 2 13q4 18 12 34q23 46 71 45q20 0 45 -9l22 -8l22 -8l4 -2q3 -1 8 -3q14 -4 24 -4q17 0 26 13q3 4 5 10q1 5 1 8h48z" />
    <glyph glyph-name="uni1EAC" unicode="&#x1eac;" horiz-adv-x="646" 
d="M535 0l-77 216h-269l-79 -216h-100l269 706h98l257 -706h-99zM327 590l-108 -295h211zM382 749l-61 95l-59 -95h-70l94 151h67l104 -151h-75zM280 -192v103h87v-103h-87z" />
    <glyph glyph-name="uni1EAE" unicode="&#x1eae;" horiz-adv-x="646" 
d="M535 0l-77 216h-269l-79 -216h-100l269 706h98l257 -706h-99zM327 590l-108 -295h211zM443 855q0 -43 -34 -75q-35 -32 -80 -32q-43 0 -77 27q-37 29 -38 80h51q14 -40 64 -40q24 0 40 11t21 29h53zM358 880h-41l41 144h86z" />
    <glyph glyph-name="uni1EB0" unicode="&#x1eb0;" horiz-adv-x="646" 
d="M535 0l-77 216h-269l-79 -216h-100l269 706h98l257 -706h-99zM327 590l-108 -295h211zM444 856q0 -43 -34 -75q-35 -32 -80 -32q-43 0 -77 27q-37 29 -38 80h51q14 -40 64 -40q24 0 40 11t21 29h53zM310 879l-83 144h89l42 -144h-48z" />
    <glyph glyph-name="uni1EB2" unicode="&#x1eb2;" horiz-adv-x="646" 
d="M535 0l-77 216h-269l-79 -216h-100l269 706h98l257 -706h-99zM327 590l-108 -295h211zM449 856q0 -43 -34 -75q-35 -32 -80 -32q-43 0 -77 27q-37 29 -38 80h51q14 -40 64 -40q24 0 40 11t21 29h53zM310 877.5q5 10.5 15 20.25l8 7.5l9 6.75q20 15.75 20 28.5
q0 23.25 -33 23.25q-14 0 -28 -8.25q-11 -6.75 -21 -18l-34 15q34 50.25 99 50.25q35 0 59 -15.75q24 -15 24 -38.25q0 -21.75 -26 -42l-11 -8.25l-12 -9q-14 -11.25 -22 -21.75z" />
    <glyph glyph-name="uni1EB4" unicode="&#x1eb4;" horiz-adv-x="646" 
d="M535 0l-77 216h-269l-79 -216h-100l269 706h98l257 -706h-99zM327 590l-108 -295h211zM444 856q0 -43 -34 -75q-35 -32 -80 -32q-43 0 -77 27q-37 29 -38 80h51q14 -40 64 -40q24 0 40 11t21 29h53zM489 986v-2l-1 -3q0 -6 -2 -12q-4 -19 -11 -35q-23 -49 -68 -48
q-22 0 -86 25q-29 10 -41 10q-17 0 -26 -13q-4 -5 -5 -11q-2 -4 -2 -7h-49q0 2 1 7q0 6 2 13q4 18 12 34q23 46 71 45q20 0 45 -9l22 -8l22 -8l4 -2q3 -1 8 -3q14 -4 24 -4q17 0 26 13q3 4 5 10q1 5 1 8h48z" />
    <glyph glyph-name="uni1EB6" unicode="&#x1eb6;" horiz-adv-x="646" 
d="M535 0l-77 216h-269l-79 -216h-100l269 706h98l257 -706h-99zM327 590l-108 -295h211zM448 856q0 -43 -34 -75q-35 -32 -80 -32q-43 0 -77 27q-37 29 -38 80h51q14 -40 64 -40q24 0 40 11t21 29h53zM280 -192v103h87v-103h-87z" />
    <glyph glyph-name="uni1EB8" unicode="&#x1eb8;" horiz-adv-x="604" 
d="M79 0v706h486v-83h-396v-218h344v-82h-344v-241h408v-82h-498zM286 -192v103h87v-103h-87z" />
    <glyph glyph-name="uni1EBA" unicode="&#x1eba;" horiz-adv-x="604" 
d="M79 0v706h486v-83h-396v-218h344v-82h-344v-241h408v-82h-498zM301 789q5 14 15 27l8 10l9 9q20 21 20 38q0 31 -33 31q-14 0 -28 -11q-11 -9 -21 -24l-34 20q34 67 99 67q35 0 59 -21q24 -20 24 -51q0 -29 -26 -56l-11 -11l-12 -12q-14 -15 -22 -29z" />
    <glyph glyph-name="uni1EBC" unicode="&#x1ebc;" horiz-adv-x="604" 
d="M79 0v706h486v-83h-396v-218h344v-82h-344v-241h408v-82h-498zM474 870v-2l-1 -3q0 -6 -2 -12q-4 -19 -11 -35q-23 -49 -68 -48q-22 0 -86 25q-29 10 -41 10q-17 0 -26 -13q-4 -5 -5 -11q-2 -4 -2 -7h-49q0 2 1 7q0 6 2 13q4 18 12 34q23 46 71 45q20 0 45 -9l22 -8
l22 -8l4 -2q3 -1 8 -3q14 -4 24 -4q17 0 26 13q3 4 5 10q1 5 1 8h48z" />
    <glyph glyph-name="uni1EBE" unicode="&#x1ebe;" horiz-adv-x="604" 
d="M79 0v706h486v-83h-396v-218h344v-82h-344v-241h408v-82h-498zM386 751l-61 95l-59 -95h-70l94 151h67l104 -151h-75zM498 810h-41l41 144h86z" />
    <glyph glyph-name="uni1EC0" unicode="&#x1ec0;" horiz-adv-x="604" 
d="M79 0v706h486v-83h-396v-218h344v-82h-344v-241h408v-82h-498zM386 750l-61 95l-59 -95h-70l94 151h67l104 -151h-75zM483 843l-83 144h89l42 -144h-48z" />
    <glyph glyph-name="uni1EC2" unicode="&#x1ec2;" horiz-adv-x="604" 
d="M79 0v706h486v-83h-396v-218h344v-82h-344v-241h408v-82h-498zM386 748l-61 95l-59 -95h-70l94 151h67l104 -151h-75zM446 822q5 14 15 27l8 10l9 9q20 21 20 38q0 31 -33 31q-14 0 -28 -11q-11 -9 -21 -24l-34 20q34 67 99 67q35 0 59 -21q24 -20 24 -51q0 -29 -26 -56
l-11 -11l-12 -12q-14 -15 -22 -29z" />
    <glyph glyph-name="uni1EC4" unicode="&#x1ec4;" horiz-adv-x="604" 
d="M79 0v706h486v-83h-396v-218h344v-82h-344v-241h408v-82h-498zM386 749l-61 95l-59 -95h-70l94 151h67l104 -151h-75zM516 1016v-2l-1 -3q0 -6 -2 -12q-4 -19 -11 -35q-23 -49 -68 -48q-22 0 -86 25q-29 10 -41 10q-17 0 -26 -13q-4 -5 -5 -11q-2 -4 -2 -7h-49q0 2 1 7
q0 6 2 13q4 18 12 34q23 46 71 45q20 0 45 -9l22 -8l22 -8l4 -2q3 -1 8 -3q14 -4 24 -4q17 0 26 13q3 4 5 10q1 5 1 8h48z" />
    <glyph glyph-name="uni1EC6" unicode="&#x1ec6;" horiz-adv-x="604" 
d="M79 0v706h486v-83h-396v-218h344v-82h-344v-241h408v-82h-498zM386 758l-61 95l-59 -95h-70l94 151h67l104 -151h-75zM286 -192v103h87v-103h-87z" />
    <glyph glyph-name="uni1EC8" unicode="&#x1ec8;" horiz-adv-x="229" 
d="M67 0v706h95v-706h-95zM83 762q5 14 15 27l8 10l9 9q20 21 20 38q0 31 -33 31q-14 0 -28 -11q-11 -9 -21 -24l-34 20q34 67 99 67q35 0 59 -21q24 -20 24 -51q0 -29 -26 -56l-11 -11l-12 -12q-14 -15 -22 -29z" />
    <glyph glyph-name="uni1ECA" unicode="&#x1eca;" horiz-adv-x="229" 
d="M67 0v706h95v-706h-95zM71 -192v103h87v-103h-87z" />
    <glyph glyph-name="Itilde" unicode="&#x128;" horiz-adv-x="229" 
d="M67 0v706h95v-706h-95zM264 849v-2l-1 -3q0 -6 -2 -12q-4 -19 -11 -35q-23 -49 -68 -48q-22 0 -86 25q-29 10 -41 10q-17 0 -26 -13q-4 -5 -5 -11q-2 -4 -2 -7h-49q0 2 1 7q0 6 2 13q4 18 12 34q23 46 71 45q20 0 45 -9l22 -8l22 -8l4 -2q3 -1 8 -3q14 -4 24 -4
q17 0 26 13q3 4 5 10q1 5 1 8h48z" />
    <glyph glyph-name="uni1ECC" unicode="&#x1ecc;" horiz-adv-x="812" 
d="M762 342l-2 -24q-2 -30 -8 -60q-18 -83 -64 -145q-17 -23 -38 -42q-27 -25 -59 -43q-80 -46 -187 -46h-19l-24 2q-31 3 -60 11q-81 22 -140 77q-46 43 -73 100q-37 79 -37 182v19l2 25q2 33 10 64q21 89 76 151q99 111 268 111q75 0 140 -25q106 -41 163 -135
q52 -88 52 -205v-17zM660 372q0 9 -1 18q-1 25 -6 48q-13 69 -48 117q-42 58 -109 80q-24 8 -51 11l-21 2h-17q-77 -1 -133 -34q-40 -24 -67 -63q-54 -78 -54 -198q0 -62 16 -117q12 -39 31 -70q11 -17 26 -34q5 -6 11 -11l8 -8q19 -16 40 -28l16 -8q6 -3 12 -5
q19 -7 37 -11q27 -5 59 -5h18q13 1 25 3q35 5 64 18q60 28 98 89q47 77 46 193v13zM365 -192v103h87v-103h-87z" />
    <glyph glyph-name="uni1ECE" unicode="&#x1ece;" horiz-adv-x="812" 
d="M762 342l-2 -24q-2 -30 -8 -60q-18 -83 -64 -145q-17 -23 -38 -42q-27 -25 -59 -43q-80 -46 -187 -46h-19l-24 2q-31 3 -60 11q-81 22 -140 77q-46 43 -73 100q-37 79 -37 182v19l2 25q2 33 10 64q21 89 76 151q99 111 268 111q75 0 140 -25q106 -41 163 -135
q52 -88 52 -205v-17zM660 372q0 9 -1 18q-1 25 -6 48q-13 69 -48 117q-42 58 -109 80q-24 8 -51 11l-21 2h-17q-77 -1 -133 -34q-40 -24 -67 -63q-54 -78 -54 -198q0 -62 16 -117q12 -39 31 -70q11 -17 26 -34q5 -6 11 -11l8 -8q19 -16 40 -28l16 -8q6 -3 12 -5
q19 -7 37 -11q27 -5 59 -5h18q13 1 25 3q35 5 64 18q60 28 98 89q47 77 46 193v13zM380 789q5 14 15 27l8 10l9 9q20 21 20 38q0 31 -33 31q-14 0 -28 -11q-11 -9 -21 -24l-34 20q34 67 99 67q35 0 59 -21q24 -20 24 -51q0 -29 -26 -56l-11 -11l-12 -12q-14 -15 -22 -29z
" />
    <glyph glyph-name="uni1ED0" unicode="&#x1ed0;" horiz-adv-x="812" 
d="M762 342l-2 -24q-2 -30 -8 -60q-18 -83 -64 -145q-17 -23 -38 -42q-27 -25 -59 -43q-80 -46 -187 -46h-19l-24 2q-31 3 -60 11q-81 22 -140 77q-46 43 -73 100q-37 79 -37 182v19l2 25q2 33 10 64q21 89 76 151q99 111 268 111q75 0 140 -25q106 -41 163 -135
q52 -88 52 -205v-17zM660 372q0 9 -1 18q-1 25 -6 48q-13 69 -48 117q-42 58 -109 80q-24 8 -51 11l-21 2h-17q-77 -1 -133 -34q-40 -24 -67 -63q-54 -78 -54 -198q0 -62 16 -117q12 -39 31 -70q11 -17 26 -34q5 -6 11 -11l8 -8q19 -16 40 -28l16 -8q6 -3 12 -5
q19 -7 37 -11q27 -5 59 -5h18q13 1 25 3q35 5 64 18q60 28 98 89q47 77 46 193v13zM464 751l-61 95l-59 -95h-70l94 151h67l104 -151h-75zM576 810h-41l41 144h86z" />
    <glyph glyph-name="uni1ED2" unicode="&#x1ed2;" horiz-adv-x="812" 
d="M762 342l-2 -24q-2 -30 -8 -60q-18 -83 -64 -145q-17 -23 -38 -42q-27 -25 -59 -43q-80 -46 -187 -46h-19l-24 2q-31 3 -60 11q-81 22 -140 77q-46 43 -73 100q-37 79 -37 182v19l2 25q2 33 10 64q21 89 76 151q99 111 268 111q75 0 140 -25q106 -41 163 -135
q52 -88 52 -205v-17zM660 372q0 9 -1 18q-1 25 -6 48q-13 69 -48 117q-42 58 -109 80q-24 8 -51 11l-21 2h-17q-77 -1 -133 -34q-40 -24 -67 -63q-54 -78 -54 -198q0 -62 16 -117q12 -39 31 -70q11 -17 26 -34q5 -6 11 -11l8 -8q19 -16 40 -28l16 -8q6 -3 12 -5
q19 -7 37 -11q27 -5 59 -5h18q13 1 25 3q35 5 64 18q60 28 98 89q47 77 46 193v13zM464 750l-61 95l-59 -95h-70l94 151h67l104 -151h-75zM561 843l-83 144h89l42 -144h-48z" />
    <glyph glyph-name="uni1ED4" unicode="&#x1ed4;" horiz-adv-x="812" 
d="M762 342l-2 -24q-2 -30 -8 -60q-18 -83 -64 -145q-17 -23 -38 -42q-27 -25 -59 -43q-80 -46 -187 -46h-19l-24 2q-31 3 -60 11q-81 22 -140 77q-46 43 -73 100q-37 79 -37 182v19l2 25q2 33 10 64q21 89 76 151q99 111 268 111q75 0 140 -25q106 -41 163 -135
q52 -88 52 -205v-17zM660 372q0 9 -1 18q-1 25 -6 48q-13 69 -48 117q-42 58 -109 80q-24 8 -51 11l-21 2h-17q-77 -1 -133 -34q-40 -24 -67 -63q-54 -78 -54 -198q0 -62 16 -117q12 -39 31 -70q11 -17 26 -34q5 -6 11 -11l8 -8q19 -16 40 -28l16 -8q6 -3 12 -5
q19 -7 37 -11q27 -5 59 -5h18q13 1 25 3q35 5 64 18q60 28 98 89q47 77 46 193v13zM464 748l-61 95l-59 -95h-70l94 151h67l104 -151h-75zM524 822q5 14 15 27l8 10l9 9q20 21 20 38q0 31 -33 31q-14 0 -28 -11q-11 -9 -21 -24l-34 20q34 67 99 67q35 0 59 -21
q24 -20 24 -51q0 -29 -26 -56l-11 -11l-12 -12q-14 -15 -22 -29z" />
    <glyph glyph-name="uni1ED6" unicode="&#x1ed6;" horiz-adv-x="812" 
d="M762 342l-2 -24q-2 -30 -8 -60q-18 -83 -64 -145q-17 -23 -38 -42q-27 -25 -59 -43q-80 -46 -187 -46h-19l-24 2q-31 3 -60 11q-81 22 -140 77q-46 43 -73 100q-37 79 -37 182v19l2 25q2 33 10 64q21 89 76 151q99 111 268 111q75 0 140 -25q106 -41 163 -135
q52 -88 52 -205v-17zM660 372q0 9 -1 18q-1 25 -6 48q-13 69 -48 117q-42 58 -109 80q-24 8 -51 11l-21 2h-17q-77 -1 -133 -34q-40 -24 -67 -63q-54 -78 -54 -198q0 -62 16 -117q12 -39 31 -70q11 -17 26 -34q5 -6 11 -11l8 -8q19 -16 40 -28l16 -8q6 -3 12 -5
q19 -7 37 -11q27 -5 59 -5h18q13 1 25 3q35 5 64 18q60 28 98 89q47 77 46 193v13zM464 749l-61 95l-59 -95h-70l94 151h67l104 -151h-75zM594 1016v-2l-1 -3q0 -6 -2 -12q-4 -19 -11 -35q-23 -49 -68 -48q-22 0 -86 25q-29 10 -41 10q-17 0 -26 -13q-4 -5 -5 -11
q-2 -4 -2 -7h-49q0 2 1 7q0 6 2 13q4 18 12 34q23 46 71 45q20 0 45 -9l22 -8l22 -8l4 -2q3 -1 8 -3q14 -4 24 -4q17 0 26 13q3 4 5 10q1 5 1 8h48z" />
    <glyph glyph-name="uni1ED8" unicode="&#x1ed8;" horiz-adv-x="812" 
d="M762 342l-2 -24q-2 -30 -8 -60q-18 -83 -64 -145q-17 -23 -38 -42q-27 -25 -59 -43q-80 -46 -187 -46h-19l-24 2q-31 3 -60 11q-81 22 -140 77q-46 43 -73 100q-37 79 -37 182v19l2 25q2 33 10 64q21 89 76 151q99 111 268 111q75 0 140 -25q106 -41 163 -135
q52 -88 52 -205v-17zM660 372q0 9 -1 18q-1 25 -6 48q-13 69 -48 117q-42 58 -109 80q-24 8 -51 11l-21 2h-17q-77 -1 -133 -34q-40 -24 -67 -63q-54 -78 -54 -198q0 -62 16 -117q12 -39 31 -70q11 -17 26 -34q5 -6 11 -11l8 -8q19 -16 40 -28l16 -8q6 -3 12 -5
q19 -7 37 -11q27 -5 59 -5h18q13 1 25 3q35 5 64 18q60 28 98 89q47 77 46 193v13zM464 758l-61 95l-59 -95h-70l94 151h67l104 -151h-75zM365 -192v103h87v-103h-87z" />
    <glyph glyph-name="uni1EDA" unicode="&#x1eda;" horiz-adv-x="812" 
d="M660 372q0 9 -1 18q-1 25 -6 48q-13 69 -48 117q-42 58 -109 80q-24 8 -51 11l-21 2h-17q-77 -1 -133 -34q-40 -24 -67 -63q-54 -78 -54 -198q0 -62 16 -117q12 -39 31 -70q11 -17 26 -34q5 -6 11 -11l8 -8q19 -16 40 -28l16 -8q6 -3 12 -5q19 -7 37 -11q27 -5 59 -5h18
q13 1 25 3q35 5 64 18q60 28 98 89q47 77 46 193v13zM608 668q63 -39 102 -104q52 -88 52 -205v-17l-2 -24q-2 -30 -8 -60q-18 -83 -64 -145q-17 -23 -38 -42q-27 -25 -59 -43q-80 -46 -187 -46h-19l-24 2q-31 3 -60 11q-81 22 -140 77q-46 43 -73 100q-37 79 -37 182v19
l2 25q2 33 10 64q21 89 76 151q99 111 268 111q68 0 127 -20q72 6 72 79h63q0 -56 -30 -90q-13 -15 -31 -25zM405 757h-41l41 144h86z" />
    <glyph glyph-name="uni1EDC" unicode="&#x1edc;" horiz-adv-x="812" 
d="M660 372q0 9 -1 18q-1 25 -6 48q-13 69 -48 117q-42 58 -109 80q-24 8 -51 11l-21 2h-17q-77 -1 -133 -34q-40 -24 -67 -63q-54 -78 -54 -198q0 -62 16 -117q12 -39 31 -70q11 -17 26 -34q5 -6 11 -11l8 -8q19 -16 40 -28l16 -8q6 -3 12 -5q19 -7 37 -11q27 -5 59 -5h18
q13 1 25 3q35 5 64 18q60 28 98 89q47 77 46 193v13zM608 668q63 -39 102 -104q52 -88 52 -205v-17l-2 -24q-2 -30 -8 -60q-18 -83 -64 -145q-17 -23 -38 -42q-27 -25 -59 -43q-80 -46 -187 -46h-19l-24 2q-31 3 -60 11q-81 22 -140 77q-46 43 -73 100q-37 79 -37 182v19
l2 25q2 33 10 64q21 89 76 151q99 111 268 111q68 0 127 -20q72 6 72 79h63q0 -56 -30 -90q-13 -15 -31 -25zM402 756l-83 144h89l42 -144h-48z" />
    <glyph glyph-name="uni1EDE" unicode="&#x1ede;" horiz-adv-x="812" 
d="M660 372q0 9 -1 18q-1 25 -6 48q-13 69 -48 117q-42 58 -109 80q-24 8 -51 11l-21 2h-17q-77 -1 -133 -34q-40 -24 -67 -63q-54 -78 -54 -198q0 -62 16 -117q12 -39 31 -70q11 -17 26 -34q5 -6 11 -11l8 -8q19 -16 40 -28l16 -8q6 -3 12 -5q19 -7 37 -11q27 -5 59 -5h18
q13 1 25 3q35 5 64 18q60 28 98 89q47 77 46 193v13zM608 668q63 -39 102 -104q52 -88 52 -205v-17l-2 -24q-2 -30 -8 -60q-18 -83 -64 -145q-17 -23 -38 -42q-27 -25 -59 -43q-80 -46 -187 -46h-19l-24 2q-31 3 -60 11q-81 22 -140 77q-46 43 -73 100q-37 79 -37 182v19
l2 25q2 33 10 64q21 89 76 151q99 111 268 111q68 0 127 -20q72 6 72 79h63q0 -56 -30 -90q-13 -15 -31 -25zM379 762q5 14 15 27l8 10l9 9q20 21 20 38q0 31 -33 31q-14 0 -28 -11q-11 -9 -21 -24l-34 20q34 67 99 67q35 0 59 -21q24 -20 24 -51q0 -29 -26 -56l-11 -11
l-12 -12q-14 -15 -22 -29z" />
    <glyph glyph-name="uni1EE0" unicode="&#x1ee0;" horiz-adv-x="812" 
d="M660 372q0 9 -1 18q-1 25 -6 48q-13 69 -48 117q-42 58 -109 80q-24 8 -51 11l-21 2h-17q-77 -1 -133 -34q-40 -24 -67 -63q-54 -78 -54 -198q0 -62 16 -117q12 -39 31 -70q11 -17 26 -34q5 -6 11 -11l8 -8q19 -16 40 -28l16 -8q6 -3 12 -5q19 -7 37 -11q27 -5 59 -5h18
q13 1 25 3q35 5 64 18q60 28 98 89q47 77 46 193v13zM608 668q63 -39 102 -104q52 -88 52 -205v-17l-2 -24q-2 -30 -8 -60q-18 -83 -64 -145q-17 -23 -38 -42q-27 -25 -59 -43q-80 -46 -187 -46h-19l-24 2q-31 3 -60 11q-81 22 -140 77q-46 43 -73 100q-37 79 -37 182v19
l2 25q2 33 10 64q21 89 76 151q99 111 268 111q68 0 127 -20q72 6 72 79h63q0 -56 -30 -90q-13 -15 -31 -25zM552 870v-2l-1 -3q0 -6 -2 -12q-4 -19 -11 -35q-23 -49 -68 -48q-22 0 -86 25q-29 10 -41 10q-17 0 -26 -13q-4 -5 -5 -11q-2 -4 -2 -7h-49q0 2 1 7q0 6 2 13
q4 18 12 34q23 46 71 45q20 0 45 -9l22 -8l22 -8l4 -2q3 -1 8 -3q14 -4 24 -4q17 0 26 13q3 4 5 10q1 5 1 8h48z" />
    <glyph glyph-name="uni1EE2" unicode="&#x1ee2;" horiz-adv-x="812" 
d="M660 372q0 9 -1 18q-1 25 -6 48q-13 69 -48 117q-42 58 -109 80q-24 8 -51 11l-21 2h-17q-77 -1 -133 -34q-40 -24 -67 -63q-54 -78 -54 -198q0 -62 16 -117q12 -39 31 -70q11 -17 26 -34q5 -6 11 -11l8 -8q19 -16 40 -28l16 -8q6 -3 12 -5q19 -7 37 -11q27 -5 59 -5h18
q13 1 25 3q35 5 64 18q60 28 98 89q47 77 46 193v13zM608 668q63 -39 102 -104q52 -88 52 -205v-17l-2 -24q-2 -30 -8 -60q-18 -83 -64 -145q-17 -23 -38 -42q-27 -25 -59 -43q-80 -46 -187 -46h-19l-24 2q-31 3 -60 11q-81 22 -140 77q-46 43 -73 100q-37 79 -37 182v19
l2 25q2 33 10 64q21 89 76 151q99 111 268 111q68 0 127 -20q72 6 72 79h63q0 -56 -30 -90q-13 -15 -31 -25zM365 -192v103h87v-103h-87z" />
    <glyph glyph-name="Ohorn" unicode="&#x1a0;" horiz-adv-x="812" 
d="M660 372q0 9 -1 18q-1 25 -6 48q-13 69 -48 117q-42 58 -109 80q-24 8 -51 11l-21 2h-17q-77 -1 -133 -34q-40 -24 -67 -63q-54 -78 -54 -198q0 -62 16 -117q12 -39 31 -70q11 -17 26 -34q5 -6 11 -11l8 -8q19 -16 40 -28l16 -8q6 -3 12 -5q19 -7 37 -11q27 -5 59 -5h18
q13 1 25 3q35 5 64 18q60 28 98 89q47 77 46 193v13zM608 668q63 -39 102 -104q52 -88 52 -205v-17l-2 -24q-2 -30 -8 -60q-18 -83 -64 -145q-17 -23 -38 -42q-27 -25 -59 -43q-80 -46 -187 -46h-19l-24 2q-31 3 -60 11q-81 22 -140 77q-46 43 -73 100q-37 79 -37 182v19
l2 25q2 33 10 64q21 89 76 151q99 111 268 111q68 0 127 -20q72 6 72 79h63q0 -56 -30 -90q-13 -15 -31 -25z" />
    <glyph glyph-name="Utilde" unicode="&#x168;" horiz-adv-x="688" 
d="M611 224q-2 -30 -6 -51q-3 -15 -8 -30q-7 -20 -18 -38q-28 -48 -77 -80q-29 -18 -62 -28q-47 -15 -102 -15q-66 0 -115 19q-104 39 -137 143q-10 34 -10 125v437h94v-465q0 -24 3 -41q0 -4 1 -7l2 -10q3 -13 7 -25q13 -33 36 -55q24 -23 59 -34q16 -4 37 -6q7 -1 15 -1
h27q13 1 25 4q34 6 62 24q47 30 62 87q10 35 10 107v422h95v-482zM489 870v-2l-1 -3q0 -6 -2 -12q-4 -19 -11 -35q-23 -49 -68 -48q-22 0 -86 25q-29 10 -41 10q-17 0 -26 -13q-4 -5 -5 -11q-2 -4 -2 -7h-49q0 2 1 7q0 6 2 13q4 18 12 34q23 46 71 45q20 0 45 -9l22 -8
l22 -8l4 -2q3 -1 8 -3q14 -4 24 -4q17 0 26 13q3 4 5 10q1 5 1 8h48z" />
    <glyph glyph-name="uni1EE4" unicode="&#x1ee4;" horiz-adv-x="688" 
d="M611 224q-2 -30 -6 -51q-3 -15 -8 -30q-7 -20 -18 -38q-28 -48 -77 -80q-29 -18 -62 -28q-47 -15 -102 -15q-66 0 -115 19q-104 39 -137 143q-10 34 -10 125v437h94v-465q0 -24 3 -41q0 -4 1 -7l2 -10q3 -13 7 -25q13 -33 36 -55q24 -23 59 -34q16 -4 37 -6q7 -1 15 -1
h27q13 1 25 4q34 6 62 24q47 30 62 87q10 35 10 107v422h95v-482zM302 -192v103h87v-103h-87z" />
    <glyph glyph-name="uni1EE6" unicode="&#x1ee6;" horiz-adv-x="688" 
d="M611 224q-2 -30 -6 -51q-3 -15 -8 -30q-7 -20 -18 -38q-28 -48 -77 -80q-29 -18 -62 -28q-47 -15 -102 -15q-66 0 -115 19q-104 39 -137 143q-10 34 -10 125v437h94v-465q0 -24 3 -41q0 -4 1 -7l2 -10q3 -13 7 -25q13 -33 36 -55q24 -23 59 -34q16 -4 37 -6q7 -1 15 -1
h27q13 1 25 4q34 6 62 24q47 30 62 87q10 35 10 107v422h95v-482zM317 789q5 14 15 27l8 10l9 9q20 21 20 38q0 31 -33 31q-14 0 -28 -11q-11 -9 -21 -24l-34 20q34 67 99 67q35 0 59 -21q24 -20 24 -51q0 -29 -26 -56l-11 -11l-12 -12q-14 -15 -22 -29z" />
    <glyph glyph-name="uni1EE8" unicode="&#x1ee8;" horiz-adv-x="688" 
d="M611 658v-434q-2 -30 -6 -51q-3 -15 -8 -30q-7 -20 -18 -38q-28 -48 -77 -80q-29 -18 -62 -28q-47 -15 -102 -15q-66 0 -115 19q-104 39 -137 143q-10 34 -10 125v437h94v-465q0 -24 3 -41q0 -4 1 -7l2 -10q3 -13 7 -25q13 -33 36 -55q24 -23 59 -34q16 -4 37 -6
q7 -1 15 -1h27q13 1 25 4q34 6 62 24q47 30 62 87q10 35 10 107v422h61q55 12 55 77h63q0 -56 -30 -90q-21 -24 -54 -35zM343 749h-41l41 144h86z" />
    <glyph glyph-name="uni1EEA" unicode="&#x1eea;" horiz-adv-x="688" 
d="M611 658v-434q-2 -30 -6 -51q-3 -15 -8 -30q-7 -20 -18 -38q-28 -48 -77 -80q-29 -18 -62 -28q-47 -15 -102 -15q-66 0 -115 19q-104 39 -137 143q-10 34 -10 125v437h94v-465q0 -24 3 -41q0 -4 1 -7l2 -10q3 -13 7 -25q13 -33 36 -55q24 -23 59 -34q16 -4 37 -6
q7 -1 15 -1h27q13 1 25 4q34 6 62 24q47 30 62 87q10 35 10 107v422h61q55 12 55 77h63q0 -56 -30 -90q-21 -24 -54 -35zM330 749l-83 144h89l42 -144h-48z" />
    <glyph glyph-name="uni1EEC" unicode="&#x1eec;" horiz-adv-x="688" 
d="M611 658v-434q-2 -30 -6 -51q-3 -15 -8 -30q-7 -20 -18 -38q-28 -48 -77 -80q-29 -18 -62 -28q-47 -15 -102 -15q-66 0 -115 19q-104 39 -137 143q-10 34 -10 125v437h94v-465q0 -24 3 -41q0 -4 1 -7l2 -10q3 -13 7 -25q13 -33 36 -55q24 -23 59 -34q16 -4 37 -6
q7 -1 15 -1h27q13 1 25 4q34 6 62 24q47 30 62 87q10 35 10 107v422h61q55 12 55 77h63q0 -56 -30 -90q-21 -24 -54 -35zM316 762q5 14 15 27l8 10l9 9q20 21 20 38q0 31 -33 31q-14 0 -28 -11q-11 -9 -21 -24l-34 20q34 67 99 67q35 0 59 -21q24 -20 24 -51q0 -29 -26 -56
l-11 -11l-12 -12q-14 -15 -22 -29z" />
    <glyph glyph-name="uni1EEE" unicode="&#x1eee;" horiz-adv-x="688" 
d="M611 658v-434q-2 -30 -6 -51q-3 -15 -8 -30q-7 -20 -18 -38q-28 -48 -77 -80q-29 -18 -62 -28q-47 -15 -102 -15q-66 0 -115 19q-104 39 -137 143q-10 34 -10 125v437h94v-465q0 -24 3 -41q0 -4 1 -7l2 -10q3 -13 7 -25q13 -33 36 -55q24 -23 59 -34q16 -4 37 -6
q7 -1 15 -1h27q13 1 25 4q34 6 62 24q47 30 62 87q10 35 10 107v422h61q55 12 55 77h63q0 -56 -30 -90q-21 -24 -54 -35zM510 849v-2l-1 -3q0 -6 -2 -12q-4 -19 -11 -35q-23 -49 -68 -48q-22 0 -86 25q-29 10 -41 10q-17 0 -26 -13q-4 -5 -5 -11q-2 -4 -2 -7h-49q0 2 1 7
q0 6 2 13q4 18 12 34q23 46 71 45q20 0 45 -9l22 -8l22 -8l4 -2q3 -1 8 -3q14 -4 24 -4q17 0 26 13q3 4 5 10q1 5 1 8h48z" />
    <glyph glyph-name="uni1EF0" unicode="&#x1ef0;" horiz-adv-x="688" 
d="M611 658v-434q-2 -30 -6 -51q-3 -15 -8 -30q-7 -20 -18 -38q-28 -48 -77 -80q-29 -18 -62 -28q-47 -15 -102 -15q-66 0 -115 19q-104 39 -137 143q-10 34 -10 125v437h94v-465q0 -24 3 -41q0 -4 1 -7l2 -10q3 -13 7 -25q13 -33 36 -55q24 -23 59 -34q16 -4 37 -6
q7 -1 15 -1h27q13 1 25 4q34 6 62 24q47 30 62 87q10 35 10 107v422h61q55 12 55 77h63q0 -56 -30 -90q-21 -24 -54 -35zM317 -192v103h87v-103h-87z" />
    <glyph glyph-name="Uhorn" unicode="&#x1af;" horiz-adv-x="688" 
d="M611 658v-434q-2 -30 -6 -51q-3 -15 -8 -30q-7 -20 -18 -38q-28 -48 -77 -80q-29 -18 -62 -28q-47 -15 -102 -15q-66 0 -115 19q-104 39 -137 143q-10 34 -10 125v437h94v-465q0 -24 3 -41q0 -4 1 -7l2 -10q3 -13 7 -25q13 -33 36 -55q24 -23 59 -34q16 -4 37 -6
q7 -1 15 -1h27q13 1 25 4q34 6 62 24q47 30 62 87q10 35 10 107v422h61q55 12 55 77h63q0 -56 -30 -90q-21 -24 -54 -35z" />
    <glyph glyph-name="Ygrave" unicode="&#x1ef2;" horiz-adv-x="625" 
d="M357 323v-323h-95v323l-248 383h111l186 -299l188 299h112zM308 756l-83 144h89l42 -144h-48z" />
    <glyph glyph-name="uni1EF4" unicode="&#x1ef4;" horiz-adv-x="625" 
d="M357 323v-323h-95v323l-248 383h111l186 -299l188 299h112zM271 -192v103h87v-103h-87z" />
    <glyph glyph-name="uni1EF6" unicode="&#x1ef6;" horiz-adv-x="625" 
d="M357 323v-323h-95v323l-248 383h111l186 -299l188 299h112zM286 789q5 14 15 27l8 10l9 9q20 21 20 38q0 31 -33 31q-14 0 -28 -11q-11 -9 -21 -24l-34 20q34 67 99 67q35 0 59 -21q24 -20 24 -51q0 -29 -26 -56l-11 -11l-12 -12q-14 -15 -22 -29z" />
    <glyph glyph-name="uni1EF8" unicode="&#x1ef8;" horiz-adv-x="625" 
d="M357 323v-323h-95v323l-248 383h111l186 -299l188 299h112zM458 870v-2l-1 -3q0 -6 -2 -12q-4 -19 -11 -35q-23 -49 -68 -48q-22 0 -86 25q-29 10 -41 10q-17 0 -26 -13q-4 -5 -5 -11q-2 -4 -2 -7h-49q0 2 1 7q0 6 2 13q4 18 12 34q23 46 71 45q20 0 45 -9l22 -8l22 -8
l4 -2q3 -1 8 -3q14 -4 24 -4q17 0 26 13q3 4 5 10q1 5 1 8h48z" />
    <glyph glyph-name="dcroat" unicode="&#x111;" horiz-adv-x="562" 
d="M419 246q0 7 -1 15q-1 20 -5 36q-12 52 -49 83q-38 32 -90 33h-9l-12 -1q-14 -2 -27 -6q-36 -12 -61 -42q-40 -47 -40 -130v-21q1 -16 4 -31q8 -44 32 -75q25 -32 61 -44q13 -4 28 -6l12 -1h10q45 0 76 20q31 19 49 55q23 43 22 105v10zM497 543v-543h-80v60
q-6 -6 -10 -11q-6 -7 -12 -13q-16 -14 -33 -24q-45 -27 -106 -27q-60 0 -105 25q-17 10 -32 23q-12 10 -22 23q-25 30 -39 67q-19 50 -19 114q0 101 48 165q10 13 22 25q16 16 34 28q50 31 112 31q44 0 85 -17q15 -7 29 -16q11 -7 20 -14q15 -12 28 -30v134h-154l-1 61h155
v102h80v-102h51v-61h-51z" />
    <glyph glyph-name="Dcroat" unicode="&#x110;" horiz-adv-x="708" 
d="M658 326q-1 -18 -3 -36q-5 -55 -23 -102q-54 -144 -203 -179q-37 -8 -107 -8h-32q-21 -1 -33 -1h-179v341h-65v60h65v305h248q88 0 133 -15q91 -31 143 -112q57 -91 56 -232v-21zM557 422q-6 43 -20 77q-37 89 -128 114q-39 10 -108 10h-126v-222h168v-60h-168v-259h125
q90 0 132 17q129 50 130 250q0 40 -5 73z" />
    <glyph glyph-name="uni1EA1" unicode="&#x1ea1;" horiz-adv-x="500" 
d="M486 3q-27 -9 -51 -9h-7q-7 1 -13 2q-19 2 -30 10q-5 4 -10 10l-4 5l-1 2l-1 1q-8 12 -12 23l-2 9l-2 8l-4 -5l-6 -5q-6 -7 -12 -12q-16 -15 -33 -25q-47 -30 -106 -30q-21 0 -40 4q-7 1 -14 3q-5 1 -11 3q-95 32 -95 125q0 10 2 20q2 14 7 26q12 33 42 56q33 24 91 39
q45 10 100 14l72 5q0 26 -1 39q0 8 -1 14q-1 9 -3 17q-4 19 -13 34q-25 39 -87 39h-8q-5 0 -11 -1q-15 -2 -28 -6q-38 -14 -50 -50q-5 -15 -5 -42l-83 5q0 8 2 19q2 13 6 27q15 44 49 71q48 38 124 38h13q8 -1 17 -2q22 -2 44 -8q5 -1 9 -3l12 -4q16 -6 30 -15
q39 -25 54 -66q10 -28 10 -101v-169l1 -16v-5l1 -5q2 -7 5 -12q8 -14 29 -14q6 0 24 4v-67zM347 207l-1 14v9q-6 -1 -16 -3l-10 -1l-11 -2q-28 -4 -47 -7q-61 -11 -84 -21q-4 -1 -7 -3l-8 -4q-11 -6 -20 -14q-23 -21 -23 -51q0 -29 21 -48q24 -22 68 -22q20 0 40 5
q25 6 45 19q53 36 53 115v14zM217 -192v103h87v-103h-87z" />
    <glyph glyph-name="uni1EA3" unicode="&#x1ea3;" horiz-adv-x="500" 
d="M486 3q-27 -9 -51 -9h-7q-7 1 -13 2q-19 2 -30 10q-5 4 -10 10l-4 5l-1 2l-1 1q-8 12 -12 23l-2 9l-2 8l-4 -5l-6 -5q-6 -7 -12 -12q-16 -15 -33 -25q-47 -30 -106 -30q-21 0 -40 4q-7 1 -14 3q-5 1 -11 3q-95 32 -95 125q0 10 2 20q2 14 7 26q12 33 42 56q33 24 91 39
q45 10 100 14l72 5q0 26 -1 39q0 8 -1 14q-1 9 -3 17q-4 19 -13 34q-25 39 -87 39h-8q-5 0 -11 -1q-15 -2 -28 -6q-38 -14 -50 -50q-5 -15 -5 -42l-83 5q0 8 2 19q2 13 6 27q15 44 49 71q48 38 124 38h13q8 -1 17 -2q22 -2 44 -8q5 -1 9 -3l12 -4q16 -6 30 -15
q39 -25 54 -66q10 -28 10 -101v-169l1 -16v-5l1 -5q2 -7 5 -12q8 -14 29 -14q6 0 24 4v-67zM347 207l-1 14v9q-6 -1 -16 -3l-10 -1l-11 -2q-28 -4 -47 -7q-61 -11 -84 -21q-4 -1 -7 -3l-8 -4q-11 -6 -20 -14q-23 -21 -23 -51q0 -29 21 -48q24 -22 68 -22q20 0 40 5
q25 6 45 19q53 36 53 115v14zM216 554q5 14 15 27l8 10l9 9q20 21 20 38q0 31 -33 31q-14 0 -28 -11q-11 -9 -21 -24l-34 20q34 67 99 67q35 0 59 -21q24 -20 24 -51q0 -29 -26 -56l-11 -11l-12 -12q-14 -15 -22 -29z" />
    <glyph glyph-name="uni1EA5" unicode="&#x1ea5;" horiz-adv-x="500" 
d="M486 3q-27 -9 -51 -9h-7q-7 1 -13 2q-19 2 -30 10q-5 4 -10 10l-4 5l-1 2l-1 1q-8 12 -12 23l-2 9l-2 8l-4 -5l-6 -5q-6 -7 -12 -12q-16 -15 -33 -25q-47 -30 -106 -30q-21 0 -40 4q-7 1 -14 3q-5 1 -11 3q-95 32 -95 125q0 10 2 20q2 14 7 26q12 33 42 56q33 24 91 39
q45 10 100 14l72 5q0 26 -1 39q0 8 -1 14q-1 9 -3 17q-4 19 -13 34q-25 39 -87 39h-8q-5 0 -11 -1q-15 -2 -28 -6q-38 -14 -50 -50q-5 -15 -5 -42l-83 5q0 8 2 19q2 13 6 27q15 44 49 71q48 38 124 38h13q8 -1 17 -2q22 -2 44 -8q5 -1 9 -3l12 -4q16 -6 30 -15
q39 -25 54 -66q10 -28 10 -101v-169l1 -16v-5l1 -5q2 -7 5 -12q8 -14 29 -14q6 0 24 4v-67zM347 207l-1 14v9q-6 -1 -16 -3l-10 -1l-11 -2q-28 -4 -47 -7q-61 -11 -84 -21q-4 -1 -7 -3l-8 -4q-11 -6 -20 -14q-23 -21 -23 -51q0 -29 21 -48q24 -22 68 -22q20 0 40 5
q25 6 45 19q53 36 53 115v14zM317 523l-61 95l-59 -95h-70l94 151h67l104 -151h-75zM414 599h-41l41 144h86z" />
    <glyph glyph-name="uni1EA7" unicode="&#x1ea7;" horiz-adv-x="500" 
d="M486 3q-27 -9 -51 -9h-7q-7 1 -13 2q-19 2 -30 10q-5 4 -10 10l-4 5l-1 2l-1 1q-8 12 -12 23l-2 9l-2 8l-4 -5l-6 -5q-6 -7 -12 -12q-16 -15 -33 -25q-47 -30 -106 -30q-21 0 -40 4q-7 1 -14 3q-5 1 -11 3q-95 32 -95 125q0 10 2 20q2 14 7 26q12 33 42 56q33 24 91 39
q45 10 100 14l72 5q0 26 -1 39q0 8 -1 14q-1 9 -3 17q-4 19 -13 34q-25 39 -87 39h-8q-5 0 -11 -1q-15 -2 -28 -6q-38 -14 -50 -50q-5 -15 -5 -42l-83 5q0 8 2 19q2 13 6 27q15 44 49 71q48 38 124 38h13q8 -1 17 -2q22 -2 44 -8q5 -1 9 -3l12 -4q16 -6 30 -15
q39 -25 54 -66q10 -28 10 -101v-169l1 -16v-5l1 -5q2 -7 5 -12q8 -14 29 -14q6 0 24 4v-67zM347 207l-1 14v9q-6 -1 -16 -3l-10 -1l-11 -2q-28 -4 -47 -7q-61 -11 -84 -21q-4 -1 -7 -3l-8 -4q-11 -6 -20 -14q-23 -21 -23 -51q0 -29 21 -48q24 -22 68 -22q20 0 40 5
q25 6 45 19q53 36 53 115v14zM317 523l-61 95l-59 -95h-70l94 151h67l104 -151h-75zM388 632l-83 144h89l42 -144h-48z" />
    <glyph glyph-name="uni1EA9" unicode="&#x1ea9;" horiz-adv-x="500" 
d="M486 3q-27 -9 -51 -9h-7q-7 1 -13 2q-19 2 -30 10q-5 4 -10 10l-4 5l-1 2l-1 1q-8 12 -12 23l-2 9l-2 8l-4 -5l-6 -5q-6 -7 -12 -12q-16 -15 -33 -25q-47 -30 -106 -30q-21 0 -40 4q-7 1 -14 3q-5 1 -11 3q-95 32 -95 125q0 10 2 20q2 14 7 26q12 33 42 56q33 24 91 39
q45 10 100 14l72 5q0 26 -1 39q0 8 -1 14q-1 9 -3 17q-4 19 -13 34q-25 39 -87 39h-8q-5 0 -11 -1q-15 -2 -28 -6q-38 -14 -50 -50q-5 -15 -5 -42l-83 5q0 8 2 19q2 13 6 27q15 44 49 71q48 38 124 38h13q8 -1 17 -2q22 -2 44 -8q5 -1 9 -3l12 -4q16 -6 30 -15
q39 -25 54 -66q10 -28 10 -101v-169l1 -16v-5l1 -5q2 -7 5 -12q8 -14 29 -14q6 0 24 4v-67zM347 207l-1 14v9q-6 -1 -16 -3l-10 -1l-11 -2q-28 -4 -47 -7q-61 -11 -84 -21q-4 -1 -7 -3l-8 -4q-11 -6 -20 -14q-23 -21 -23 -51q0 -29 21 -48q24 -22 68 -22q20 0 40 5
q25 6 45 19q53 36 53 115v14zM317 523l-61 95l-59 -95h-70l94 151h67l104 -151h-75zM368 612q5 14 15 27l8 10l9 9q20 21 20 38q0 31 -33 31q-14 0 -28 -11q-11 -9 -21 -24l-34 20q34 67 99 67q35 0 59 -21q24 -20 24 -51q0 -29 -26 -56l-11 -11l-12 -12q-14 -15 -22 -29z
" />
    <glyph glyph-name="uni1EAB" unicode="&#x1eab;" horiz-adv-x="500" 
d="M486 3q-27 -9 -51 -9h-7q-7 1 -13 2q-19 2 -30 10q-5 4 -10 10l-4 5l-1 2l-1 1q-8 12 -12 23l-2 9l-2 8l-4 -5l-6 -5q-6 -7 -12 -12q-16 -15 -33 -25q-47 -30 -106 -30q-21 0 -40 4q-7 1 -14 3q-5 1 -11 3q-95 32 -95 125q0 10 2 20q2 14 7 26q12 33 42 56q33 24 91 39
q45 10 100 14l72 5q0 26 -1 39q0 8 -1 14q-1 9 -3 17q-4 19 -13 34q-25 39 -87 39h-8q-5 0 -11 -1q-15 -2 -28 -6q-38 -14 -50 -50q-5 -15 -5 -42l-83 5q0 8 2 19q2 13 6 27q15 44 49 71q48 38 124 38h13q8 -1 17 -2q22 -2 44 -8q5 -1 9 -3l12 -4q16 -6 30 -15
q39 -25 54 -66q10 -28 10 -101v-169l1 -16v-5l1 -5q2 -7 5 -12q8 -14 29 -14q6 0 24 4v-67zM347 207l-1 14v9q-6 -1 -16 -3l-10 -1l-11 -2q-28 -4 -47 -7q-61 -11 -84 -21q-4 -1 -7 -3l-8 -4q-11 -6 -20 -14q-23 -21 -23 -51q0 -29 21 -48q24 -22 68 -22q20 0 40 5
q25 6 45 19q53 36 53 115v14zM317 523l-61 95l-59 -95h-70l94 151h67l104 -151h-75zM405 800v-2l-1 -3q0 -6 -2 -12q-4 -19 -11 -35q-23 -49 -68 -48q-22 0 -86 25q-29 10 -41 10q-17 0 -26 -13q-4 -5 -5 -11q-2 -4 -2 -7h-49q0 2 1 7q0 6 2 13q4 18 12 34q23 46 71 45
q20 0 45 -9l22 -8l22 -8l4 -2q3 -1 8 -3q14 -4 24 -4q17 0 26 13q3 4 5 10q1 5 1 8h48z" />
    <glyph glyph-name="uni1EAD" unicode="&#x1ead;" horiz-adv-x="500" 
d="M486 3q-27 -9 -51 -9h-7q-7 1 -13 2q-19 2 -30 10q-5 4 -10 10l-4 5l-1 2l-1 1q-8 12 -12 23l-2 9l-2 8l-4 -5l-6 -5q-6 -7 -12 -12q-16 -15 -33 -25q-47 -30 -106 -30q-21 0 -40 4q-7 1 -14 3q-5 1 -11 3q-95 32 -95 125q0 10 2 20q2 14 7 26q12 33 42 56q33 24 91 39
q45 10 100 14l72 5q0 26 -1 39q0 8 -1 14q-1 9 -3 17q-4 19 -13 34q-25 39 -87 39h-8q-5 0 -11 -1q-15 -2 -28 -6q-38 -14 -50 -50q-5 -15 -5 -42l-83 5q0 8 2 19q2 13 6 27q15 44 49 71q48 38 124 38h13q8 -1 17 -2q22 -2 44 -8q5 -1 9 -3l12 -4q16 -6 30 -15
q39 -25 54 -66q10 -28 10 -101v-169l1 -16v-5l1 -5q2 -7 5 -12q8 -14 29 -14q6 0 24 4v-67zM347 207l-1 14v9q-6 -1 -16 -3l-10 -1l-11 -2q-28 -4 -47 -7q-61 -11 -84 -21q-4 -1 -7 -3l-8 -4q-11 -6 -20 -14q-23 -21 -23 -51q0 -29 21 -48q24 -22 68 -22q20 0 40 5
q25 6 45 19q53 36 53 115v14zM317 523l-61 95l-59 -95h-70l94 151h67l104 -151h-75zM217 -192v103h87v-103h-87z" />
    <glyph glyph-name="uni1EAF" unicode="&#x1eaf;" horiz-adv-x="500" 
d="M486 3q-27 -9 -51 -9h-7q-7 1 -13 2q-19 2 -30 10q-5 4 -10 10l-4 5l-1 2l-1 1q-8 12 -12 23l-2 9l-2 8l-4 -5l-6 -5q-6 -7 -12 -12q-16 -15 -33 -25q-47 -30 -106 -30q-21 0 -40 4q-7 1 -14 3q-5 1 -11 3q-95 32 -95 125q0 10 2 20q2 14 7 26q12 33 42 56q33 24 91 39
q45 10 100 14l72 5q0 26 -1 39q0 8 -1 14q-1 9 -3 17q-4 19 -13 34q-25 39 -87 39h-8q-5 0 -11 -1q-15 -2 -28 -6q-38 -14 -50 -50q-5 -15 -5 -42l-83 5q0 8 2 19q2 13 6 27q15 44 49 71q48 38 124 38h13q8 -1 17 -2q22 -2 44 -8q5 -1 9 -3l12 -4q16 -6 30 -15
q39 -25 54 -66q10 -28 10 -101v-169l1 -16v-5l1 -5q2 -7 5 -12q8 -14 29 -14q6 0 24 4v-67zM347 207l-1 14v9q-6 -1 -16 -3l-10 -1l-11 -2q-28 -4 -47 -7q-61 -11 -84 -21q-4 -1 -7 -3l-8 -4q-11 -6 -20 -14q-23 -21 -23 -51q0 -29 21 -48q24 -22 68 -22q20 0 40 5
q25 6 45 19q53 36 53 115v14zM374 637q0 -43 -34 -75q-35 -32 -80 -32q-43 0 -77 27q-37 29 -38 80h51q14 -40 64 -40q24 0 40 11t21 29h53zM258 673h-41l41 144h86z" />
    <glyph glyph-name="uni1EB1" unicode="&#x1eb1;" horiz-adv-x="500" 
d="M486 3q-27 -9 -51 -9h-7q-7 1 -13 2q-19 2 -30 10q-5 4 -10 10l-4 5l-1 2l-1 1q-8 12 -12 23l-2 9l-2 8l-4 -5l-6 -5q-6 -7 -12 -12q-16 -15 -33 -25q-47 -30 -106 -30q-21 0 -40 4q-7 1 -14 3q-5 1 -11 3q-95 32 -95 125q0 10 2 20q2 14 7 26q12 33 42 56q33 24 91 39
q45 10 100 14l72 5q0 26 -1 39q0 8 -1 14q-1 9 -3 17q-4 19 -13 34q-25 39 -87 39h-8q-5 0 -11 -1q-15 -2 -28 -6q-38 -14 -50 -50q-5 -15 -5 -42l-83 5q0 8 2 19q2 13 6 27q15 44 49 71q48 38 124 38h13q8 -1 17 -2q22 -2 44 -8q5 -1 9 -3l12 -4q16 -6 30 -15
q39 -25 54 -66q10 -28 10 -101v-169l1 -16v-5l1 -5q2 -7 5 -12q8 -14 29 -14q6 0 24 4v-67zM347 207l-1 14v9q-6 -1 -16 -3l-10 -1l-11 -2q-28 -4 -47 -7q-61 -11 -84 -21q-4 -1 -7 -3l-8 -4q-11 -6 -20 -14q-23 -21 -23 -51q0 -29 21 -48q24 -22 68 -22q20 0 40 5
q25 6 45 19q53 36 53 115v14zM374 637q0 -43 -34 -75q-35 -32 -80 -32q-43 0 -77 27q-37 29 -38 80h51q14 -40 64 -40q24 0 40 11t21 29h53zM254 673l-83 144h89l42 -144h-48z" />
    <glyph glyph-name="uni1EB3" unicode="&#x1eb3;" horiz-adv-x="500" 
d="M486 3q-27 -9 -51 -9h-7q-7 1 -13 2q-19 2 -30 10q-5 4 -10 10l-4 5l-1 2l-1 1q-8 12 -12 23l-2 9l-2 8l-4 -5l-6 -5q-6 -7 -12 -12q-16 -15 -33 -25q-47 -30 -106 -30q-21 0 -40 4q-7 1 -14 3q-5 1 -11 3q-95 32 -95 125q0 10 2 20q2 14 7 26q12 33 42 56q33 24 91 39
q45 10 100 14l72 5q0 26 -1 39q0 8 -1 14q-1 9 -3 17q-4 19 -13 34q-25 39 -87 39h-8q-5 0 -11 -1q-15 -2 -28 -6q-38 -14 -50 -50q-5 -15 -5 -42l-83 5q0 8 2 19q2 13 6 27q15 44 49 71q48 38 124 38h13q8 -1 17 -2q22 -2 44 -8q5 -1 9 -3l12 -4q16 -6 30 -15
q39 -25 54 -66q10 -28 10 -101v-169l1 -16v-5l1 -5q2 -7 5 -12q8 -14 29 -14q6 0 24 4v-67zM347 207l-1 14v9q-6 -1 -16 -3l-10 -1l-11 -2q-28 -4 -47 -7q-61 -11 -84 -21q-4 -1 -7 -3l-8 -4q-11 -6 -20 -14q-23 -21 -23 -51q0 -29 21 -48q24 -22 68 -22q20 0 40 5
q25 6 45 19q53 36 53 115v14zM374 637q0 -43 -34 -75q-35 -32 -80 -32q-43 0 -77 27q-37 29 -38 80h51q14 -40 64 -40q24 0 40 11t21 29h53zM232 650q5 14 15 27l8 10l9 9q20 21 20 38q0 31 -33 31q-14 0 -28 -11q-11 -9 -21 -24l-34 20q34 67 99 67q35 0 59 -21
q24 -20 24 -51q0 -29 -26 -56l-11 -11l-12 -12q-14 -15 -22 -29z" />
    <glyph glyph-name="uni1EB5" unicode="&#x1eb5;" horiz-adv-x="500" 
d="M486 3q-27 -9 -51 -9h-7q-7 1 -13 2q-19 2 -30 10q-5 4 -10 10l-4 5l-1 2l-1 1q-8 12 -12 23l-2 9l-2 8l-4 -5l-6 -5q-6 -7 -12 -12q-16 -15 -33 -25q-47 -30 -106 -30q-21 0 -40 4q-7 1 -14 3q-5 1 -11 3q-95 32 -95 125q0 10 2 20q2 14 7 26q12 33 42 56q33 24 91 39
q45 10 100 14l72 5q0 26 -1 39q0 8 -1 14q-1 9 -3 17q-4 19 -13 34q-25 39 -87 39h-8q-5 0 -11 -1q-15 -2 -28 -6q-38 -14 -50 -50q-5 -15 -5 -42l-83 5q0 8 2 19q2 13 6 27q15 44 49 71q48 38 124 38h13q8 -1 17 -2q22 -2 44 -8q5 -1 9 -3l12 -4q16 -6 30 -15
q39 -25 54 -66q10 -28 10 -101v-169l1 -16v-5l1 -5q2 -7 5 -12q8 -14 29 -14q6 0 24 4v-67zM347 207l-1 14v9q-6 -1 -16 -3l-10 -1l-11 -2q-28 -4 -47 -7q-61 -11 -84 -21q-4 -1 -7 -3l-8 -4q-11 -6 -20 -14q-23 -21 -23 -51q0 -29 21 -48q24 -22 68 -22q20 0 40 5
q25 6 45 19q53 36 53 115v14zM374 637q0 -43 -34 -75q-35 -32 -80 -32q-43 0 -77 27q-37 29 -38 80h51q14 -40 64 -40q24 0 40 11t21 29h53zM405 763v-2l-1 -3q0 -6 -2 -12q-4 -19 -11 -35q-23 -49 -68 -48q-22 0 -86 25q-29 10 -41 10q-17 0 -26 -13q-4 -5 -5 -11
q-2 -4 -2 -7h-49q0 2 1 7q0 6 2 13q4 18 12 34q23 46 71 45q20 0 45 -9l22 -8l22 -8l4 -2q3 -1 8 -3q14 -4 24 -4q17 0 26 13q3 4 5 10q1 5 1 8h48z" />
    <glyph glyph-name="uni1EB7" unicode="&#x1eb7;" horiz-adv-x="500" 
d="M486 3q-27 -9 -51 -9h-7q-7 1 -13 2q-19 2 -30 10q-5 4 -10 10l-4 5l-1 2l-1 1q-8 12 -12 23l-2 9l-2 8l-4 -5l-6 -5q-6 -7 -12 -12q-16 -15 -33 -25q-47 -30 -106 -30q-21 0 -40 4q-7 1 -14 3q-5 1 -11 3q-95 32 -95 125q0 10 2 20q2 14 7 26q12 33 42 56q33 24 91 39
q45 10 100 14l72 5q0 26 -1 39q0 8 -1 14q-1 9 -3 17q-4 19 -13 34q-25 39 -87 39h-8q-5 0 -11 -1q-15 -2 -28 -6q-38 -14 -50 -50q-5 -15 -5 -42l-83 5q0 8 2 19q2 13 6 27q15 44 49 71q48 38 124 38h13q8 -1 17 -2q22 -2 44 -8q5 -1 9 -3l12 -4q16 -6 30 -15
q39 -25 54 -66q10 -28 10 -101v-169l1 -16v-5l1 -5q2 -7 5 -12q8 -14 29 -14q6 0 24 4v-67zM347 207l-1 14v9q-6 -1 -16 -3l-10 -1l-11 -2q-28 -4 -47 -7q-61 -11 -84 -21q-4 -1 -7 -3l-8 -4q-11 -6 -20 -14q-23 -21 -23 -51q0 -29 21 -48q24 -22 68 -22q20 0 40 5
q25 6 45 19q53 36 53 115v14zM352 637q0 -43 -34 -75q-35 -32 -80 -32q-43 0 -77 27q-37 29 -38 80h51q14 -40 64 -40q24 0 40 11t21 29h53zM217 -192v103h87v-103h-87z" />
    <glyph glyph-name="uni1EB9" unicode="&#x1eb9;" 
d="M481 139l-2 -6q-3 -8 -6 -15q-10 -22 -21 -40q-11 -16 -24 -30q-16 -17 -36 -30q-52 -33 -122 -33q-33 0 -61 7q-20 4 -38 12q-54 23 -88 72q-44 65 -44 164q0 59 18 104q12 33 35 61q67 81 175 81q38 0 74 -13q13 -5 26 -11q17 -9 32 -21q40 -31 61 -80q23 -55 23 -140
h-358q-1 -57 23 -100q18 -33 45 -52q36 -24 85 -24q29 0 50 10q15 6 29 19q5 4 12 11q8 10 14 20q7 13 13 31l2 6l2 6q2 6 2 7l81 -11zM396 279q-2 29 -7 46q-12 44 -47 71q-35 28 -81 28q-60 0 -96 -44q-32 -39 -38 -101h269zM219 -192v103h87v-103h-87z" />
    <glyph glyph-name="uni1EBB" unicode="&#x1ebb;" 
d="M481 139l-2 -6q-3 -8 -6 -15q-10 -22 -21 -40q-11 -16 -24 -30q-16 -17 -36 -30q-52 -33 -122 -33q-33 0 -61 7q-20 4 -38 12q-54 23 -88 72q-44 65 -44 164q0 59 18 104q12 33 35 61q67 81 175 81q38 0 74 -13q13 -5 26 -11q17 -9 32 -21q40 -31 61 -80q23 -55 23 -140
h-358q-1 -57 23 -100q18 -33 45 -52q36 -24 85 -24q29 0 50 10q15 6 29 19q5 4 12 11q8 10 14 20q7 13 13 31l2 6l2 6q2 6 2 7l81 -11zM396 279q-2 29 -7 46q-12 44 -47 71q-35 28 -81 28q-60 0 -96 -44q-32 -39 -38 -101h269zM234 554q5 14 15 27l8 10l9 9q20 21 20 38
q0 31 -33 31q-14 0 -28 -11q-11 -9 -21 -24l-34 20q34 67 99 67q35 0 59 -21q24 -20 24 -51q0 -29 -26 -56l-11 -11l-12 -12q-14 -15 -22 -29z" />
    <glyph glyph-name="uni1EBD" unicode="&#x1ebd;" 
d="M481 139l-2 -6q-3 -8 -6 -15q-10 -22 -21 -40q-11 -16 -24 -30q-16 -17 -36 -30q-52 -33 -122 -33q-33 0 -61 7q-20 4 -38 12q-54 23 -88 72q-44 65 -44 164q0 59 18 104q12 33 35 61q67 81 175 81q38 0 74 -13q13 -5 26 -11q17 -9 32 -21q40 -31 61 -80q23 -55 23 -140
h-358q-1 -57 23 -100q18 -33 45 -52q36 -24 85 -24q29 0 50 10q15 6 29 19q5 4 12 11q8 10 14 20q7 13 13 31l2 6l2 6q2 6 2 7l81 -11zM396 279q-2 29 -7 46q-12 44 -47 71q-35 28 -81 28q-60 0 -96 -44q-32 -39 -38 -101h269zM407 635v-2l-1 -3q0 -6 -2 -12q-4 -19 -11 -35
q-23 -49 -68 -48q-22 0 -86 25q-29 10 -41 10q-17 0 -26 -13q-4 -5 -5 -11q-2 -4 -2 -7h-49q0 2 1 7q0 6 2 13q4 18 12 34q23 46 71 45q20 0 45 -9l22 -8l22 -8l4 -2q3 -1 8 -3q14 -4 24 -4q17 0 26 13q3 4 5 10q1 5 1 8h48z" />
    <glyph glyph-name="uni1EBF" unicode="&#x1ebf;" 
d="M481 139l-2 -6q-3 -8 -6 -15q-10 -22 -21 -40q-11 -16 -24 -30q-16 -17 -36 -30q-52 -33 -122 -33q-33 0 -61 7q-20 4 -38 12q-54 23 -88 72q-44 65 -44 164q0 59 18 104q12 33 35 61q67 81 175 81q38 0 74 -13q13 -5 26 -11q17 -9 32 -21q40 -31 61 -80q23 -55 23 -140
h-358q-1 -57 23 -100q18 -33 45 -52q36 -24 85 -24q29 0 50 10q15 6 29 19q5 4 12 11q8 10 14 20q7 13 13 31l2 6l2 6q2 6 2 7l81 -11zM396 279q-2 29 -7 46q-12 44 -47 71q-35 28 -81 28q-60 0 -96 -44q-32 -39 -38 -101h269zM319 523l-61 95l-59 -95h-70l94 151h67
l104 -151h-75zM408 642h-41l41 144h86z" />
    <glyph glyph-name="uni1EC1" unicode="&#x1ec1;" 
d="M481 139l-2 -6q-3 -8 -6 -15q-10 -22 -21 -40q-11 -16 -24 -30q-16 -17 -36 -30q-52 -33 -122 -33q-33 0 -61 7q-20 4 -38 12q-54 23 -88 72q-44 65 -44 164q0 59 18 104q12 33 35 61q67 81 175 81q38 0 74 -13q13 -5 26 -11q17 -9 32 -21q40 -31 61 -80q23 -55 23 -140
h-358q-1 -57 23 -100q18 -33 45 -52q36 -24 85 -24q29 0 50 10q15 6 29 19q5 4 12 11q8 10 14 20q7 13 13 31l2 6l2 6q2 6 2 7l81 -11zM396 279q-2 29 -7 46q-12 44 -47 71q-35 28 -81 28q-60 0 -96 -44q-32 -39 -38 -101h269zM319 523l-61 95l-59 -95h-70l94 151h67
l104 -151h-75zM379 636l-83 144h89l42 -144h-48z" />
    <glyph glyph-name="uni1EC3" unicode="&#x1ec3;" 
d="M481 139l-2 -6q-3 -8 -6 -15q-10 -22 -21 -40q-11 -16 -24 -30q-16 -17 -36 -30q-52 -33 -122 -33q-33 0 -61 7q-20 4 -38 12q-54 23 -88 72q-44 65 -44 164q0 59 18 104q12 33 35 61q67 81 175 81q38 0 74 -13q13 -5 26 -11q17 -9 32 -21q40 -31 61 -80q23 -55 23 -140
h-358q-1 -57 23 -100q18 -33 45 -52q36 -24 85 -24q29 0 50 10q15 6 29 19q5 4 12 11q8 10 14 20q7 13 13 31l2 6l2 6q2 6 2 7l81 -11zM396 279q-2 29 -7 46q-12 44 -47 71q-35 28 -81 28q-60 0 -96 -44q-32 -39 -38 -101h269zM319 523l-61 95l-59 -95h-70l94 151h67
l104 -151h-75zM369 612q5 14 15 27l8 10l9 9q20 21 20 38q0 31 -33 31q-14 0 -28 -11q-11 -9 -21 -24l-34 20q34 67 99 67q35 0 59 -21q24 -20 24 -51q0 -29 -26 -56l-11 -11l-12 -12q-14 -15 -22 -29z" />
    <glyph glyph-name="uni1EC5" unicode="&#x1ec5;" 
d="M481 139l-2 -6q-3 -8 -6 -15q-10 -22 -21 -40q-11 -16 -24 -30q-16 -17 -36 -30q-52 -33 -122 -33q-33 0 -61 7q-20 4 -38 12q-54 23 -88 72q-44 65 -44 164q0 59 18 104q12 33 35 61q67 81 175 81q38 0 74 -13q13 -5 26 -11q17 -9 32 -21q40 -31 61 -80q23 -55 23 -140
h-358q-1 -57 23 -100q18 -33 45 -52q36 -24 85 -24q29 0 50 10q15 6 29 19q5 4 12 11q8 10 14 20q7 13 13 31l2 6l2 6q2 6 2 7l81 -11zM396 279q-2 29 -7 46q-12 44 -47 71q-35 28 -81 28q-60 0 -96 -44q-32 -39 -38 -101h269zM319 523l-61 95l-59 -95h-70l94 151h67
l104 -151h-75zM407 800v-2l-1 -3q0 -6 -2 -12q-4 -19 -11 -35q-23 -49 -68 -48q-22 0 -86 25q-29 10 -41 10q-17 0 -26 -13q-4 -5 -5 -11q-2 -4 -2 -7h-49q0 2 1 7q0 6 2 13q4 18 12 34q23 46 71 45q20 0 45 -9l22 -8l22 -8l4 -2q3 -1 8 -3q14 -4 24 -4q17 0 26 13q3 4 5 10
q1 5 1 8h48z" />
    <glyph glyph-name="uni1EC7" unicode="&#x1ec7;" 
d="M481 139l-2 -6q-3 -8 -6 -15q-10 -22 -21 -40q-11 -16 -24 -30q-16 -17 -36 -30q-52 -33 -122 -33q-33 0 -61 7q-20 4 -38 12q-54 23 -88 72q-44 65 -44 164q0 59 18 104q12 33 35 61q67 81 175 81q38 0 74 -13q13 -5 26 -11q17 -9 32 -21q40 -31 61 -80q23 -55 23 -140
h-358q-1 -57 23 -100q18 -33 45 -52q36 -24 85 -24q29 0 50 10q15 6 29 19q5 4 12 11q8 10 14 20q7 13 13 31l2 6l2 6q2 6 2 7l81 -11zM396 279q-2 29 -7 46q-12 44 -47 71q-35 28 -81 28q-60 0 -96 -44q-32 -39 -38 -101h269zM319 523l-61 95l-59 -95h-70l94 151h67
l104 -151h-75zM219 -192v103h87v-103h-87z" />
    <glyph glyph-name="uni1EC9" unicode="&#x1ec9;" horiz-adv-x="208" 
d="M67 0v471h77v-471h-77zM73 543q5 14 15 27l8 10l9 9q20 21 20 38q0 31 -33 31q-14 0 -28 -11q-11 -9 -21 -24l-34 20q34 67 99 67q35 0 59 -21q24 -20 24 -51q0 -29 -26 -56l-11 -11l-12 -12q-14 -15 -22 -29z" />
    <glyph glyph-name="uni1ECB" unicode="&#x1ecb;" horiz-adv-x="208" 
d="M69 614v92h77v-92h-77zM69 0v471h77v-471h-77zM66 -192v103h87v-103h-87z" />
    <glyph glyph-name="uni1ECD" unicode="&#x1ecd;" horiz-adv-x="542" 
d="M502 223q-1 -8 -1 -17q-2 -21 -7 -42q-13 -58 -47 -100q-12 -14 -25 -25q-16 -15 -35 -26q-50 -28 -115 -28h-13q-8 1 -16 1q-22 3 -42 8q-55 15 -92 53q-29 29 -46 67q-23 52 -23 119q0 101 54 171q64 82 181 82q52 0 94 -18q53 -22 88 -71q46 -66 45 -162v-12zM416 254
q0 15 -2 30q-6 42 -22 72q-12 22 -29 36q-22 19 -50 26q-10 2 -21 3l-8 1h-7q-96 0 -132 -86q-12 -28 -16 -65l-2 -25v-16q0 -15 2 -30q0 -5 1 -11l1 -4v-3q1 -8 3 -16q2 -10 5 -19q9 -25 22 -45q39 -54 111 -53q11 0 22 2q15 2 29 7q38 15 61 50q19 29 27 77q3 16 4 33
q1 6 1 11v25zM229 -192v103h87v-103h-87z" />
    <glyph glyph-name="ohorn" unicode="&#x1a1;" horiz-adv-x="542" 
d="M416 254q0 15 -2 30q-6 42 -22 72q-12 22 -29 36q-22 19 -50 26q-10 2 -21 3l-8 1h-7q-96 0 -132 -86q-12 -28 -16 -65l-2 -25v-16q0 -15 2 -30q0 -5 1 -11l1 -4v-3q1 -8 3 -16q2 -10 5 -19q9 -25 22 -45q39 -54 111 -53q11 0 22 2q15 2 29 7q38 15 61 50q19 29 27 77
q3 16 4 33q1 6 1 11v25zM427 431q16 -15 30 -34q46 -66 45 -162v-12q-1 -8 -1 -17q-2 -21 -7 -42q-13 -58 -47 -100q-12 -14 -25 -25q-16 -15 -35 -26q-50 -28 -115 -28h-13q-8 1 -16 1q-22 3 -42 8q-55 15 -92 53q-29 29 -46 67q-23 52 -23 119q0 101 54 171q64 82 181 82
q51 0 92 -17q60 11 60 78h63q0 -56 -30 -90q-14 -16 -33 -26z" />
    <glyph glyph-name="uni1ECF" unicode="&#x1ecf;" horiz-adv-x="542" 
d="M502 223q-1 -8 -1 -17q-2 -21 -7 -42q-13 -58 -47 -100q-12 -14 -25 -25q-16 -15 -35 -26q-50 -28 -115 -28h-13q-8 1 -16 1q-22 3 -42 8q-55 15 -92 53q-29 29 -46 67q-23 52 -23 119q0 101 54 171q64 82 181 82q52 0 94 -18q53 -22 88 -71q46 -66 45 -162v-12zM416 254
q0 15 -2 30q-6 42 -22 72q-12 22 -29 36q-22 19 -50 26q-10 2 -21 3l-8 1h-7q-96 0 -132 -86q-12 -28 -16 -65l-2 -25v-16q0 -15 2 -30q0 -5 1 -11l1 -4v-3q1 -8 3 -16q2 -10 5 -19q9 -25 22 -45q39 -54 111 -53q11 0 22 2q15 2 29 7q38 15 61 50q19 29 27 77q3 16 4 33
q1 6 1 11v25zM244 554q5 14 15 27l8 10l9 9q20 21 20 38q0 31 -33 31q-14 0 -28 -11q-11 -9 -21 -24l-34 20q34 67 99 67q35 0 59 -21q24 -20 24 -51q0 -29 -26 -56l-11 -11l-12 -12q-14 -15 -22 -29z" />
    <glyph glyph-name="uni1ED1" unicode="&#x1ed1;" horiz-adv-x="542" 
d="M502 223q-1 -8 -1 -17q-2 -21 -7 -42q-13 -58 -47 -100q-12 -14 -25 -25q-16 -15 -35 -26q-50 -28 -115 -28h-13q-8 1 -16 1q-22 3 -42 8q-55 15 -92 53q-29 29 -46 67q-23 52 -23 119q0 101 54 171q64 82 181 82q52 0 94 -18q53 -22 88 -71q46 -66 45 -162v-12zM416 254
q0 15 -2 30q-6 42 -22 72q-12 22 -29 36q-22 19 -50 26q-10 2 -21 3l-8 1h-7q-96 0 -132 -86q-12 -28 -16 -65l-2 -25v-16q0 -15 2 -30q0 -5 1 -11l1 -4v-3q1 -8 3 -16q2 -10 5 -19q9 -25 22 -45q39 -54 111 -53q11 0 22 2q15 2 29 7q38 15 61 50q19 29 27 77q3 16 4 33
q1 6 1 11v25zM329 523l-61 95l-59 -95h-70l94 151h67l104 -151h-75zM428 599h-41l41 144h86z" />
    <glyph glyph-name="uni1ED3" unicode="&#x1ed3;" horiz-adv-x="542" 
d="M502 223q-1 -8 -1 -17q-2 -21 -7 -42q-13 -58 -47 -100q-12 -14 -25 -25q-16 -15 -35 -26q-50 -28 -115 -28h-13q-8 1 -16 1q-22 3 -42 8q-55 15 -92 53q-29 29 -46 67q-23 52 -23 119q0 101 54 171q64 82 181 82q52 0 94 -18q53 -22 88 -71q46 -66 45 -162v-12zM416 254
q0 15 -2 30q-6 42 -22 72q-12 22 -29 36q-22 19 -50 26q-10 2 -21 3l-8 1h-7q-96 0 -132 -86q-12 -28 -16 -65l-2 -25v-16q0 -15 2 -30q0 -5 1 -11l1 -4v-3q1 -8 3 -16q2 -10 5 -19q9 -25 22 -45q39 -54 111 -53q11 0 22 2q15 2 29 7q38 15 61 50q19 29 27 77q3 16 4 33
q1 6 1 11v25zM329 523l-61 95l-59 -95h-70l94 151h67l104 -151h-75zM397 651l-83 144h89l42 -144h-48z" />
    <glyph glyph-name="uni1ED5" unicode="&#x1ed5;" horiz-adv-x="542" 
d="M502 223q-1 -8 -1 -17q-2 -21 -7 -42q-13 -58 -47 -100q-12 -14 -25 -25q-16 -15 -35 -26q-50 -28 -115 -28h-13q-8 1 -16 1q-22 3 -42 8q-55 15 -92 53q-29 29 -46 67q-23 52 -23 119q0 101 54 171q64 82 181 82q52 0 94 -18q53 -22 88 -71q46 -66 45 -162v-12zM416 254
q0 15 -2 30q-6 42 -22 72q-12 22 -29 36q-22 19 -50 26q-10 2 -21 3l-8 1h-7q-96 0 -132 -86q-12 -28 -16 -65l-2 -25v-16q0 -15 2 -30q0 -5 1 -11l1 -4v-3q1 -8 3 -16q2 -10 5 -19q9 -25 22 -45q39 -54 111 -53q11 0 22 2q15 2 29 7q38 15 61 50q19 29 27 77q3 16 4 33
q1 6 1 11v25zM329 523l-61 95l-59 -95h-70l94 151h67l104 -151h-75zM381 612q5 14 15 27l8 10l9 9q20 21 20 38q0 31 -33 31q-14 0 -28 -11q-11 -9 -21 -24l-34 20q34 67 99 67q35 0 59 -21q24 -20 24 -51q0 -29 -26 -56l-11 -11l-12 -12q-14 -15 -22 -29z" />
    <glyph glyph-name="uni1ED7" unicode="&#x1ed7;" horiz-adv-x="542" 
d="M502 223q-1 -8 -1 -17q-2 -21 -7 -42q-13 -58 -47 -100q-12 -14 -25 -25q-16 -15 -35 -26q-50 -28 -115 -28h-13q-8 1 -16 1q-22 3 -42 8q-55 15 -92 53q-29 29 -46 67q-23 52 -23 119q0 101 54 171q64 82 181 82q52 0 94 -18q53 -22 88 -71q46 -66 45 -162v-12zM416 254
q0 15 -2 30q-6 42 -22 72q-12 22 -29 36q-22 19 -50 26q-10 2 -21 3l-8 1h-7q-96 0 -132 -86q-12 -28 -16 -65l-2 -25v-16q0 -15 2 -30q0 -5 1 -11l1 -4v-3q1 -8 3 -16q2 -10 5 -19q9 -25 22 -45q39 -54 111 -53q11 0 22 2q15 2 29 7q38 15 61 50q19 29 27 77q3 16 4 33
q1 6 1 11v25zM329 523l-61 95l-59 -95h-70l94 151h67l104 -151h-75zM417 800v-2l-1 -3q0 -6 -2 -12q-4 -19 -11 -35q-23 -49 -68 -48q-22 0 -86 25q-29 10 -41 10q-17 0 -26 -13q-4 -5 -5 -11q-2 -4 -2 -7h-49q0 2 1 7q0 6 2 13q4 18 12 34q23 46 71 45q20 0 45 -9l22 -8
l22 -8l4 -2q3 -1 8 -3q14 -4 24 -4q17 0 26 13q3 4 5 10q1 5 1 8h48z" />
    <glyph glyph-name="uni1EDD" unicode="&#x1edd;" horiz-adv-x="542" 
d="M416 254q0 15 -2 30q-6 42 -22 72q-12 22 -29 36q-22 19 -50 26q-10 2 -21 3l-8 1h-7q-96 0 -132 -86q-12 -28 -16 -65l-2 -25v-16q0 -15 2 -30q0 -5 1 -11l1 -4v-3q1 -8 3 -16q2 -10 5 -19q9 -25 22 -45q39 -54 111 -53q11 0 22 2q15 2 29 7q38 15 61 50q19 29 27 77
q3 16 4 33q1 6 1 11v25zM427 431q16 -15 30 -34q46 -66 45 -162v-12q-1 -8 -1 -17q-2 -21 -7 -42q-13 -58 -47 -100q-12 -14 -25 -25q-16 -15 -35 -26q-50 -28 -115 -28h-13q-8 1 -16 1q-22 3 -42 8q-55 15 -92 53q-29 29 -46 67q-23 52 -23 119q0 101 54 171q64 82 181 82
q51 0 92 -17q60 11 60 78h63q0 -56 -30 -90q-14 -16 -33 -26zM257 545l-83 144h89l42 -144h-48z" />
    <glyph glyph-name="uni1ED9" unicode="&#x1ed9;" horiz-adv-x="542" 
d="M502 223q-1 -8 -1 -17q-2 -21 -7 -42q-13 -58 -47 -100q-12 -14 -25 -25q-16 -15 -35 -26q-50 -28 -115 -28h-13q-8 1 -16 1q-22 3 -42 8q-55 15 -92 53q-29 29 -46 67q-23 52 -23 119q0 101 54 171q64 82 181 82q52 0 94 -18q53 -22 88 -71q46 -66 45 -162v-12zM416 254
q0 15 -2 30q-6 42 -22 72q-12 22 -29 36q-22 19 -50 26q-10 2 -21 3l-8 1h-7q-96 0 -132 -86q-12 -28 -16 -65l-2 -25v-16q0 -15 2 -30q0 -5 1 -11l1 -4v-3q1 -8 3 -16q2 -10 5 -19q9 -25 22 -45q39 -54 111 -53q11 0 22 2q15 2 29 7q38 15 61 50q19 29 27 77q3 16 4 33
q1 6 1 11v25zM329 523l-61 95l-59 -95h-70l94 151h67l104 -151h-75zM229 -192v103h87v-103h-87z" />
    <glyph glyph-name="uni1EDB" unicode="&#x1edb;" horiz-adv-x="542" 
d="M416 254q0 15 -2 30q-6 42 -22 72q-12 22 -29 36q-22 19 -50 26q-10 2 -21 3l-8 1h-7q-96 0 -132 -86q-12 -28 -16 -65l-2 -25v-16q0 -15 2 -30q0 -5 1 -11l1 -4v-3q1 -8 3 -16q2 -10 5 -19q9 -25 22 -45q39 -54 111 -53q11 0 22 2q15 2 29 7q38 15 61 50q19 29 27 77
q3 16 4 33q1 6 1 11v25zM427 431q16 -15 30 -34q46 -66 45 -162v-12q-1 -8 -1 -17q-2 -21 -7 -42q-13 -58 -47 -100q-12 -14 -25 -25q-16 -15 -35 -26q-50 -28 -115 -28h-13q-8 1 -16 1q-22 3 -42 8q-55 15 -92 53q-29 29 -46 67q-23 52 -23 119q0 101 54 171q64 82 181 82
q51 0 92 -17q60 11 60 78h63q0 -56 -30 -90q-14 -16 -33 -26zM286 551h-41l41 144h86z" />
    <glyph glyph-name="uni1EDF" unicode="&#x1edf;" horiz-adv-x="542" 
d="M416 254q0 15 -2 30q-6 42 -22 72q-12 22 -29 36q-22 19 -50 26q-10 2 -21 3l-8 1h-7q-96 0 -132 -86q-12 -28 -16 -65l-2 -25v-16q0 -15 2 -30q0 -5 1 -11l1 -4v-3q1 -8 3 -16q2 -10 5 -19q9 -25 22 -45q39 -54 111 -53q11 0 22 2q15 2 29 7q38 15 61 50q19 29 27 77
q3 16 4 33q1 6 1 11v25zM427 431q16 -15 30 -34q46 -66 45 -162v-12q-1 -8 -1 -17q-2 -21 -7 -42q-13 -58 -47 -100q-12 -14 -25 -25q-16 -15 -35 -26q-50 -28 -115 -28h-13q-8 1 -16 1q-22 3 -42 8q-55 15 -92 53q-29 29 -46 67q-23 52 -23 119q0 101 54 171q64 82 181 82
q51 0 92 -17q60 11 60 78h63q0 -56 -30 -90q-14 -16 -33 -26zM227 554q5 14 15 27l8 10l9 9q20 21 20 38q0 31 -33 31q-14 0 -28 -11q-11 -9 -21 -24l-34 20q34 67 99 67q35 0 59 -21q24 -20 24 -51q0 -29 -26 -56l-11 -11l-12 -12q-14 -15 -22 -29z" />
    <glyph glyph-name="uni1EE1" unicode="&#x1ee1;" horiz-adv-x="542" 
d="M416 254q0 15 -2 30q-6 42 -22 72q-12 22 -29 36q-22 19 -50 26q-10 2 -21 3l-8 1h-7q-96 0 -132 -86q-12 -28 -16 -65l-2 -25v-16q0 -15 2 -30q0 -5 1 -11l1 -4v-3q1 -8 3 -16q2 -10 5 -19q9 -25 22 -45q39 -54 111 -53q11 0 22 2q15 2 29 7q38 15 61 50q19 29 27 77
q3 16 4 33q1 6 1 11v25zM427 431q16 -15 30 -34q46 -66 45 -162v-12q-1 -8 -1 -17q-2 -21 -7 -42q-13 -58 -47 -100q-12 -14 -25 -25q-16 -15 -35 -26q-50 -28 -115 -28h-13q-8 1 -16 1q-22 3 -42 8q-55 15 -92 53q-29 29 -46 67q-23 52 -23 119q0 101 54 171q64 82 181 82
q51 0 92 -17q60 11 60 78h63q0 -56 -30 -90q-14 -16 -33 -26zM436 665v-2l-1 -3q0 -6 -2 -12q-4 -19 -11 -35q-23 -49 -68 -48q-22 0 -86 25q-29 10 -41 10q-17 0 -26 -13q-4 -5 -5 -11q-2 -4 -2 -7h-49q0 2 1 7q0 6 2 13q4 18 12 34q23 46 71 45q20 0 45 -9l22 -8l22 -8
l4 -2q3 -1 8 -3q14 -4 24 -4q17 0 26 13q3 4 5 10q1 5 1 8h48z" />
    <glyph glyph-name="uni1EE3" unicode="&#x1ee3;" horiz-adv-x="542" 
d="M416 254q0 15 -2 30q-6 42 -22 72q-12 22 -29 36q-22 19 -50 26q-10 2 -21 3l-8 1h-7q-96 0 -132 -86q-12 -28 -16 -65l-2 -25v-16q0 -15 2 -30q0 -5 1 -11l1 -4v-3q1 -8 3 -16q2 -10 5 -19q9 -25 22 -45q39 -54 111 -53q11 0 22 2q15 2 29 7q38 15 61 50q19 29 27 77
q3 16 4 33q1 6 1 11v25zM427 431q16 -15 30 -34q46 -66 45 -162v-12q-1 -8 -1 -17q-2 -21 -7 -42q-13 -58 -47 -100q-12 -14 -25 -25q-16 -15 -35 -26q-50 -28 -115 -28h-13q-8 1 -16 1q-22 3 -42 8q-55 15 -92 53q-29 29 -46 67q-23 52 -23 119q0 101 54 171q64 82 181 82
q51 0 92 -17q60 11 60 78h63q0 -56 -30 -90q-14 -16 -33 -26zM238 -192v103h87v-103h-87z" />
    <glyph glyph-name="uni1EE5" unicode="&#x1ee5;" 
d="M375 0l-1 72q-8 -12 -20 -24q-60 -60 -140 -60h-9q-6 1 -13 1q-18 3 -34 8q-47 15 -70 53q-18 29 -22 71q-2 16 -2 37v313h79v-268q0 -72 11 -95q9 -18 28 -30q23 -15 58 -15h9q5 1 11 1q16 2 30 7q40 14 62 46q16 23 21 57q1 13 2 31v266h78v-471h-78zM218 -192v103h87
v-103h-87z" />
    <glyph glyph-name="uhorn" unicode="&#x1b0;" 
d="M453 420v-420h-78l-1 72q-8 -12 -20 -24q-60 -60 -140 -60h-9q-6 1 -13 1q-18 3 -34 8q-47 15 -70 53q-18 29 -22 71q-2 16 -2 37v313h79v-268q0 -72 11 -95q9 -18 28 -30q23 -15 58 -15h9q5 1 11 1q16 2 30 7q40 14 62 46q16 23 21 57q1 13 2 31v266h53q51 14 51 76h63
q0 -56 -30 -90q-22 -26 -59 -37z" />
    <glyph glyph-name="utilde" unicode="&#x169;" 
d="M375 0l-1 72q-8 -12 -20 -24q-60 -60 -140 -60h-9q-6 1 -13 1q-18 3 -34 8q-47 15 -70 53q-18 29 -22 71q-2 16 -2 37v313h79v-268q0 -72 11 -95q9 -18 28 -30q23 -15 58 -15h9q5 1 11 1q16 2 30 7q40 14 62 46q16 23 21 57q1 13 2 31v266h78v-471h-78zM405 635v-2l-1 -3
q0 -6 -2 -12q-4 -19 -11 -35q-23 -49 -68 -48q-22 0 -86 25q-29 10 -41 10q-17 0 -26 -13q-4 -5 -5 -11q-2 -4 -2 -7h-49q0 2 1 7q0 6 2 13q4 18 12 34q23 46 71 45q20 0 45 -9l22 -8l22 -8l4 -2q3 -1 8 -3q14 -4 24 -4q17 0 26 13q3 4 5 10q1 5 1 8h48z" />
    <glyph glyph-name="uni1EE7" unicode="&#x1ee7;" 
d="M375 0l-1 72q-8 -12 -20 -24q-60 -60 -140 -60h-9q-6 1 -13 1q-18 3 -34 8q-47 15 -70 53q-18 29 -22 71q-2 16 -2 37v313h79v-268q0 -72 11 -95q9 -18 28 -30q23 -15 58 -15h9q5 1 11 1q16 2 30 7q40 14 62 46q16 23 21 57q1 13 2 31v266h78v-471h-78zM233 554
q5 14 15 27l8 10l9 9q20 21 20 38q0 31 -33 31q-14 0 -28 -11q-11 -9 -21 -24l-34 20q34 67 99 67q35 0 59 -21q24 -20 24 -51q0 -29 -26 -56l-11 -11l-12 -12q-14 -15 -22 -29z" />
    <glyph glyph-name="uni1EE9" unicode="&#x1ee9;" 
d="M453 420v-420h-78l-1 72q-8 -12 -20 -24q-60 -60 -140 -60h-9q-6 1 -13 1q-18 3 -34 8q-47 15 -70 53q-18 29 -22 71q-2 16 -2 37v313h79v-268q0 -72 11 -95q9 -18 28 -30q23 -15 58 -15h9q5 1 11 1q16 2 30 7q40 14 62 46q16 23 21 57q1 13 2 31v266h53q51 14 51 76h63
q0 -56 -30 -90q-22 -26 -59 -37zM284 522h-41l41 144h86z" />
    <glyph glyph-name="uni1EEB" unicode="&#x1eeb;" 
d="M453 420v-420h-78l-1 72q-8 -12 -20 -24q-60 -60 -140 -60h-9q-6 1 -13 1q-18 3 -34 8q-47 15 -70 53q-18 29 -22 71q-2 16 -2 37v313h79v-268q0 -72 11 -95q9 -18 28 -30q23 -15 58 -15h9q5 1 11 1q16 2 30 7q40 14 62 46q16 23 21 57q1 13 2 31v266h53q51 14 51 76h63
q0 -56 -30 -90q-22 -26 -59 -37zM266 521l-83 144h89l42 -144h-48z" />
    <glyph glyph-name="uni1EED" unicode="&#x1eed;" 
d="M453 420v-420h-78l-1 72q-8 -12 -20 -24q-60 -60 -140 -60h-9q-6 1 -13 1q-18 3 -34 8q-47 15 -70 53q-18 29 -22 71q-2 16 -2 37v313h79v-268q0 -72 11 -95q9 -18 28 -30q23 -15 58 -15h9q5 1 11 1q16 2 30 7q40 14 62 46q16 23 21 57q1 13 2 31v266h53q51 14 51 76h63
q0 -56 -30 -90q-22 -26 -59 -37zM234 554q5 14 15 27l8 10l9 9q20 21 20 38q0 31 -33 31q-14 0 -28 -11q-11 -9 -21 -24l-34 20q34 67 99 67q35 0 59 -21q24 -20 24 -51q0 -29 -26 -56l-11 -11l-12 -12q-14 -15 -22 -29z" />
    <glyph glyph-name="uni1EEF" unicode="&#x1eef;" 
d="M453 420v-420h-78l-1 72q-8 -12 -20 -24q-60 -60 -140 -60h-9q-6 1 -13 1q-18 3 -34 8q-47 15 -70 53q-18 29 -22 71q-2 16 -2 37v313h79v-268q0 -72 11 -95q9 -18 28 -30q23 -15 58 -15h9q5 1 11 1q16 2 30 7q40 14 62 46q16 23 21 57q1 13 2 31v266h53q51 14 51 76h63
q0 -56 -30 -90q-22 -26 -59 -37zM433 635v-2l-1 -3q0 -6 -2 -12q-4 -19 -11 -35q-23 -49 -68 -48q-22 0 -86 25q-29 10 -41 10q-17 0 -26 -13q-4 -5 -5 -11q-2 -4 -2 -7h-49q0 2 1 7q0 6 2 13q4 18 12 34q23 46 71 45q20 0 45 -9l22 -8l22 -8l4 -2q3 -1 8 -3q14 -4 24 -4
q17 0 26 13q3 4 5 10q1 5 1 8h48z" />
    <glyph glyph-name="uni1EF1" unicode="&#x1ef1;" 
d="M453 420v-420h-78l-1 72q-8 -12 -20 -24q-60 -60 -140 -60h-9q-6 1 -13 1q-18 3 -34 8q-47 15 -70 53q-18 29 -22 71q-2 16 -2 37v313h79v-268q0 -72 11 -95q9 -18 28 -30q23 -15 58 -15h9q5 1 11 1q16 2 30 7q40 14 62 46q16 23 21 57q1 13 2 31v266h53q51 14 51 76h63
q0 -56 -30 -90q-22 -26 -59 -37zM245 -192v103h87v-103h-87z" />
    <glyph glyph-name="ygrave" unicode="&#x1ef3;" horiz-adv-x="437" 
d="M227 -86l-3 -9l-4 -9l-7 -20q-9 -23 -16 -36q-20 -40 -46 -56q-26 -17 -71 -17q-16 0 -29 2q-21 2 -42 8v72l9 -3l11 -2q15 -3 31 -3h7q6 0 11 1q15 2 26 9q18 12 32 41q5 10 10 24l4 12l4 11l20 58l-160 474h85l118 -374l125 374h83zM213 521l-83 144h89l42 -144h-48z
" />
    <glyph glyph-name="uni1EF5" unicode="&#x1ef5;" horiz-adv-x="437" 
d="M227 -86l-3 -9l-4 -9l-7 -20q-9 -23 -16 -36q-20 -40 -46 -56q-26 -17 -71 -17q-16 0 -29 2q-21 2 -42 8v72l9 -3l11 -2q15 -3 31 -3h7q6 0 11 1q15 2 26 9q18 12 32 41q5 10 10 24l4 12l4 11l20 58l-160 474h85l118 -374l125 374h83zM273 -192v103h87v-103h-87z" />
    <glyph glyph-name="uni1EF7" unicode="&#x1ef7;" horiz-adv-x="437" 
d="M227 -86l-3 -9l-4 -9l-7 -20q-9 -23 -16 -36q-20 -40 -46 -56q-26 -17 -71 -17q-16 0 -29 2q-21 2 -42 8v72l9 -3l11 -2q15 -3 31 -3h7q6 0 11 1q15 2 26 9q18 12 32 41q5 10 10 24l4 12l4 11l20 58l-160 474h85l118 -374l125 374h83zM190 554q5 14 15 27l8 10l9 9
q20 21 20 38q0 31 -33 31q-14 0 -28 -11q-11 -9 -21 -24l-34 20q34 67 99 67q35 0 59 -21q24 -20 24 -51q0 -29 -26 -56l-11 -11l-12 -12q-14 -15 -22 -29z" />
    <glyph glyph-name="uni1EF9" unicode="&#x1ef9;" horiz-adv-x="437" 
d="M227 -86l-3 -9l-4 -9l-7 -20q-9 -23 -16 -36q-20 -40 -46 -56q-26 -17 -71 -17q-16 0 -29 2q-21 2 -42 8v72l9 -3l11 -2q15 -3 31 -3h7q6 0 11 1q15 2 26 9q18 12 32 41q5 10 10 24l4 12l4 11l20 58l-160 474h85l118 -374l125 374h83zM363 635v-2l-1 -3q0 -6 -2 -12
q-4 -19 -11 -35q-23 -49 -68 -48q-22 0 -86 25q-29 10 -41 10q-17 0 -26 -13q-4 -5 -5 -11q-2 -4 -2 -7h-49q0 2 1 7q0 6 2 13q4 18 12 34q23 46 71 45q20 0 45 -9l22 -8l22 -8l4 -2q3 -1 8 -3q14 -4 24 -4q17 0 26 13q3 4 5 10q1 5 1 8h48z" />
    <glyph glyph-name="abreve" unicode="&#x103;" horiz-adv-x="500" 
d="M486 3q-27 -9 -51 -9h-7q-7 1 -13 2q-19 2 -30 10q-5 4 -10 10l-4 5l-1 2l-1 1q-8 12 -12 23l-2 9l-2 8l-4 -5l-6 -5q-6 -7 -12 -12q-16 -15 -33 -25q-47 -30 -106 -30q-21 0 -40 4q-7 1 -14 3q-5 1 -11 3q-95 32 -95 125q0 10 2 20q2 14 7 26q12 33 42 56q33 24 91 39
q45 10 100 14l72 5q0 26 -1 39q0 8 -1 14q-1 9 -3 17q-4 19 -13 34q-25 39 -87 39h-8q-5 0 -11 -1q-15 -2 -28 -6q-38 -14 -50 -50q-5 -15 -5 -42l-83 5q0 8 2 19q2 13 6 27q15 44 49 71q48 38 124 38h13q8 -1 17 -2q22 -2 44 -8q5 -1 9 -3l12 -4q16 -6 30 -15
q39 -25 54 -66q10 -28 10 -101v-169l1 -16v-5l1 -5q2 -7 5 -12q8 -14 29 -14q6 0 24 4v-67zM347 207l-1 14v9q-6 -1 -16 -3l-10 -1l-11 -2q-28 -4 -47 -7q-61 -11 -84 -21q-4 -1 -7 -3l-8 -4q-11 -6 -20 -14q-23 -21 -23 -51q0 -29 21 -48q24 -22 68 -22q20 0 40 5
q25 6 45 19q53 36 53 115v14zM357 637q0 -43 -34 -75q-35 -32 -80 -32q-43 0 -77 27q-37 29 -38 80h51q14 -40 64 -40q24 0 40 11t21 29h53z" />
    <glyph glyph-name="Abreve" unicode="&#x102;" horiz-adv-x="646" 
d="M535 0l-77 216h-269l-79 -216h-100l269 706h98l257 -706h-99zM327 590l-108 -295h211zM437 872q0 -43 -34 -75q-35 -32 -80 -32q-43 0 -77 27q-37 29 -38 80h51q14 -40 64 -40q24 0 40 11t21 29h53z" />
    <glyph glyph-name="itilde" unicode="&#x129;" horiz-adv-x="208" 
d="M67 0v471h77v-471h-77zM254 630v-2l-1 -3q0 -6 -2 -12q-4 -19 -11 -35q-23 -49 -68 -48q-22 0 -86 25q-29 10 -41 10q-17 0 -26 -13q-4 -5 -5 -11q-2 -4 -2 -7h-49q0 2 1 7q0 6 2 13q4 18 12 34q23 46 71 45q20 0 45 -9l22 -8l22 -8l4 -2q3 -1 8 -3q14 -4 24 -4
q17 0 26 13q3 4 5 10q1 5 1 8h48z" />
    <glyph glyph-name="breve" unicode="&#x2d8;" horiz-adv-x="400" 
d="M315 637q0 -43 -34 -75q-35 -32 -80 -32q-43 0 -77 27q-37 29 -38 80h51q14 -40 64 -40q24 0 40 11t21 29h53z" />
    <glyph glyph-name="uniE00D" unicode="&#xe00d;" horiz-adv-x="0" 
d="M193 751l-61 95l-59 -95h-70l94 151h67l104 -151h-75zM305 810h-41l41 144h86z" />
    <glyph glyph-name="uniE00E" unicode="&#xe00e;" horiz-adv-x="0" 
d="M193 750l-61 95l-59 -95h-70l94 151h67l104 -151h-75zM290 843l-83 144h89l42 -144h-48z" />
    <glyph glyph-name="uniE00F" unicode="&#xe00f;" horiz-adv-x="0" 
d="M193 749l-61 95l-59 -95h-70l94 151h67l104 -151h-75zM323 1016v-2l-1 -3q0 -6 -2 -12q-4 -19 -11 -35q-23 -49 -68 -48q-22 0 -86 25q-29 10 -41 10q-17 0 -26 -13q-4 -5 -5 -11q-2 -4 -2 -7h-49q0 2 1 7q0 6 2 13q4 18 12 34q23 46 71 45q20 0 45 -9l22 -8l22 -8l4 -2
q3 -1 8 -3q14 -4 24 -4q17 0 26 13q3 4 5 10q1 5 1 8h48z" />
    <glyph glyph-name="uniE010" unicode="&#xe010;" horiz-adv-x="0" 
d="M315 856q0 -43 -34 -75q-35 -32 -80 -32q-43 0 -77 27q-37 29 -38 80h51q14 -40 64 -40q24 0 40 11t21 29h53zM360 986v-2l-1 -3q0 -6 -2 -12q-4 -19 -11 -35q-23 -49 -68 -48q-22 0 -86 25q-29 10 -41 10q-17 0 -26 -13q-4 -5 -5 -11q-2 -4 -2 -7h-49q0 2 1 7q0 6 2 13
q4 18 12 34q23 46 71 45q20 0 45 -9l22 -8l22 -8l4 -2q3 -1 8 -3q14 -4 24 -4q17 0 26 13q3 4 5 10q1 5 1 8h48z" />
    <glyph glyph-name="uniE011" unicode="&#xe011;" horiz-adv-x="0" 
d="M315 855q0 -43 -34 -75q-35 -32 -80 -32q-43 0 -77 27q-37 29 -38 80h51q14 -40 64 -40q24 0 40 11t21 29h53zM230 880h-41l41 144h86z" />
    <glyph glyph-name="uniE012" unicode="&#xe012;" horiz-adv-x="0" 
d="M315 856q0 -43 -34 -75q-35 -32 -80 -32q-43 0 -77 27q-37 29 -38 80h51q14 -40 64 -40q24 0 40 11t21 29h53zM181 879l-83 144h89l42 -144h-48z" />
    <glyph glyph-name="uniE013" unicode="&#xe013;" horiz-adv-x="0" 
d="M315 856q0 -43 -34 -75q-35 -32 -80 -32q-43 0 -77 27q-37 29 -38 80h51q14 -40 64 -40q24 0 40 11t21 29h53zM176 877.5q5 10.5 15 20.25l8 7.5l9 6.75q20 15.75 20 28.5q0 23.25 -33 23.25q-14 0 -28 -8.25q-11 -6.75 -21 -18l-34 15q34 50.25 99 50.25q35 0 59 -15.75
q24 -15 24 -38.25q0 -21.75 -26 -42l-11 -8.25l-12 -9q-14 -11.25 -22 -21.75z" />
    <glyph glyph-name="uniE014" unicode="&#xe014;" horiz-adv-x="0" 
d="M193 748l-61 95l-59 -95h-70l94 151h67l104 -151h-75zM253 822q5 14 15 27l8 10l9 9q20 21 20 38q0 31 -33 31q-14 0 -28 -11q-11 -9 -21 -24l-34 20q34 67 99 67q35 0 59 -21q24 -20 24 -51q0 -29 -26 -56l-11 -11l-12 -12q-14 -15 -22 -29z" />
    <glyph glyph-name="uniE015" unicode="&#xe015;" horiz-adv-x="271" 
d="M153 521l-83 144h89l42 -144h-48z" />
    <glyph glyph-name="uniE016" unicode="&#xe016;" horiz-adv-x="271" 
d="M113 522h-41l41 144h86z" />
    <glyph glyph-name="uniE017" unicode="&#xe017;" horiz-adv-x="271" 
d="M193 523l-61 95l-59 -95h-70l94 151h67l104 -151h-75z" />
    <glyph glyph-name="uniE018" unicode="&#xe018;" horiz-adv-x="0" 
 />
    <glyph glyph-name="uniE019" unicode="&#xe019;" horiz-adv-x="271" 
d="M281 635v-2l-1 -3q0 -6 -2 -12q-4 -19 -11 -35q-23 -49 -68 -48q-22 0 -86 25q-29 10 -41 10q-17 0 -26 -13q-4 -5 -5 -11q-2 -4 -2 -7h-49q0 2 1 7q0 6 2 13q4 18 12 34q23 46 71 45q20 0 45 -9l22 -8l22 -8l4 -2q3 -1 8 -3q14 -4 24 -4q17 0 26 13q3 4 5 10q1 5 1 8h48
z" />
    <glyph glyph-name="uniE01A" unicode="&#xe01a;" horiz-adv-x="271" 
d="M153 521l-83 144h89l42 -144h-48z" />
    <glyph glyph-name="uniE01B" unicode="&#xe01b;" horiz-adv-x="0" 
 />
    <glyph glyph-name="uniE01C" unicode="&#xe01c;" horiz-adv-x="400" 
d="M315 637q0 -43 -34 -75q-35 -32 -80 -32q-43 0 -77 27q-37 29 -38 80h51q14 -40 64 -40q24 0 40 11t21 29h53z" />
    <glyph glyph-name="uniE01D" unicode="&#xe01d;" horiz-adv-x="400" 
d="M315 637q0 -43 -34 -75q-35 -32 -80 -32q-43 0 -77 27q-37 29 -38 80h51q14 -40 64 -40q24 0 40 11t21 29h53z" />
    <glyph glyph-name="uniE01E" unicode="&#xe01e;" horiz-adv-x="0" 
 />
    <glyph glyph-name="uniE01F" unicode="&#xe01f;" horiz-adv-x="300" 
d="M106 554q5 14 15 27l8 10l9 9q20 21 20 38q0 31 -33 31q-14 0 -28 -11q-11 -9 -21 -24l-34 20q34 67 99 67q35 0 59 -21q24 -20 24 -51q0 -29 -26 -56l-11 -11l-12 -12q-14 -15 -22 -29z" />
    <glyph glyph-name="uniE020" unicode="&#xe020;" horiz-adv-x="0" 
 />
    <glyph glyph-name="gravecomb" unicode="&#x300;" horiz-adv-x="0" 
d="M-259 521l-83 144h89l42 -144h-48z" />
    <glyph glyph-name="acutecomb" unicode="&#x301;" horiz-adv-x="0" 
d="M-286 522h-41l41 144h86z" />
    <glyph glyph-name="tildecomb" unicode="&#x303;" horiz-adv-x="0" 
d="M-80 635v-2l-1 -3q0 -6 -2 -12q-4 -19 -11 -35q-23 -49 -68 -48q-22 0 -86 25q-29 10 -41 10q-17 0 -26 -13q-4 -5 -5 -11q-2 -4 -2 -7h-49q0 2 1 7q0 6 2 13q4 18 12 34q23 46 71 45q20 0 45 -9l22 -8l22 -8l4 -2q3 -1 8 -3q14 -4 24 -4q17 0 26 13q3 4 5 10q1 5 1 8h48
z" />
    <glyph glyph-name="dotbelowcomb" unicode="&#x323;" horiz-adv-x="0" 
d="M-264 -192v103h87v-103h-87z" />
    <glyph glyph-name="uni031B" unicode="&#x31b;" horiz-adv-x="375" 
d="M549 553q0 -56 -30 -90q-39 -45 -122 -45l4 55q85 0 85 80h63z" />
    <glyph glyph-name="hookabovecomb" unicode="&#x309;" horiz-adv-x="300" 
d="M106 554q5 14 15 27l8 10l9 9q20 21 20 38q0 31 -33 31q-14 0 -28 -11q-11 -9 -21 -24l-34 20q34 67 99 67q35 0 59 -21q24 -20 24 -51q0 -29 -26 -56l-11 -11l-12 -12q-14 -15 -22 -29z" />
    </font>
</defs>
</svg>
